<svg id="avatar" xmlns="http://www.w3.org/2000/svg" width="426" height="426" viewBox="0 0 426 426"><defs><style>.cls-1{fill:#fbd334;}.cls-2{fill:#0c0b09;}.cls-3{fill:#131512;}.cls-4{fill:#06d7f2;}.cls-5{fill:#100f0b;}.cls-6{fill:#0e0d0b;}.cls-7{fill:#bba77b;}.cls-8{fill:#28281a;}.cls-9{fill:#06d7f3;}.cls-10{fill:#0e0d0a;}.cls-11{fill:#252018;}.cls-12{fill:#1f1a12;}.cls-13{fill:#201c12;}.cls-14{fill:#28c9d2;}.cls-15{fill:#e7ca7d;}.cls-16{fill:#67d7a4;}.cls-17{fill:#dad34b;}.cls-18{fill:#18484e;}.cls-19{fill:#8cd482;}.cls-20{fill:#7dd88a;}.cls-21{fill:#41d5bc;}.cls-22{fill:#a0d781;}.cls-23{fill:#bad76b;}.cls-24{fill:#4fdbaa;}.cls-25{fill:#86d78c;}.cls-26{fill:#9bd47c;}.cls-27{fill:#dfcb84;}.cls-28{fill:#aa7309;}.cls-29{fill:#afa493;}.cls-30{fill:#b2a799;}.cls-31{fill:#39b2e3;}.cls-32{fill:#958c83;}.cls-33{fill:#93640a;}.cls-34{fill:#674205;}.cls-35{fill:#5d3705;}.cls-36{fill:#0d6b9f;}.cls-37{fill:#4f370c;}.cls-38{fill:#a2998e;}.cls-39{fill:#9d9489;}.cls-40{fill:#dacebd;}.cls-41{fill:#5d3d09;}.cls-42{fill:#999285;}.cls-43{fill:#7d7469;}.cls-44{fill:#817a70;}.cls-45{fill:#7c756a;}.cls-46{fill:#e2d5c7;}.cls-47{fill:#ddd2bf;}.cls-48{fill:#3b3b38;}.cls-49{fill:#3a3837;}.cls-50{fill:#dacec0;}.cls-51{fill:#675c50;}.cls-52{fill:#d1bf8a;}.cls-53{fill:#cbbb8b;}.cls-54{fill:#aa8932;}.cls-55{fill:#654615;}.cls-56{fill:#352f27;}.cls-57{fill:#bcac7e;}.cls-58{fill:#9c9a71;}.cls-59{fill:#97926b;}.cls-60{fill:#b1a477;}.cls-61{fill:#b4a37b;}.cls-62{fill:#948a65;}.cls-63{fill:#938260;}.cls-64{fill:#fdf3df;}.cls-65{fill:#aea395;}.cls-66{fill:#3ac6f9;}.cls-67{fill:#0f73ab;}.cls-68{fill:#d9c99b;}.cls-69{fill:#c0b688;}.cls-70{fill:#cec292;}.cls-71{fill:#36b3e3;}.cls-72{fill:#062549;}.cls-73{fill:#bfb287;}.cls-74{fill:#948d82;}.cls-75{fill:#23241f;}.cls-76{fill:#978e85;}.cls-77{fill:#bbb181;}.cls-78{fill:#aaa17a;}.cls-79{fill:#9e997a;}.cls-80{fill:#90877f;}.cls-81{fill:#48403a;}.cls-82{fill:#2f2d28;}.cls-83{fill:#0a0e18;}.cls-84{fill:#dcd0c0;}.cls-85{fill:#afa396;}.cls-86{fill:#4c4d47;}.cls-87{fill:#9d906f;}.cls-88{fill:#4a482c;}.cls-89{fill:#8d846d;}.cls-90{fill:#f0e2d0;}.cls-91{fill:#f1e3d1;}.cls-92{fill:#797460;}.cls-93{fill:#efdd7f;}.cls-94{fill:#c5ba89;}.cls-95{fill:#f9cb29;}.cls-96{fill:#050405;}.cls-97{fill:#f9edd8;}.cls-98{fill:#1d1e1b;}.cls-99{fill:#101113;}.cls-100{fill:#4d463c;}.cls-101{fill:#474140;}.cls-102{fill:#564e43;}.cls-103{fill:#332b26;}.cls-104{fill:#e1d5c2;}.cls-105{fill:#f9edd9;}.cls-106{fill:#ecdfcd;}.cls-107{fill:#3bc3f7;}.cls-108{fill:#053e71;}.cls-109{fill:#daece8;}.cls-110{fill:#87827a;}.cls-111{fill:#c2b6a7;}.cls-112{fill:#332d25;}.cls-113{fill:#292822;}.cls-114{fill:#595247;}.cls-115{fill:#564f46;}.cls-116{fill:#5a524b;}.cls-117{fill:#f8e9d6;}.cls-118{fill:#bbafa1;}.cls-119{fill:#ece0cd;}.cls-120{fill:#3cc1f2;}.cls-121{fill:#062449;}.cls-122{fill:#081115;}.cls-123{fill:#b0a698;}.cls-124{fill:#595147;}.cls-125{fill:#968f86;}.cls-126{fill:#2e2824;}.cls-127{fill:#e1d0a0;}.cls-128{fill:#f7e9d8;}.cls-129{fill:#6f6559;}.cls-130{fill:#e5f4ee;}.cls-131{fill:#023d75;}</style></defs><path class="cls-1" d="M785.11,752.91c-11.83,0-23.65-.07-35.47.06-2.12,0-2.95-.37-2.54-2.55a12.92,12.92,0,0,0,0-2.49q0-208.09-.12-416.17c0-4.25,1.09-4.76,5-4.76q208.32.18,416.63,0c3.44,0,4.41.51,4.41,4.28q-.2,208.83,0,417.67c0,3.51-.81,4-4.14,4-40.63-.14-81.26-.09-121.89-.09-1.16-1-2.2-2.14-1.53-3.9,1.06-1.72,2.82-1.47,4.46-1.61,1.24-.1,2.48-.26,1.57-2a65.65,65.65,0,0,0-7.17-12.6c-.2-2.38,1.44-3.08,3.28-3.62a5.84,5.84,0,0,1,3.64.71c.82.35,1.5,1.48,2.46.94,1.19-.66,0-1.63,0-2.47a6.39,6.39,0,0,1,.4-5c1-1.4,2.42-1.29,3.89-.87,1.76.51,2.75-.22,3-2-1.68-3.66.47-5.58,3.23-7.28A188.57,188.57,0,0,0,1080,702.73a116.78,116.78,0,0,0,22.81-22.86A42.44,42.44,0,0,1,1114.4,669c4.7-2.88,7.94-7.48,12.61-10.54,4.36-2.85,8.25-4.14,12.85-1.09a7.25,7.25,0,0,0,2.88.73c1.33,1.51,3.36,1.77,4.61,2.43a19.58,19.58,0,0,1-4.88-2.54,5,5,0,0,1-3.74-2.13c-.82-1.7-3-2.91-1.94-5.31,6.39-4.62,11.09-10.82,15.82-17,2.14-2.79,5-4.83,7.43-7.31,2.65-2.68,3.26-5,.46-8.09-4.13-4.48-6.9-9.34-3.53-15.7,1.18-2.21-.72-4-2-5.74-4.33-5.85-9.19-11.3-13.32-17.31-1.34-1.95-2.63-3.85-2.25-6.37a8.67,8.67,0,0,0-1.67-6.17,6.87,6.87,0,0,1-.37-3.88c.26-3,.08-5.94-1.85-8.48-1.13-4.89-.68-9.84-.44-14.77.6-3,.65-6-1.3-8.59a9.71,9.71,0,0,1-.58-5.61,6.58,6.58,0,0,0-1.7-6.38c-2.25-3.27-2-7.33-3.49-10.84a88.34,88.34,0,0,0-10.48-18.62,21.87,21.87,0,0,1-4.65-14.88c.32-5.13-.32-10.3.33-15.43.74-3-.26-5.69-1.64-8.3-.84-8.55-2.28-17-3.52-25.54-2.7-18.3-7.8-36-16.46-52.42a83.05,83.05,0,0,0-11-16.54c-3-3.44-5.64-7.27-10.19-8.93-2.72-1-4.22-3.53-6.35-5.28-4.64-3.85-6-3.5-8.32,2.21a15,15,0,0,0-.59,2.86c-.62,1.8-.83,3.76-2,5.36-7.67,15.75-17.25,30.34-27.16,44.73-4.22,5.78-8.89,11.19-13.21,16.87-2.5,3.29-5.18,5-9.64,4.74-30.19-2-57.48,6.69-82.47,23.24-3,1.95-6.1,3.21-9.41,2.21-8.82-2.64-17.93-3.45-27-4.86a86.84,86.84,0,0,0-31.62,0c-5.53,1.89-11.39,1.93-17.09,2.93-12.89,2.28-25.58,5.39-38.2,8.85-2.39.66-4.84,1.12-7.27,1.62-1.87.65-3.78,1.19-5.72,1.67-5.44,1.36-6,2.48-4,8A118.33,118.33,0,0,0,796,492.11a191.51,191.51,0,0,0,46.44,46.11c5.35,3.7,8.14,8.07,7.06,14.6-.88,5.27-.35,10.61-.68,15.9-.59,3.06-.16,6.16-.3,9.22a9.15,9.15,0,0,1-1.72,6c-5.19,7.1-8.06,15.4-11.6,23.34-1.14,2.53.09,4.05,1.67,5.6,3,2.25,6.23,4.23,6.44,8.65,0,1,1.12,2,2.1,2.63,3.31,2.12,3.91,5,2.61,8.53-2.06,5.89-4.74,11.49-5.54,17.88a19.45,19.45,0,0,1-9.65,14.34c-5,1.64-9.83,3.9-14.91,5.37-3.17.92-3.55,2.6-1.05,4.21,4.2,2.71,4.29,5.41,1,8.78-1.36,1.41-1.22,2.48.71,3.36,3,1.35,2.51,3.7,1.13,5.82-11.56,17.67-19.14,37.49-29.92,55.59A12,12,0,0,1,785.11,752.91Z" transform="translate(-747 -327)"/><path class="cls-2" d="M1053.83,347a5.07,5.07,0,0,1-.12-1.44c.66-3.51,2.13-7.37,5.2-8.41,2.16-.73,4.56,2.86,6.82,4.59,1.87,1.44,2.45,4.42,5.4,4.5,2.31,3.07,5.64,5.3,7.28,8.92,8.12,11.85,12.07,25.44,16.22,38.95,5.06,16.48,5.83,33.65,8.39,50.55,1.28,8.41,2.58,16.76,1.42,25.28-.22,1.64.64,2.89,1.53,4.09,13,17.62,18.19,37.8,20,59.21.47,5.46.92,10.92,1.15,16.4.48,11.23,5.73,20.28,12.86,28.48,1.42,1.63,2.66,3.41,4,5.08,3.41,4.16,6.21,8.39,2.54,13.87-.73,1.1-.08,2.28.43,3.32a36.51,36.51,0,0,0,2.31,3.84c5.57,8.55,5.41,9.86-1.58,17.36-5.87,6.31-11.38,13-17.67,18.87-3.45,3.23,1.34,4.36,1.46,6.65.19,2-.92,2.89-2.67,3.27-.32,0-.7.22-1,.12-7.22-2.69-11.77,1.6-17.15,5.53-12.77,9.33-22.1,22-33.38,32.74a115.27,115.27,0,0,1-21.85,16.42c-2,1.17-4.16,2.11-4.72,4.74a2.46,2.46,0,0,1-2,2.09c-4.63.26-5.21,3.06-5.38,7-.18,4.17-2.46,4.78-9.71,2.88,4.18,3.19,5.79,7.3,7.65,11.21s1,5.71-3.16,6.87c-2.92.81-1.55,2.29-1.14,3.73.84,3,3.75,5.85.89,9.23H874.06c-3.2-2.49-4.62-6-5.64-9.75-.68-2.52-1.59-4.31-4.8-4.72-4.23-.55-5.09-4.16-5.43-7.86-.52-5.78-.56-5.78-6.24-5.4-6.06.4-8.13-2.32-6.5-8.2,2-7.43,12.37-13.24,18.17-5.93a4,4,0,0,0,3.51,1.51c4.34-.23,6.64,1.82,6.42,6.22-.12,2.6.58,3.19,3.13,2.24,8.55-3.18,15.56-.52,20.19,7.43,2.84,4.88,2.84,4.88,8.78,4.7-.17-4.1-1.63-6.93-5.6-8.87-7.8-3.81-9.83-7.34-8.52-13.25a4.3,4.3,0,0,1,1.16-2.18c2.22-1,3.68.61,5.36,1.52,10.57,5.71,21,11.68,32.66,15.08,9.21,2.88,18.39,5.83,27.74,8.21a112,112,0,0,0,37,2c7.2-.87,13.88-2.46,20.18-6a5,5,0,0,0,3-4.17c.06-1.56.86-3.47-1-4.38-1.39-.69-2.3.87-3.24,1.67-3,2.6-5.25,1.77-7-1.45-5.94-8.86-15.79-8.43-24.63-10.25-3.87-.8-7.73-1.55-11.53-2.62-4-2.23-8.21-3.24-12.72-1.55-1.11.42-2.76.81-3.3,0-3.19-4.75-6.86-1.29-10.35-.82-3.11.05-5.32-1.52-7.05-3.94a29.12,29.12,0,0,0-14.45-12.22c-8.52-3.34-15.19-9.91-23.3-14a45.89,45.89,0,0,0-22.24-10.59c-5.77-.94-6.19-2.11-4.57-7.84-1.21-6.11,2.45-10.37,5.65-14.8a6.18,6.18,0,0,1,5.23-2.47,48.42,48.42,0,0,1,17.08,2.69,5.93,5.93,0,0,1,2.58,1.47c6.57,7.57,14.75,7.47,23.48,5.12,2.23-.6,4.62-.23,6.85-.41,6.09-.48,12.1-2.23,17.92,1.33,1.11.68,2.5-.58,3.76-1s2.75-.5,3.52.94-.11,2.56-1.07,3.54a20.36,20.36,0,0,1-4.08,2.86c-2.16,1.33-3,3-1.56,5.66,1.48-1.33,1.28-3.61,3-4.47,7.73-2.43,14.94-6.47,23.13-7.46,2.07-.22,3.63-1.94,5.77-2a7.67,7.67,0,0,1,4.45,0,3,3,0,0,1,2.29,1.86,1.76,1.76,0,0,1-.5,1.3c-2.49,1.11-4.3,2.29-.55,4.26.85.45,1.55,1.19,2.46,1.57,3.86,1.78,7,5.25,11.66,5.19a4.36,4.36,0,0,1,1.34,1.64c6.47,4.3,13.77,6.17,21.34,7.21a52.55,52.55,0,0,0,24.78,5.89c11,0,20.58-3.36,27.13-12.9a8.45,8.45,0,0,1,1.57-1.93c7.87-6.06,13.77-13.87,19.48-21.86a3.43,3.43,0,0,1,1.3-.49c.31,0,.63.11,1,.17a1.09,1.09,0,0,0,.31,0c-3.1-1.4-1.87-5.41-4.44-7.28-1-.76.13-2.07.89-2.94,2.91-1.53,1.16-4.25,1.63-6.4,1.31-2.43-1.45-5.35.79-7.6a30.46,30.46,0,0,1,8.14-6.33,10.1,10.1,0,0,0,4.73-3.92c1.77-2.87,4.78-3.94,7.89-4.74.63-.17-.08-.8.17-.18.06.14-.13.13-.42.27a3.25,3.25,0,0,1-3.74-.43c-4.13-3.9-9.27-6.87-9.75-13.68-.35-5-4.64-7.39-8.64-9.53-2.47-1.33-5.25-2.08-7.53-3.81-2-1.53-4.16-3.29-3.61-6.07s3.45-1.87,5.41-2.34a4.79,4.79,0,0,0,1.78-.84,5.49,5.49,0,0,1,1.17-.68c2.88.08,2.73-2.16,3.07-4,8.63-15.23,7.16-31.25-4.18-45.43-4.21-6.13-9.69-8.85-17.11-6.33-4.06-2-4.41-4.17-.75-6.63,6-4,12.54-5.15,19.48-2.43,1.65.65,3.15,1.7,4.73,2-2.46-5.79-7.89-8.68-12.17-12.72-2.18-2.05-4.3-2.14-6.78-.77-3.22,1.78-6.11,4-9.15,6.08-1.25.85-2.78,1.73-4.11.48-1.58-1.5-.51-3.12.5-4.46,2.58-3.38,6.08-5.6,9.73-7.67,1.83-1,4.09-2.12,2.7-5-1.2-2.49-2.79-3.69-5.45-1.65a17.57,17.57,0,0,0-4.54,5.89c-2.4,4.39-5.23,8.51-8,12.65-1.11,1.65-2.57,3.59-4.85,2.28-2.06-1.18-1.73-3.45-1.07-5.41,1.63-4.83,5.15-8.51,8-12.62a74.12,74.12,0,0,1,5.63-7c2.6-3,2.65-5.89.29-9-3.73-4.92-8-9.35-12-14a23.94,23.94,0,0,1-3.92-5.15c-.65-1.37-1.22-2.88.16-4.13a3.22,3.22,0,0,1,4.19-.11c3.65,2.59,7.76,4.57,11.1,7.5a33.39,33.39,0,0,0,8.74,5.63,10,10,0,0,1,2.66,2.28c1.46.7.7,4.24,3.74,2.91.47-.49,1.18-1.1,1-1.63-2.29-7.27-.09-14.93-2-22.22-.3-.61-.67-1.19-1-1.78-1.2-2.34-.74-4.71,0-7,.46-1.38,1.08-2.68.4-4.15-.61-1.72-1.25-3.43-1.7-5.2-3.09-3.64-1-8.46-2.83-12.38a4.81,4.81,0,0,0-1-1.81,18.52,18.52,0,0,1-4-6.05c-2.09-4.28-.55-8.83-1-13.22-2.28-3-6.59-4-8.66-2.8-2.69,1.55-3.21,5.82-2.16,9.43a6.37,6.37,0,0,1-1.82,4c-3.49,6.91-5.09,14.49-7.57,21.75-1.22,3.58-2.3,7.2-3.59,10.75-.63,1.75-1.2,3.84,0,5.74a8.56,8.56,0,0,0,2.13,3.87c.83.79,1.86,1.65,1,3a3.47,3.47,0,0,1-3.14,1.17,3.69,3.69,0,0,1-1.94-.36c-4.51-2.85-9.67-4.28-14.39-6.63-3.64-1.82-4.49-4.78-2.41-8.38,6.49-11.25,10.11-23.85,16.7-35a8.3,8.3,0,0,0,.43-.9c3.3-7.34,4.86-15.44,9.48-22.22,3.27-4.82,1.73-10.67,3.47-15.87.8-2.41-2-2.47-3.73-1.94S1055.62,349,1053.83,347Z" transform="translate(-747 -327)"/><path class="cls-3" d="M893.08,709a7.32,7.32,0,0,1-.05,2c-2.1,6.57,3.37,9.15,7.14,11.43,6.58,4,8.55,6.56,7.32,14.72-2.2-.95-3.78-3.92-6.91-1.53-1.94,1.48-3.05-1.42-3.28-2.54-1.31-6.47-7.82-8-11.31-12.34-.92-1.15-2.44-.89-3.73-.36s-2.41,1.13-3.6,1.72c-7.1,3.52-7.09,3.53-6.7-4,.18-3.31-1.33-4.76-4.59-3.7-1.78.58-3.08,1.43-4.59-.86-3.46-5.25-6.95-5.6-11.92-1.8-2.73,2.09-3.59,5-4.3,8.18s.61,4.08,3.41,3.78c1.31-.14,2.59-.56,3.9-.74,4.33-.58,6.77.87,6.23,5.72a12.84,12.84,0,0,0,.22,5c.55,1.83,1.7,4.31,4,3.21,3.7-1.73,4.7.44,5.08,3,.69,4.68,3.74,8.46,4.61,13h-46c-3-3-3.34-7.15-4.52-10.9a24.6,24.6,0,0,0-4.45-8.22c-1.93-2.41-3.45-2.7-5.55-.35-.94,1.06-2,2.32-3.83,1.49a3.62,3.62,0,0,1-1-2.73c.4-2.47,1.9-4.48,2.86-6.72a34.06,34.06,0,0,1,5.07-7.51c1.55-1.08,1.25-2.55.85-4,.05-3.1,2.68-4.12,4.44-5.47-2,.91-4.75,3-3.9-2.2a62.81,62.81,0,0,1,6.11-8.11c1.19-1.35,2.56-3.1,4.92-2.28,2.4,2.39-.4,5.4,1.15,8.38,3.59-4.83,2.73-10.19,2.93-15.34,1.08-2.08,2.73-1.23,4.3-.85,2.09-.44,5.49.51,3.93-3.75-.45-1.27-.16-2.68-.82-3.88-1.11-.87-3-.77-3.27-2.68,4.24-5.47,3.68-12.92,7.64-18.52a3.89,3.89,0,0,1,3.09-1.72c3.58,1.77,4.69,5.41,6.3,8.59,5.87,11.58,14.44,20.86,24.32,29.06,3.13,3.73,7.12,6.44,10.94,9.35C891.2,705.71,893.08,706.64,893.08,709Z" transform="translate(-747 -327)"/><path class="cls-4" d="M1038,752.91c.64-4.33-2.79-7.24-3.84-11-.34-1.2-1.87-2.3-.68-3.57,1-1,2.47-.59,3.79-.4,1.08.15,2.29,1.44,3.19.24s.12-2.76-.46-4.16c-2.39-5.7-6.19-10.35-11.13-14.66,4-.52,6.88,1.43,10.08,2,2.31.4,3.24.43,3.15-2.48-.08-2.53-2.35-5.74-.28-7.31,1.75-1.31,5.06-.54,8.27-.73-2.77-3.2-1.32-4.33,1.69-5.89,15.32-7.94,27.83-19.38,38.65-32.67,7.91-9.73,18.35-16.5,27.78-24.44,3.5-3,6.36,1.61,9.71,1.14,5.31-.37,8.55,3.65,12.58,6l2.45,2a1.52,1.52,0,0,1-.13,2.24c-2.06-.38-4.09-.31-6.07-1.69a4.77,4.77,0,0,0-5.87.52c-8.3,6.78-17.24,12.87-24.52,20.77-5.5,6-10.28,12.65-16.36,18.07-8,7.15-16.33,14-26.36,18.39-3.19,1.38-1.92,3.56-.77,5.62-2,3.1-5.69.12-8,2.15l.21,5.87c.3,3.92-1.94,3-4.14,2.18l-2.87-1c-1.08.8-5.27-1.82-3,2.7,4.82,2.59,5.91,7.66,8,12.08,1,2.41-.52,2.84-2.34,3-1.59.17-3.34-.33-4.63,1.11-.76,1.54,1.36,2.44.88,3.92Z" transform="translate(-747 -327)"/><path class="cls-5" d="M834.08,688.9a19.72,19.72,0,0,1-2.86,17.81c-.48.68-.88,1.56-1.84,1.36s-.94-1.2-1.27-2c-1.52-3.59.65-6.77,1-10.14l0-.66c.33-2.37-.48-3.27-2.67-1.87a13.36,13.36,0,0,0-4,4.22c-2.14,2.23-4.61,4.18-5.78,7.19a5,5,0,0,1-.64,1.18,39.18,39.18,0,0,0-3.56,7.27,12.33,12.33,0,0,1-1.29,2.5c-6.27,9.34-9.3,20.4-15.72,29.68-1.86,2.69-3,5.92-6.26,7.42h-4c8.7-13.93,15.26-29,22.88-43.49,3.15-6,6.64-11.85,10.35-17.52,2.12-3.24,1.68-4.32-2.12-4.19-1,0-2.17.39-2.75-.56-.81-1.34.49-2.18,1.27-2.89,2-1.78,4-3.39,6.7-5.57-5.05-2-8.11-4.32-10.6-8.43,7.53-1.09,13.83-4.81,20.85-6.45,2-.57,3.14-.3,2.23,2.13-3.23,2.29-6.47,4.58-10.25,5.82a5.25,5.25,0,0,0-.56.18,12.33,12.33,0,0,0,1.3-.43c3.62-.75,7.22-2.35,10.83,0,1.45,1.88,1,3.72-.11,5.54a8.75,8.75,0,0,1-3.28,2.15,14.5,14.5,0,0,0-6.54,2.61,6.12,6.12,0,0,1,4.18-.94C831.7,683.12,835.07,684.77,834.08,688.9Z" transform="translate(-747 -327)"/><path class="cls-6" d="M810.07,734.9c6.25-7.5,9.74-7.26,13.6,1.92,2.12,5,4.09,10.41,4.41,16.09h-31c-1.5-4.1,2.81-5.88,3.75-9.13.87-3,3.48-5.51,4.95-8.48C807,732.94,808.48,733.24,810.07,734.9Z" transform="translate(-747 -327)"/><path class="cls-7" d="M789.11,752.91,810,714.77c3.45,2.45.6,4.7-.4,6.81s-3,4.16-.82,6.72c.78,3.09-1.81,4.87-3.07,7-3.5,5.89-5.71,12.58-10.6,17.63Z" transform="translate(-747 -327)"/><path class="cls-8" d="M795.1,752.91l13-25a.76.76,0,0,1,.4-1.21c3,1,.79,3.61,1.65,5.27,0,1,0,1.94,0,2.91-1,.28-2.25-.93-2.93.8-2.43,6.26-6.68,11.48-10,17.21Z" transform="translate(-747 -327)"/><path class="cls-3" d="M1081,453c-7.07-1.75-11.24-8.08-17.52-11.08-.88-.42-1.53-1.3-2.38-1.78s-2.15-1.54-3.18-.56c-1.25,1.18.21,2.18.84,2.94,3.25,4,6.63,7.84,10,11.74.54.62,1.21,1.14,1.74,1.77,6.34,7.58,9.88,10.79,1.21,19.19a58.62,58.62,0,0,0-10.79,15.36c-.8,1.55-1.73,3.69-.19,4.48,2.11,1.08,2.36-1.65,3.16-2.9,3.4-5.31,6.48-10.85,10.09-16,4.27-6.1,7.51-6,10.8-.55,2.48,4.13.28,6.29-3,7.8-4.74,2.15-8.68,5.05-10.78,10.24,3.29-2.3,6.52-4.69,9.88-6.88,5.79-3.79,6.7-3.68,11.46,1.08a18.68,18.68,0,0,0,5.58,4.12c1.55.68,3,1.46,3.08,3.5s1.23,3.28,3.36,3.62c1.41.22,2.75,1,2.25,2.64-.6,2-2.27,2.07-4.08,1.58-3-.83-5.46-3-8.67-3.67-6.06-1.34-11.14.73-15.93,3.79-2.28,1.46-1.58,3.05,1.05,3.58,1.57,2.2-.31,3.64-1.18,5.27-1.36,2.57-3.52,4.78-3.47,8-1.26,2-.34,4.63-2.06,6.45a36.9,36.9,0,0,0-3.64,17.09c0,4.15-1.49,8.62,1.55,12.43,5.4,8,13.69,8.09,22,8.08,1.59,0,3.22-1,4.63.5-.3,2.85-2.55,1.95-4.21,2.2-.91.14-2.16-.38-2.57.86-.35,1,.45,1.87,1.09,2.63a15.3,15.3,0,0,0,7.6,4.51c4.33,1.33,7.45,4.25,10.27,7.56.82,1,1.9,2.47,1.69,3.47-1.6,7.53,5.64,9.28,8.73,13.69,1,1.36,2.28.87,3.45-.13s2.33-2.33,4.34-2c-.82,2.37-3,3-4.66,4.21-3.14,2.21-7.39,3.35-8.08,8.09-.07.52-1,1.44-1.2,1.36-4.54-1.55-5.34,4.2-9.09,4.58-1.52.16-3.68,2.06-1.39,4.48,1.54,1.63-.49,2.63-.88,3.93-2.55-.17-2.82-2.53-3.64-4.13a13.37,13.37,0,0,0-3.18-4.28c-1.55-2.46-3.17-4.84-6-6-5.38-5-11.46-9-17.68-12.89-6.41-4-11.26-10.2-17.28-14.94-9.45-7.44-11.22-7.67-20.22.39A79.05,79.05,0,0,0,1019,600.41c-5.9,9.72-14.67,17.17-21.29,26.33a3.43,3.43,0,0,1-2.17,1.15,7.78,7.78,0,0,1-3.69-1c-8-2-16-4-24.39-3.35-.66.05.06,1.13,0,.47,0-.13,0-.2.1-.22,6.13-1,12.05.29,18,1.57,1.94.42,3.8,1.21,5.83,1.19,1.06,1.08,3.25.72,3.56,2.77-.34,4.06-3.27,6.71-5.5,9.68a18.46,18.46,0,0,0-3.15,5.53c-.91,1.72-.4,4-2.17,5.38-1.88-.38-2,2.88-4.14,2-4.35-1.24-7.9,1.65-11.88,2.33-1.6.27-3,1.36-4.78,1.14-1.37-1.91.47-5.43-3.36-6.22-1.33-.27-2.41-.79-3.72,0-3.26,1.88-6.35,1.45-9.26-.82-1.27-1-3.14-1.5-4.23-.9-6.27,3.41-13.21,1.07-19.82,2.49-6.21,1.34-13.17,1.12-18.53-5.11-3.16-3.68-9-3.8-13.88-4.22a27.31,27.31,0,0,1-8.7-1.83c-2.3-1-4.71-2.13-5.26-4.87-.64-3.2,2.83-3.17,4.48-5.09-1.37-2-3.76-2.38-5.71-3.37-2.34-1.17-4.58-2.61-4.32-5.5.37-4-2-4.77-5.43-5,.37,2.16.89,4.45-1.17,6.12-3,1.23-4.12-2-6.28-2.79-3.36-3.87-2.21-7.54,3.22-10.61,1.07-.6,2.69-.07,3.21-1.64a9,9,0,0,0-6.79-2.54c-2.88,0-5.18-1.06-6.06-4.08s.27-5.06,3.19-6.29c2.34-1,2.42-2.83,1.49-4.93a33.65,33.65,0,0,1-1.9-5.11,177.92,177.92,0,0,1-1.89-22.11c-.17-4.28.43-8.61-1-12.78,0-3.88,2.3-2.86,4.32-1.83,6.21,3.16,8.25,2.15,9.11-4.81.31-2.46.24-5,.83-7.38.65-2.64-.62-3.61-3-3.87a3.51,3.51,0,0,1-.64-3.7c2.85-9.66,5.44-19.44,11.53-27.74a5.11,5.11,0,0,0,.6-5.58,4.1,4.1,0,0,1,.12-1.44c.52-1.57,2.12-2,3.18-3,.72-.67,2-1.8,1.39-2.37-3.07-3-.26-7.05-2.19-10.15a4.09,4.09,0,0,1-.6-1.86c-.43-5.39-1.71-6.38-7.13-6.9-8.22-.79-16.31.57-24.45,1a3,3,0,0,1-3-2.53c-1,1.66-2.72,1.61-4.35,1.59a13.9,13.9,0,0,0-5.27.87c-8,.93-15.41,4.33-23.26,5.9-4.22-1.16-7.4.11-9.51,4-.82,1.53-2,2.65-4,2.43-1.48-.16-9.65-6.76-9.72-8.2-.21-4.13-2.11-7.6-3.73-11.23-2.27-5.1-1.81-5.84,3.71-7.48,1.22-.36,2.71-.4,3.23-2,20-4.81,39.78-11.12,60.48-12.93a21.14,21.14,0,0,0,3.33-.85,213,213,0,0,1,32.25-.12c9,1.53,18.1,2.23,26.86,4.95,3.14,1,5.86-.45,8.38-2.14,19.5-13.08,40.77-21.33,64.25-23.37a112,112,0,0,1,20.88.06c1.85.19,3,.22,4.11-1.58,4.36-7.3,11.26-12.61,15.75-19.83,2-1.07,2.31.25,2,1.7s-1.27,3-1.61,4.58c-1.38,3.61-3.78,6.53-6.2,9.47s-5.15,6-5.84,10.15a3.1,3.1,0,0,1-1.09,1.1c-7.75,1-15.49-.27-23.25-.08-18.28.43-35.23,5.58-51.36,13.75-4.87,2.47-9.89,4.67-14.5,7.62-3.77,2.67-8.07,4.49-10.13,6.05,2.09-1.5,6.34-3.4,10.14-6,19.47-11.61,40.64-17.85,63.06-20.46a99.08,99.08,0,0,1,27.73.5c2.67.44,5.65.81,8.27-.78a43.18,43.18,0,0,1,8.19-11.43,41.61,41.61,0,0,0,8.68-14.1c1.21-3.1,3.16-5.68,4.51-8.63,3.66-8,5.67-16.88,11.67-23.73,3.5-5.66,3.7-8.34,1.21-11.55-1-1.35-1.65,0-2.47.07-1.77.25-3.27.23-2.25-2.27.64-1.67,1.29-3.35,1.93-5,1.89-.44,4.4.55,5-2.72.22-1.24,1.5-.56,2.41,0,1.81,1.14,3.73,2.11,6.08,3.42-3.25,1.72-3.49,4.58-3.78,7.67-.55,5.9-1.43,11.8-5.92,16.34A3,3,0,0,0,1057,373c-3,11.48-9,21.57-13.88,32.21-3,6.61-5.25,13.56-9.37,19.64-1,1.52-.78,3.22.66,3.92,6.23,3,12.58,5.74,20.17,9.16-1.86-3.35-4.69-4.35-4.56-7.09,2.25-.74,3.77.88,5.46,1.78a138.61,138.61,0,0,1,21.86,14.5C1079.16,448.61,1081.76,449.86,1081,453Z" transform="translate(-747 -327)"/><path class="cls-9" d="M1130.76,647.25c-2-1.76-5.72-2.2-6-4.68-.25-2.13,3.39-2.86,5.13-4.47,3.72-3.46,7.23-7.27,10.49-11,3.79-4.32,8-8.56,11.12-13.57,1.15-1.84.63-2.85-.36-3.77-2-1.86-3.17-4.2-4.71-6.34-2.44-3.37-4.58-6.45-.14-10.05,1.44-1.17,1.22-3-.35-4.78-3.59-4.1-6.53-8.79-10.23-12.78-7.83-8.44-10-18.73-10.84-29.7-1.14-16.08-2.33-32.17-7.79-47.54-3-8.33-7.6-15.77-12.61-22.95a10,10,0,0,1-2-8.21c1.46-8.5-.48-16.95-1.9-25.27-1.54-9-1.46-18.22-3.3-27.21-2.06-10.05-4.57-19.94-7.61-29.77-3.25-10.52-7.82-20.32-12.82-30,1.37-1.47,2.81-1,4.27-.17,5.68,3.91,8.45,10.12,11.57,15.77,8.6,15.57,13.56,32.6,16.78,49.93,1.84,9.91,3.66,20,3.52,30.26,1.42,2.54.21,5.63,1.72,8.15.17,4,.78,8,.42,11.9-.69,7.34.66,13.55,5.46,19.62,6.48,8.22,10.12,18.07,12.39,28.33,1.66,1.77.22,4.4,1.72,6.21q.21,2.88.4,5.76c1.74,2.49-.2,5.74,1.67,8.21l.3,15.6c1.75,2.52-.14,5.78,1.66,8.3.09,1.3.17,2.59.26,3.89,1.66,1.73.14,4.41,1.81,6.14.52,4.77,4.18,7.93,6.73,11.37A141.73,141.73,0,0,0,1157.62,597c2.22,2.38,3.25,5.06.78,7.59s-1.87,4.12-.23,6.64c1.27,2,1.91,4.45,3.82,5.89,4,3,3.62,6.28.38,9.27-7.56,7-13.14,15.78-20.78,22.72a7.94,7.94,0,0,1-4.61,2.12C1133.87,651.52,1132.33,649.35,1130.76,647.25Z" transform="translate(-747 -327)"/><path class="cls-6" d="M862.67,529.85c1.69-.42,2.71-3.33,4.65-1.93,1.55,1.11.8,3.44.61,5.2a103.45,103.45,0,0,1-1.7,11.78c-1.45,6.43-5.91,7.69-10.57,3.26-.92-.86-1.73-2.88-3.52-1a1.8,1.8,0,0,1,.09,1.47c-1,2.51.2,4.92.28,7.38a114.72,114.72,0,0,1-1.62,25.3,2,2,0,0,1-1.23,1c-2.19-.45-2.07-2.16-2.09-3.8-.19-3.52.42-7.06-.36-10.56.15-6.15,0-12.31.95-18.42.48-3.08-.68-5.41-3.32-7.23a205.4,205.4,0,0,1-50.71-49.54,113,113,0,0,1-16.2-30.95c-1.75-5.4-1.29-6.16,4.35-7.79,2.19-.64,4.36-1.38,6.54-2.08,2.65,1.89,0,2.09-.9,2.4-6.6,2.17-6.74,2.2-3.46,8.32,1.6,3,3.2,5.81,2.68,9.35a6.33,6.33,0,0,0,.14,1.48c5.1-1.16,5.23,4.33,8.15,6,1.22.71,1.91-.39,2.38-1.7,1.84-5.08,4.83-6.43,10.28-4.83-.41,2.49-.23,4.85,1.53,6.86a6,6,0,0,1-.33,4.81c-.54,1.18-.78,2.22.78,2.79a11.07,11.07,0,0,1,4.49,1.57c2.85,3,6.15,5.54,6.62,10.16.14,1.36,1.84,2.28,3,3.21,5.37,4.3,9.61,10,16.24,12.73a6.46,6.46,0,0,1,3,3.27,41.4,41.4,0,0,0,10.79,10.41C856.77,530.54,859.85,529.39,862.67,529.85Z" transform="translate(-747 -327)"/><path class="cls-10" d="M864,621c.49-2.71,1.86-5.66-1.95-7.87,2.25,0,4.64-.49,6.71.13,2.58.77,6.47,1.33,3.86,5.94-1.25,2.22.49,3.33,2.25,4.14,2.56,1.17,5.16,2.26,7.72,3.45,1.06.49,2.15,1.11,2.11,2.5-.06,1.62-1.57,1.35-2.52,1.87-1.49.83-4.38-.08-4.41,2.22s2.61,2.75,4.36,3.6c4.42,2.15,9.4,1.75,14.05,2.92,4.47,1.13,9.25,1.53,11.79,6.32.34.65,1.38,1.49,1.93,1.38,5-1,9.88,2.9,14.91.29a10,10,0,0,1,6.83-.82c3.39.81,6.41.76,9.51-1.1,2.68-1.62,5.23.06,7.4,1.44s4.18,1.88,6.47.53c1.86-1.09,3.71-.88,5.73-.25,6.55,2,6.57,2,2.2,7.13-1.37,3.09-5,2.26-7.09,4.16-.18.28-.48.54-.51.84-.23,2.19,1.6,5.17-2.33,5.89-1.23.23-2.72.16-2.76-1.28-.07-2.74-3.25-5.64.88-8.3,2.46-1.58,5.93-2.06,8-6.25-5.48,2.52-10,3-14.14-.65a2.1,2.1,0,0,0-1.92-.16c-5.47,3.13-11.86.31-17.42,2.76-6.38,2.83-12.33-.45-18.42-1.43a3.53,3.53,0,0,1-2-1.43c-5.86-8.35-14.65-7-23-6.87-1.75,0-7.57,9.7-7.52,12,0,1.32.13,2.64.2,4a2.11,2.11,0,0,1-2.68-.08c-2-2-5-2.33-7.12-4.18-2.52-2.15-4.64-4.19-3.27-7.86.5-1.34-.36-2.54-.57-3.81-.28-1.06.29-2.59-.93-3.1-3.48-1.44-4.34-6-8.33-6.74-1.49-.23-2.32,1-3.48,1.48-2.07.81-2.19-.36-1.56-2,.68-2.55.6-4.43-2.1-6.29-2.06-1.41-5.62-2.84-3.91-7.23.41-1.07-3.81-2.08-4.93-4.26-.24-2,1.3-2.14,2.64-2.46,7.15-.29,13.11,3,19.12,6.24a11.32,11.32,0,0,1,3.57,2.51c.74.71.8,1.81,1.46,2.56.4.47,1,1.17,1.56.64s-.13-1.23-.29-1.86Z" transform="translate(-747 -327)"/><path class="cls-11" d="M1051.9,352c.16,1.45,1,1.57,2.17,1.15,1.54,1.91.66,3.74-.23,5.52-1.78,3.53-3.57,7.06-5.55,10.48-.71,1.22-1.44,2.43-2.15,3.65a119.59,119.59,0,0,0-8,13c-2.85,4.47-6.18,8.61-9.11,13-1.14,1.72-2.31,3.77-5,3.49-1.11-2.31,3.38-3.7,1-6.22C1034.75,381.82,1044,367.32,1051.9,352Z" transform="translate(-747 -327)"/><path class="cls-12" d="M847,631.79c.42,1.75,1.2,1.29,1.52.08.73-2.79,2.08-2.11,3.65-.87a1.81,1.81,0,0,1,.34,1.33c-1.56,3.87-3.28,7.66-5.13,11.4-2.15,3.13,1.15,7.14-1.63,10.17A28.08,28.08,0,0,1,838.58,665c-1.79.6-3.35,2.85-5.52.8.76-1.5-.28-1.75-1.37-2a18.37,18.37,0,0,0,9.3-13.88C841.81,643.33,844.12,637.54,847,631.79Z" transform="translate(-747 -327)"/><path class="cls-13" d="M839.34,612.83c-1.18.17-2.42.16-3.28,1.18-3.21-2-4.65-3.29-2.32-8.14,4.31-9,8.91-17.79,13.41-26.67a.58.58,0,0,1,.76-.51A4.25,4.25,0,0,0,850,582a1.74,1.74,0,0,1,.57,1.25c-2.27,5.63-6.22,10.39-8.26,16.13C840.78,603.72,838.15,607.86,839.34,612.83Z" transform="translate(-747 -327)"/><path class="cls-14" d="M1081.14,355l-4.27.17c-2-2.95-5-5.2-5.74-9C1075.33,348.16,1078.91,350.82,1081.14,355Z" transform="translate(-747 -327)"/><path class="cls-15" d="M884.88,438c-10.76-.55-21.51-.23-32.26.12-.75-1.15.35-1,.81-1q14.63-.06,29.24,0A6.84,6.84,0,0,1,884.88,438Z" transform="translate(-747 -327)"/><path class="cls-16" d="M1142.79,659.18c0-.75.09-1.49.13-2.24a19.68,19.68,0,0,1,9.62,7.42A16.22,16.22,0,0,1,1142.79,659.18Z" transform="translate(-747 -327)"/><path class="cls-17" d="M1054.84,723c-1.62-1.62-1.64-1.85-.37-1.94,2.78-.2,5.58-.15,8.37-.21.85.36,2.28.71.76,1.79C1060.83,724.6,1057.85,725.26,1054.84,723Z" transform="translate(-747 -327)"/><path class="cls-18" d="M1130.76,647.25l6.22,4,3.49,3.71c-4.7-.92-8.25-4.28-12.58-6C1129,648.67,1130.68,649.28,1130.76,647.25Z" transform="translate(-747 -327)"/><path class="cls-19" d="M1046.08,749c-.22-3,2-2,3.43-2,1.69,0,3.47.42,3.54-2.14,3,1.77,2.33,3.37-.53,4.06C1050.49,749.39,1048.24,749,1046.08,749Z" transform="translate(-747 -327)"/><path class="cls-20" d="M1045.07,732.76c-1.79-.23-2.55-1.73-3.93-3.1a6,6,0,0,1,6.9.4C1047.25,731.18,1044.88,730.56,1045.07,732.76Z" transform="translate(-747 -327)"/><path class="cls-21" d="M1138.75,563c-3.37-2.2-1.64-5.43-1.66-8.3C1139.87,557.06,1138.61,560.19,1138.75,563Z" transform="translate(-747 -327)"/><path class="cls-22" d="M1136.79,539.14c-2.85-2.27-1.58-5.38-1.67-8.21C1138.46,533.1,1136.66,536.31,1136.79,539.14Z" transform="translate(-747 -327)"/><path class="cls-23" d="M1050.91,731.06c1.51-.48,4.1,1.1,4.14-2.18,1.76.68,2.52,2.19,1.07,3.32C1054.38,733.55,1052.11,733.86,1050.91,731.06Z" transform="translate(-747 -327)"/><path class="cls-24" d="M1114.73,459.11c-3.26-2.15-1.61-5.34-1.72-8.15C1115.16,453.34,1115,456.21,1114.73,459.11Z" transform="translate(-747 -327)"/><path class="cls-25" d="M1140.82,573.07c-3-1.36-1.71-4-1.81-6.14C1141.79,568.33,1140.81,570.85,1140.82,573.07Z" transform="translate(-747 -327)"/><path class="cls-26" d="M1134.72,525.17c-2.9-1.43-1.54-4-1.72-6.21C1135.9,520.39,1134.79,522.92,1134.72,525.17Z" transform="translate(-747 -327)"/><path class="cls-27" d="M847.91,578.69a3.89,3.89,0,0,0-.76.51l.06-11.3A29.28,29.28,0,0,1,847.91,578.69Z" transform="translate(-747 -327)"/><path class="cls-28" d="M873,657.14c.39.88,1.14,1,2,.89-2.08,3.31-1.6,4.93,2.71,5.41a38.07,38.07,0,0,1,23.49,11.4C911.28,683,920.86,692,933.25,697c2,.83,3.76,2.62,5.54,4.08,1.69,1.91,3.53,3.6,6.22,3.93,4.11,1.87,8.64.4,12.84,1.64,11.48,2.6,22.76,6.17,34.65,6.66,5.91.24,10.08,3.91,14.21,7.57,1.56,1.57,2.56,4,5.58,3.12a2.44,2.44,0,0,1,3,1.26c.68,1.44-.27,2.52-1.13,3.56-.53.66-1.21,1.44-2,1.45-6.31,0-11.42,4.15-18,4.43-9.94.41-19.79.08-29.69-.27-6-.21-11.55-2-17.27-3.42-7.4-1.82-14.3-5.06-21.67-6.85A149.62,149.62,0,0,1,882.48,699a132.11,132.11,0,0,1-22.75-24.2,109.24,109.24,0,0,1-11.2-20.46,14.66,14.66,0,0,1-1.24-5.28,3.26,3.26,0,0,1,1.71-2.36c3.48.45,4.11,3.58,5.25,6,5,10.42,11.64,19.48,21.13,26-2.81-5.36-4.22-11.3-5.17-17.38-.25-1.61-.58-3.31.83-4.67A1.44,1.44,0,0,1,873,657.14Z" transform="translate(-747 -327)"/><path class="cls-29" d="M984.11,649.91c-.18-2.06-.77-4.18.88-6a8.2,8.2,0,0,0,5.65-.28,7.77,7.77,0,0,1,1.36-.16,19.13,19.13,0,0,0,7.51-1c3.33-1.08,7.07-1,9.82-3.63,1.2-.84.82-2.34,1.4-3.44a2.93,2.93,0,0,1,1.66-1.27c4-.39,6.74,2.34,9.78,4.21a22.29,22.29,0,0,0,29.16-4.51c2.63-3.08,4.08-6.27,3-10.43-.53-2-1-4.24.21-6.3,1.63-1.38,2.85.06,4.21.61,2,1.55,4.23,3,5.73,5.12,2.5,3.94,1.14,8.34,1.48,12.53a8,8,0,0,1-2.7,6.32c-4.94,4.72-9.3,10.33-16.69,11.37a19.72,19.72,0,0,0,11.58-6.43c2.76-3,5.76-4.81,9.93-4.27a5,5,0,0,1,2.08.73c3.88,2,7.5,4.75,12.27,3.83a6.82,6.82,0,0,0,3.64-1c-2.4,1.62-5.35,1-8.22,1-2.44-.54-4.25-2.4-6.6-3.12-3.22-1.89-5.16-4.57-5.27-8.4a110.81,110.81,0,0,0-.31-11.38c.84-3.67,4.26-5.54,6-8.57,1.54-1.12,1.84-3.62,4.2-3.87a3.39,3.39,0,0,1,2.62,2.38c.29,3.08-1.68,5.28-3,7.75-1.77,3.33-3,6.72-.36,10.24,3.14,4.25,7.38,5.9,12.45,4.83,2.28-.48,2.29-2.65,1.75-4.51a8.25,8.25,0,0,1,1.36-8,5.26,5.26,0,0,1,.93-1.07,3.86,3.86,0,0,1,2.67-.83c3.28.1,6.45,0,7.19,4.55.32,2,0,3.1-1.56,4.08-.13.63-1.53,1.67-.76,1.58,3.72-.42,3.14,1.79,2.83,4-.36,2.52.06,4.34,3.25,3.93l-4.39.42c-.77-.64-1.92-.59-2.56-1.45.6.87,1.77.79,2.48,1.5a45.42,45.42,0,0,1-7.08,11.32c-5.14,6.44-11.61,11.59-17.1,17.76-6.15,6.93-15.08,9.56-24.73,9.41-5.06-.08-9.72-1.93-14.41-2.29-4.42-.34-7.09-2.65-10.47-4.28-6.07-1.84-12.52-2.55-18.09-6-1.27-.78-2.69-1.31-2.91-3-.16-1.92,1.49-2.67,2.4-3.76-1.31.92-2.19,2.83-4.37,2.44-2.54,3.21-4.9,1.57-7.25-.26-1.53-1.2-2.52-3.18-4.8-3.27a11.34,11.34,0,0,0-2.5-3c-2.17-1.83-1.9-3.59.52-5a1.7,1.7,0,0,1,.86-.11,39.1,39.1,0,0,1,13.34-3c-4.77-.29-9.8,2.59-15.25,1.79Z" transform="translate(-747 -327)"/><path class="cls-30" d="M1061.84,390.85l2.7-3.28c1.66-1,2.68-.23,3.43,1.26.68,4.09-1.12,7.86-1.48,11.82-2.44,8.12-3,16.62-4.88,24.68,6.44,1.47,8.45,8.08,13.32,11.25,3.69,1.81,4-1.8,5.24-3.5,1.56-2.13,2.76-4.34,5.83-2.31,1.26,3.07-1,5.28-1.76,7.79,1-.19,2-1.56,3.22-.26.32,3.58.22,7.17.39,10.75s-1.68,4.6-5.1,2.93c-3.78-1.86-6.36-5.24-9.66-7.72A139.3,139.3,0,0,0,1055,433c-3.7-2-4.83-4.93-3.55-8.71C1055.21,413.23,1058.57,402.05,1061.84,390.85Z" transform="translate(-747 -327)"/><path class="cls-31" d="M1096.71,564.82c-6.92,2.51-13.72,1-20.45-.77-3.63-.95-6.56-3-7.4-7-1.59-5-1.32-10.2-.76-15.33.23-2.07,1.5-2.86,3.38-1.27,1.29,2.53-.08,6.11,3.1,7.93a39.46,39.46,0,0,1,3.57,5.22c3.21,5,6.38,5.34,9.26.4,4.79-8.2,3.3-16.44-.66-24.59-1.8-3.7-5.22-6.53-5.77-10.88.7-2.89,2-5,5.49-4,4.43,10.88,10.8,21.18,8.5,33.87-.86,4.75-3.09,8.63-5.91,13a10.54,10.54,0,0,0,9.6-4.59c2.46-3.5,4.48-7.42,4.81-11.87a39.24,39.24,0,0,0-7.46-26.67c-1.16-1.6-2.74-1.63-4.41-1.74-1.92-.12-4.13.27-4.77-2.42,2.92-4,6.25-3.44,9.78-.93,5.94,5.61,8.73,13,10,20.64,1.58,9.62,1.34,19.25-5.65,27.28-.43,2.3-2.19,3.11-4.14,3.72Z" transform="translate(-747 -327)"/><path class="cls-32" d="M1061.84,390.85c1.13,4.52-.92,8.71-2.43,12.48-2.71,6.73-3.11,14-6.12,20.61-1.73,3.78-.48,6.42,3.13,8.53,7.95,4.63,16.27,8.75,22.63,15.68.33.37.74.9,1.14.92,2.29.12,4.17,3.4,6.12,1.86,1.54-1.21.73-4.08,0-6.14-.81-2.39.87-4.54.45-6.86-1.82-2.39-1.21-4.3,1.14-5.87,1.68,1,1,2.64,1,4.05-.14,6.27-1.27,12.55,2.27,18.49,1.55,2.61-2.4,2.43-3.1,4.1-2.7.09-3.32-2.66-5.13-3.78-.66-.62-1.31-1.25-2-1.88a74.52,74.52,0,0,0-19.08-14.88c-4-2.31-8.21-4.35-11.86-7.28a5.54,5.54,0,0,1-.21-4.74q5.21-16.84,10.3-33.72A2.12,2.12,0,0,1,1061.84,390.85Z" transform="translate(-747 -327)"/><path class="cls-33" d="M925,723c3.5-.5,6.58,1.37,9.43,2.58,12.55,5.34,25.53,7,39,7.81,8.22.49,16.2-1.15,24.29-.46a6.58,6.58,0,0,0,2-.16c3.92-.93,6.94-4.43,11.54-3.68,1.18.19,2.39-1.58,3.17-3-2.51-2.07-7.52,1-8.48-4,.59-1.47,1.52-2,3-1.06,1.28,2.73,2.66,2.76,4.54.41,1.27-1.58,3-4.25,4.83-3.31a6.09,6.09,0,0,1,2.66,6.92c-4.69,7.3-12.6,9-20.06,10.29-14.23,2.37-28.61,1.47-42.91-.25-9.52-2-18.67-5.24-27.9-8.21C928.68,725.1,925.05,726.43,925,723Z" transform="translate(-747 -327)"/><path class="cls-34" d="M1008.94,720.89l-3,1.06c-.48-.11-1.17-.05-1.41-.35-6.39-7.81-15.83-5.91-24.13-7.64-8-1.67-16.17-3.15-23.61-6.92,4.74-2.64,9.52-1.29,14.3-.17,8.81,1.17,17.39,3.5,26.23,4.67C1002.44,712.21,1006.14,716.43,1008.94,720.89Z" transform="translate(-747 -327)"/><path class="cls-35" d="M925,723c1,2.28,4,1.7,5.1,3.79-13.42-3.65-25.24-10.65-37-17.71-4-3-8-5.83-11.81-8.91-1.33-1.06-3.24-1.88-3.2-4.1-6.89-6.33-14-12.49-18.55-20.88.16-.77.48-1.33,1.41-1.13C877.71,696.32,899.39,712.2,925,723Z" transform="translate(-747 -327)"/><path class="cls-36" d="M1096.61,513.14c-3.36,0-6.91-1-9.75,1.79h0c-2.88-.2-3.92,1.9-5,4a1.62,1.62,0,0,1-1.16.68c-2.81-1.16-5.31,1.32-8.07.69,0-5.41,3.89-8.95,6.24-13.23C1087.17,503.5,1090.76,504.74,1096.61,513.14Z" transform="translate(-747 -327)"/><path class="cls-34" d="M938.79,701.11c-15-5.25-27.78-13.68-37.65-26.27,5.21,3.19,10.4,6.43,15.65,9.57,2.41,1.45,4.79,3.17,7.43,4C931,690.51,935.46,695.12,938.79,701.11Z" transform="translate(-747 -327)"/><path class="cls-37" d="M958,735c11.3,0,22.6.29,33.88-.15,10.56-.41,20.69-2.78,29.09-9.89-.42,3.05-2.16,4.77-4.9,6.31-13.42,7.53-28,7.28-42.54,6.23C968.36,737.07,962.86,737.66,958,735Z" transform="translate(-747 -327)"/><path class="cls-38" d="M1083,400.93c1.08.59,1,1.63.87,2.58-.48,4.06-.18,8,2,11.54-2,1.75-1.19,6.19-5.46,5.86-1.22-1.75.46-3.47,0-4.7,0,.93-.52,2.3-.56,3.74.22,3.38-2.15,6.16-2.18,9.48a2.66,2.66,0,0,1-.94,1c-3.63.31-3.38-2.45-3.49-4.66-.13-2.51,1-4.85,1.42-7.28.3-1.68,1.39-3.5-.21-5.14a4.33,4.33,0,0,1-.92-1,2.88,2.88,0,0,1-.2-1.39,9.08,9.08,0,0,1,4.66-4.11C1081.68,406.49,1080.57,402.22,1083,400.93Z" transform="translate(-747 -327)"/><path class="cls-39" d="M1067.29,388.4l-2.75-.83c-.64,0-1.47.35-1.87.06-.7-.5.87-11,1.77-11.11,1.94-.33,4.22-2.13,5.92.92.81,1.47,2.8.21,4.18.59s3.77-1,3.26,2.1c-3.07,1.14-6.24,2.2-6,6.43a4.33,4.33,0,0,1-2.56,2.11A2.22,2.22,0,0,1,1067.29,388.4Z" transform="translate(-747 -327)"/><path class="cls-40" d="M1070.85,387.15c-1.27-7.58.16-9,7-7,.64,4.9-2.51,9.88.3,14.73.2,2.14,2.41,5.31-.57,6.09s-2.45-3.11-3.52-5c-1.41-2.42,1.38-6.39-2.91-7.61a1,1,0,0,1-.37-.78C1070.74,387.3,1070.79,387.15,1070.85,387.15Z" transform="translate(-747 -327)"/><path class="cls-41" d="M971.12,706.87l-14.3.17c-2,.24-3.68-.38-5.86,1.61-2.57,2.34-4.19-1.83-6-3.61a43.73,43.73,0,0,1,10-4.61c-2.14,6.52,1.06,5.69,4.9,4.45A12.4,12.4,0,0,1,971.12,706.87Z" transform="translate(-747 -327)"/><path class="cls-38" d="M1071.15,388c2-2.1,3.46-2.23,3.66,1.17a33.21,33.21,0,0,0,2.13,11.18c1.49-1.91.5-3.83,1.16-5.44l4,5.07c-1,2.74-.49,6.15-3.69,7.83l-.55.37c-3.5,1.12-3.27-2-4.27-3.75-1-3.77-1.78-7.57-2.74-11.35C1070.42,391.36,1069.78,389.57,1071.15,388Z" transform="translate(-747 -327)"/><path class="cls-42" d="M1086.1,431.22c-2-.43-3.31,0-4.18,2.15a13.07,13.07,0,0,1-4.61,5.68c-3.26,2.34-2.54-.34-2.49-2.1l.36-.51a4.84,4.84,0,0,1,1-.76c2.73-1.82,3.5-4.59,3.72-7.61-.91-1.88-1.67-3.78-.5-5.83a1.43,1.43,0,0,1,1.09-.66c2.81,1.15,4.54-2.95,7.41-1.53,1.18,3.79-3.07,7.09-1,11A.67.67,0,0,1,1086.1,431.22Z" transform="translate(-747 -327)"/><path class="cls-43" d="M989,649.72a46,46,0,0,1,16.82-2.8c3.39.12,3.38.16,2.72,4.43-5.8-5.27-11.74.65-17.63-.47Z" transform="translate(-747 -327)"/><path class="cls-44" d="M1099.94,631c.74-3.41,2.48-7.4-4-6.38-.88.14-2.09-.15-2-1.62.92-2.65.59-5.61,2-8.13,3.47,2.17,3.84,6.26,5.78,9.38C1101.83,626.65,1105.28,630,1099.94,631Z" transform="translate(-747 -327)"/><path class="cls-45" d="M1007,663c1.35,4,5.07,4.77,8.41,5.89,3.87,1.31,8,1.84,11.59,4-8.3-.67-16.13-2.71-22.89-7.87C1004.84,664,1005,662.1,1007,663Z" transform="translate(-747 -327)"/><path class="cls-46" d="M1086.1,431.22a2.28,2.28,0,0,0,.89-.21l.94,1.05-1.14,5.87c-1.61,2-2.87,4.48-7,4.93Z" transform="translate(-747 -327)"/><path class="cls-47" d="M1088,420.05c-2.32.8-3.57,5.56-7.1,1.93a.53.53,0,0,1,.17-.87c1.78-1.91.35-6.43,4.93-6.06C1086.62,416.72,1087.28,418.39,1088,420.05Z" transform="translate(-747 -327)"/><path class="cls-48" d="M955.89,659c1.53-2.8,4.84-2.57,7.09-4.15,3.81-1.07,7.63-2.1,11.42-3.2,1.9-.54,3.79-1.44,5.57.26-6.27.85-12.1,3.14-17.93,5.46C960.07,658.13,958.14,659.21,955.89,659Z" transform="translate(-747 -327)"/><path class="cls-49" d="M1109.18,627.74a40.31,40.31,0,0,1,20.32-2.13Z" transform="translate(-747 -327)"/><path class="cls-50" d="M1078.41,407.76c.85-2.79.76-6,3.69-7.83l.93,1C1082.55,403.92,1083.31,407.76,1078.41,407.76Z" transform="translate(-747 -327)"/><path class="cls-45" d="M990,651c-3,3.57,2.61,5,2,8a33.67,33.67,0,0,1-4-2.84c-1.11-1-3.26-2-2.41-3.79C986.25,650.9,988.27,650.67,990,651Z" transform="translate(-747 -327)"/><path class="cls-51" d="M1007,663l-2.89,2c0-.82-.06-1.64-.08-2.46,2.78-2.36,5.41-5,9.43-6.65C1012.12,659.58,1008.56,660.35,1007,663Z" transform="translate(-747 -327)"/><path class="cls-3" d="M1082.93,454.92c2.21.59,3.47,2.46,5.13,3.78C1083.45,461.39,1084.3,456.64,1082.93,454.92Z" transform="translate(-747 -327)"/><path class="cls-3" d="M1096.81,564.78l4.14-3.72C1102.62,565.7,1099.36,564.84,1096.81,564.78Z" transform="translate(-747 -327)"/><path class="cls-52" d="M808.2,727.19a.86.86,0,0,1-.14.74c-2.14.92-3.46.65-2.36-2a73.39,73.39,0,0,1,3.74-7.54c.66-1.2,1.44-2.24.55-3.62.3-.64.61-1.28.91-1.91a21.4,21.4,0,0,0,4.23-7.85l0-.07c.52-1.25,1.78-2,2.32-3.18s1.5-1.77,2.75-1,1.42,1.77.39,2.87-1,2.4-1.37,3.66c1.76,1.72,2.82-.73,4.85-.58l-6,7.24c-1.1,1.57.63,3.2-.12,4.78l-4.92,7.17C811.58,726.8,809.63,726,808.2,727.19Z" transform="translate(-747 -327)"/><path class="cls-53" d="M837.93,663.63c2.45-3.31,5.38-6.33,6.4-10.51,5,1,2.45,4.09,1.82,6.65-1,2.44-3.29,5.18-2.81,7.28,1.29,5.56-3.75,7.24-5.42,10.87-.69,2.13-1.8,3.41-4.19,2a2.56,2.56,0,0,1,.19-3.05l1.05-4.67c-.75-1.5-3.52-.16-3.63-2.61s2.13-2.54,3.61-3.42A7.88,7.88,0,0,0,837.93,663.63Z" transform="translate(-747 -327)"/><path class="cls-54" d="M860.12,674.86c4.73,8.11,12,14.11,18,21.16-9.86-6.26-16.71-15.31-22.8-25-2.63-4.2-4.86-8.65-7.27-13-1.17-2-2-4-.47-6.38C851.29,659.71,855.79,667.24,860.12,674.86Z" transform="translate(-747 -327)"/><path class="cls-55" d="M860.12,674.86c-5.49-6.6-8.78-14.47-12.43-22.6-1.12,2.43.88,4,.31,5.78l-1.85,1.73c-.21-2.33.29-4.84-1.82-6.64,2.79-3-.78-7.08,1.79-10.09,3.9.72,1.4,3.89,2.22,5.78,2.66,9.17,7.3,17.34,12.59,25.19Z" transform="translate(-747 -327)"/><path class="cls-56" d="M833.92,676.91l.18,3c.93.62,1.14,2.44,3.12,1.16,1.68-1.08,3.22-3.05,5.71-2.34-.6,1.68.28,3.61-.85,5.21.09,3.31-3.42,3.68-4.76,5.82-1.21.17-1.82-1.86-3.24-.88a16.42,16.42,0,0,0-5.14-7.08c-.54-2,1.48-2.52,2.1-3.85Z" transform="translate(-747 -327)"/><path class="cls-57" d="M819.27,707.31c-.57-1.95.33-3.73,1.27-6-2.89.42-3.19,3.4-5.36,3.61.64-3.65,3.48-5.67,5.92-8,4.88-3.92,5.53-4,8-1l0,0C824.89,699,822.43,703.44,819.27,707.31Z" transform="translate(-747 -327)"/><path class="cls-58" d="M837.32,689.78c-.5-3.65,2.23-4.65,4.76-5.82,3.14,1,3.44,2.47.76,4.57A5.77,5.77,0,0,1,837.32,689.78Z" transform="translate(-747 -327)"/><path class="cls-59" d="M842.93,678.75c-3.3,1.32-4.83,4.77-8.14,6.63a7.31,7.31,0,0,1-.69-5.45c1.64,0,2.44-1.55,3.82-2C839.25,680.31,841.69,675.87,842.93,678.75Z" transform="translate(-747 -327)"/><path class="cls-7" d="M808.2,727.19c.76-3.8,2.44-4,4.9-1.27,0,2.53-2.72,3.69-3,6.07C807.86,731,810,728.34,808.2,727.19Z" transform="translate(-747 -327)"/><path class="cls-60" d="M818,718.75c-1-1.62-3.08-3.27.12-4.78C822.93,715.68,819.49,717.19,818,718.75Z" transform="translate(-747 -327)"/><path class="cls-61" d="M837.93,663.63a4.13,4.13,0,0,1-2.43,3c-3.91,1.6-3.71,3.45-.53,5.64-4.06-1-7.88,1-11.86,1a2,2,0,0,1-.15-2.45c3.39-1.62,6.22-4.36,10.1-5C835.12,666,836.2,664.09,837.93,663.63Z" transform="translate(-747 -327)"/><path class="cls-3" d="M829.14,696c-3.07-2.8-5.37.6-8,1,1-3,4.13-4.16,5.9-6.55s2.44.41,3.36,1.14C833.2,693.81,830.55,694.75,829.14,696Z" transform="translate(-747 -327)"/><path class="cls-62" d="M831,678c1.74,2.62-1.46,2.54-2.1,3.85-2.79.67-5.09,3.53-9,2C823.33,680.49,826.59,678.13,831,678Z" transform="translate(-747 -327)"/><path class="cls-57" d="M815.13,705c.68,3.74-1.62,5.88-4.23,7.85A19.61,19.61,0,0,1,815.13,705Z" transform="translate(-747 -327)"/><path class="cls-63" d="M823,670.74l.15,2.45c-1.27,1.25-2.67.91-4.36.29A5.2,5.2,0,0,1,823,670.74Z" transform="translate(-747 -327)"/><path class="cls-64" d="M1077.92,614.05l-2-2.09c-1.13-.77-1.57-2-2.22-3.15-.16-.41-.33-.82-.51-1.22a16.18,16.18,0,0,0-17.85-.16c-2.09,1.45-2.76,3.14-1.68,5.48.62,1.34,1.42,2.63,1.19,4.21.62,2.92,1.18,5.85,1.88,8.75a7.28,7.28,0,0,1-1.15,5.69,24.7,24.7,0,0,1-35.92,7.49,23.77,23.77,0,0,0-7.82-4c-5.63-.19-10.24-3.31-15.25-5.33A2.36,2.36,0,0,1,996,627a54.64,54.64,0,0,1,8.71-11.41c9.44-9,14.81-21.13,23.77-30.49a50,50,0,0,1,11.88-9.73c3.49-1.9,6.68-2.11,9.88,1,6.24,6.15,13.63,11,19.69,17.47,3.75,4,9.88,5.27,14.06,9.15,2.06,1.91,4.11,3.84,6.16,5.76,5.7,5.52,6,8.5,1.68,15.15v0c-1.89,2.7-3.53,5.63-6.48,7.39a4.52,4.52,0,0,1-4.74.37c-1.79-1-1.76-2.86-1.23-4.43C1080.91,622.54,1078.62,618.4,1077.92,614.05Z" transform="translate(-747 -327)"/><path class="cls-65" d="M875.18,492.24a2.1,2.1,0,0,1,0,.56c1.28,2,.48,3.79-.61,5.56a97,97,0,0,0-5.23,9c-1.4,2.94-3.48,4.19-6.31,1.95s-6.89-2.51-9.28-5.52c0-2.78,2.41-3.11,4.15-4.17s4.23-.76,5.16-3.07c-1-1.82-3.23-2.56-3.79-4.67a4.56,4.56,0,0,1-.26-1.37c-.71-4.44,1.76-6.71,5.68-8-6-5.61-13.85-5.9-22.83-1-2.46.81-4.92,1.64-7.43.16-1.59-2.32.48-3,1.82-4,1.65-1.18,4-1.49,4.68-3.84-.25-4.07,2.53-5.87,5.75-6.2a123.17,123.17,0,0,1,23-.61c5.15.42,5.56,2.09,7.13,7.24,1,3.46-.23,7.15,1.88,10.33.91,1.37.22,2.89-.93,4A9,9,0,0,0,875.18,492.24Z" transform="translate(-747 -327)"/><path class="cls-66" d="M985.31,576.9c-1.79,2.72-3.85,5.13-7.08,6.22-2.31,1-4.79,1.69-6.07,4.15-.34,1.05-1.2.83-2,.81-3.53,2.09-7,3.79-11.1,1-2.12-1.44-3.23-3-1.59-5.35,6.15-8.6,4-18,3-27.41-.19-1.76-1.6-2.87-2.09-4.48-1.09-3.59-.27-4.85,3.71-5.47,3.47.53,5.91,2.79,8.38,5,5.6,5,10,10.94,14.19,17.14C986.49,571.25,987,574,985.31,576.9Z" transform="translate(-747 -327)"/><path class="cls-67" d="M985.31,576.9c.33-4-1.68-7-4-10.08-5.49-7.28-10.56-14.94-19.32-18.85-2.3-2.41-5.3.16-7.76-1.09-2.08-.67-3.46-2.36-5.18-3.57-4.34-3.07-7.55-2.62-10.89,1.38-.82,1.09-1.27,2.61-3,2.6-3.53-3.53-6.35-.08-9.42,1A3,3,0,0,1,923,548c2.67-11.92,12.78-17.16,26.13-14.54,19.9,3.9,30.39,18.13,39.1,34.43C990.13,571.45,988.24,574.54,985.31,576.9Z" transform="translate(-747 -327)"/><path class="cls-68" d="M1024.08,402.3q6.35-8.67,12.68-17.33c3.7-3.71,5.87-8.38,8.15-13-.09-1.44.85-2.27,1.83-3.08,5.75.2,2.91,3.91,2.67,6.55-3.57,12-9.4,22.79-16,33.36-3,4.92-8.36,8.16-10.1,14-3.88,1.95-7.19.47-10.39-1.71-1.62-.79-1.21-1.53-.43-3C1015.7,412.34,1021.05,408.17,1024.08,402.3Z" transform="translate(-747 -327)"/><path class="cls-69" d="M921.88,443.85c12.83-9.51,27.35-15.35,42.64-19.47a109.48,109.48,0,0,1,41-2.81c2.47.28,5,.37,7.44.54,3.46-.07,6.7,1.08,10,1.82a6.38,6.38,0,0,1,1,1.1c-.79,2.7-2.86,1.14-4.21,1-16.09-1.13-32-1.15-48,2.13-17.22,3.53-33,10.42-48.75,17.83-.72.67-1.53.6-1.94-.17S921.36,444.43,921.88,443.85Z" transform="translate(-747 -327)"/><path class="cls-70" d="M839.14,450.23l-42.2,11.07c-1.16-1.74,1.66-2.35.86-4.07l-10.73-.6c15-4.67,28.74-8.7,43-10.63,7.21-.53,14.27-2.16,21.46-2.9,5-.52,9.89.31,14.81-.13.81-.07,1.75-.31,2,.81.29,1.35-.64,1.65-1.72,1.76-4.26.41-8.45,1.25-12.67,1.88C848.94,448.16,844.05,449.21,839.14,450.23Z" transform="translate(-747 -327)"/><path class="cls-71" d="M954.94,545.89c2.56,0,5.32-.63,7.09,2.08-5.16-.58-2.33,2.75-1.78,4.2,3.64,9.58,4.36,19.16.73,28.89-.17.46-.35.93-.56,1.37-.69,1.45-3.58,3.13-1.73,4.17,2.25,1.26,4.77,5.1,8.22,1.7,1.06-1,2.18-.28,3.28-.22a6.74,6.74,0,0,1-4.29,3.07c-15.91,5-28.78.72-38.27-13-1.22-1.77-2.13-3.76-3.39-5.5-5.72-8-6.57-16.1-1.23-24.58l2.06-.86c1.8,1.84.72,3.76,0,5.54-2.46,6.09-1.26,11.58,2.05,17,2.33,3.86,5.47,7.09,7.77,11a9.09,9.09,0,0,0,3,2.56c2.5,1.69,4.32,1.62,5.27-1.59a3.18,3.18,0,0,1,2.74.77c5.73,3.83,10.91,1.91,12.61-4.88a39.05,39.05,0,0,0-2.39-25.68,17.85,17.85,0,0,1-1.71-4.64A2.12,2.12,0,0,1,954.94,545.89Z" transform="translate(-747 -327)"/><path class="cls-72" d="M1081,518.93a3.62,3.62,0,0,0,.87,0c7.36,8.75,11.58,18.48,9.16,30.18a21.3,21.3,0,0,1-1.78,5.14c-1.43,2.84-3.12,5.94-6.78,5.76-3.37-.17-4.72-3.19-5.93-6a3.18,3.18,0,0,1,2.61-1.15c6.28-.69,7.73-2.18,7.87-8.27,0-2.31,0-4.62,0-6.93,0-2-.6-3.74-2.49-4.46s-3.81.1-5.4,1.54c-2.15,1.94-2.59,5-4.55,7-1.1.83-2.24,1.31-3.55.47-.76-1.77-1.33-2.58-2,.13-1.1,4.88.17,9.77-.19,14.65-.83-.26-1.61-.72-1.69-1.61a76.41,76.41,0,0,1,2.62-28.89A.77.77,0,0,1,1071,526a2.16,2.16,0,0,1,.84,1.17,24.27,24.27,0,0,1,.15,3.91C1072.18,522,1073.23,520.61,1081,518.93Z" transform="translate(-747 -327)"/><path class="cls-73" d="M839.14,450.23c2-1.92,4.63-1.73,7-2.06,7-1,13.79-3.31,20.92-3.64-9.83-1.44-19.56-.75-29.28,1.07-2.5.47-5.07,1.85-7.71.4,7-2.48,14.29-2.74,21.49-3.47,18.11-1.84,36.18-1.54,54.05,2.43,1.28.29,2.67.29,3.49,2.2-6.78-.39-13.33-.82-19.88-1.15C872.32,445.17,855.73,447.73,839.14,450.23Z" transform="translate(-747 -327)"/><path class="cls-74" d="M854.05,503.09c1.81.76,3.64,1.49,5.44,2.3,2.43,1.09,4.42,4.19,7.18,3.21s3.18-4.48,4.62-6.81c1.68-2.71,3.91-5.44,3.9-9,1.54,1.09,3,2,1.32,4.31-7.16,9.82-10,21.49-13.84,32.74-2.44,4-6.67,1.67-8.3.62-4.65-3-9.75-6-12.16-11.54a2,2,0,0,1,1.34-.35c3.89,1.47,7,4.25,10.54,6.31,3.38,2,5.51,1.11,6.89-2.48.62-1.6.74-2.82-1.31-3.42a6.8,6.8,0,0,1-5-6.09,4.21,4.21,0,0,1,.65-2.68c1-1.12,2.09-.9,3.29-.36.6.28,1.06.32.4.22.09-.2,0-.42-.34-.68-1.88-1.45-4.22-1.87-6.17-3-1.4-.83-3.48-1.52-2.07-3.93A2.7,2.7,0,0,1,854.05,503.09Z" transform="translate(-747 -327)"/><path class="cls-75" d="M1024,425l-1,0a2,2,0,0,1,0-2.78,13.54,13.54,0,0,1,3.22-6.05c9.4-10.14,14.89-22.55,20.33-35,.72-1.67-.31-3.75,1.42-5.06,2.64-4.12.83-9.48,3.77-13.5,1-1.32.88-4.14,3.36-3.45s2.54,3.07,1.88,5.31a4,4,0,0,0-.08,1.46c.47,3.95-3.93,4.67-5.1,7.95-3.13,8.78-6.56,17.62-11.28,25.6-3.31,5.58-5.63,12.12-11.44,16.17C1026,417.78,1025.07,421.56,1024,425Z" transform="translate(-747 -327)"/><path class="cls-76" d="M875.18,492.24c3.09-5.8,1.43-11.67.78-17.7-.38-3.54-1.61-5.08-4.65-5.9-6.35-1.71-12.76,0-19.15-.23-1.87-.07-4.07-.67-6.21.59-2.61,1.53-4.24,3-2.94,6.13-3.4,1.15-5.83-1.05-8-2.84-2.46-2-.5-3.38,1.39-4.43,2.79-1.54,5.88.21,8.72-.82,8-.64,16-2.13,24.1-1.12,3,.37,6,.95,8.17,3.08,1.09,1,4.82,2.49.37,4.28-.24.1-.55.67-.49.74,2.25,2.7.74,7.15,2,8.73,3.69,4.77.86,6.34-2.36,8.43Z" transform="translate(-747 -327)"/><path class="cls-77" d="M839.34,612.83c-2.37-1.62-3.06-3.51-1.57-6.25a80.78,80.78,0,0,0,3.26-7.64l.58.4c1.4,2,1,4.14.57,6.22-.51,2.5.57,3.78,2.8,4.36s4.49,1.12,6.68,1.86,3.44-.72,4.26-2.39c1.06-2.16-1.12-1.89-2.1-2.4-1.42-.74-2.51-1.61-2.3-3.41a1.62,1.62,0,0,1,1-1.09c4.58.89,9.78-.63,13.56,3.41a7.17,7.17,0,0,1,1.52,1.23c.38.56-.23.84-.65.77-4.52-.74-6.51,3.28-9.43,5.3-1.91,1.32.31,2.8,1.47,3.9.72,1.26.75,2.15-1.09,2C851.63,617.29,846.38,612.4,839.34,612.83Z" transform="translate(-747 -327)"/><path class="cls-78" d="M1056.9,365.91c-1.7-1.58.26-4.36-2.23-6-3.08,5.05-2.94,11.46-6.7,16.16-.8-2.32,3.26-5.49-1.23-7.18,2-5.47,6.06-10,7.33-15.76l2.55-4.06c3.46.56-2.82,8.77,5.19,5.09C1060.54,358.73,1059.28,362.55,1056.9,365.91Z" transform="translate(-747 -327)"/><path class="cls-79" d="M850,583c0-.33,0-.67-.07-1l.06-.1c2.1-9.28,1.66-18.68,1.27-28.06-.09-2-.36-4,.71-5.79a1.06,1.06,0,0,0,.14-.85c3.44,3.56,2,8.09,2.12,12.17A220.77,220.77,0,0,0,856.13,584c.63.83.4,1.78.37,2.7-.7.82-1.7.63-1.94-.1C853.8,584.33,851.66,584,850,583Z" transform="translate(-747 -327)"/><path class="cls-80" d="M809.11,480.23c-3.78-2-5.44-4.2-1-7.29,8-1.87,15.65-5.31,24-6a4.05,4.05,0,0,1,4.31.41c-1.49,2.23-3.79,3.39-5.71,5-8.38-1.14-15.29,1.59-20.85,7.9Z" transform="translate(-747 -327)"/><path class="cls-81" d="M830.32,471.9c.1-3,3.69-2.38,4.8-4.6l-3.07-.37c4.35-1.3,8.71-2.36,13,.11-3.19,1.6-7.12,1-10.3,3.5l8.23,4.59c-.1,2.94-3.06,1.86-4.39,3.1s-3.52,1-4.41,2.88a1.89,1.89,0,0,1-1,1.9c-1.46.59-2.89,1.07-3.73-.91-.17-3.65,4.15-3.79,5.2-6.48C833.72,473.74,831.05,474,830.32,471.9Z" transform="translate(-747 -327)"/><path class="cls-82" d="M855.88,587c.08-1,.17-2,.25-3,.82,1.77,2.11,3.49,2.31,5.33s.86,4.34-2.14,5c-2,.43-3.83.79-3.43,3.69s2.28,4.33,4.7,3.81c3.21-.71,5.25,1.42,7.84,2.15,1.1.31,1,1.11.68,1.94-4.4-2.34-9.52-1.12-14.05-2.82-2.64-.58-3.15-2.37-2.77-4.75.4-2.55,1.28-5,1.66-7.54a3.68,3.68,0,0,1,.87-1.13A5.67,5.67,0,0,0,855.88,587Z" transform="translate(-747 -327)"/><path class="cls-83" d="M1081,518.93c-.14,1.26-.9,2.51-1.91,2.7-6.73,1.22-5.71,6.56-6.13,11.14-.15,1.72.25,3.55-1.32,6-1.31-4.82-.51-8.83-.7-12.76,1.77-1.57.26-4.11,1.7-5.78C1075.32,519,1077.49,514.77,1081,518.93Z" transform="translate(-747 -327)"/><path class="cls-84" d="M990.94,644.92c-2.23,1.17-4.43,2.2-6-1,1.51-5.61,6.64-8.89,9-13.93a2.15,2.15,0,0,1,2-.7c2,1.22,4.93.68,6.33,3.15-.06,3-1.92,3.13-4.33,3.1C994,635.52,990.18,640.79,990.94,644.92Z" transform="translate(-747 -327)"/><path class="cls-85" d="M1091.79,623.9c.09-1.15-.14-2.44.31-3.42,2.06-4.43,1-8.22-2-11.73,2.84,1.19,4.54,3.48,5.91,6.09,1.31,3.21,2.19,6.31-2,8.13Z" transform="translate(-747 -327)"/><path class="cls-86" d="M992,627c-8.52-.65-16.72-3.77-25.38-3.39,8.78-1.2,17.31-.52,25.43,3.33Z" transform="translate(-747 -327)"/><path class="cls-87" d="M921.88,443.85c-.14,1-.37,2,1.13,2.18a42.85,42.85,0,0,1-13.36,6.44A56.8,56.8,0,0,1,921.88,443.85Z" transform="translate(-747 -327)"/><path class="cls-88" d="M1023,422.2l0,2.78c-3.29-1.11-6.93-1-10-2.87,0-.34,0-.67,0-1C1016.42,420.49,1019.49,423.32,1023,422.2Z" transform="translate(-747 -327)"/><path class="cls-71" d="M972.16,587.27c.37-3.8,3.14-4.09,6.07-4.15C976.69,585.2,974.45,586.28,972.16,587.27Z" transform="translate(-747 -327)"/><path class="cls-89" d="M857.91,619.11c.37-.67.73-1.34,1.09-2,2.31.49,3,3.12,5,3.9h0c-.89,2.48-1.93,1.58-3,.14Z" transform="translate(-747 -327)"/><path class="cls-86" d="M995.81,630.08,994,630c.13-1.56-1.43-2-2.06-3l0-.06,3.94,0c.37.63.73,1.26,1.1,1.88C997.27,629.88,997,630.41,995.81,630.08Z" transform="translate(-747 -327)"/><path class="cls-90" d="M843.06,519.07a1.76,1.76,0,0,0-.85-.14c-.75-.87-1.37-2.31-2.28-2.53-8.88-2.18-12.36-11.27-19.76-15.27-.41-.22-1.11-.69-1.07-.82,2.07-5.43-3.71-6.68-5.35-10.11,2.68-3.48,4.74-.33,7,.64a7.11,7.11,0,0,1,1.84,3.76c1,3.22,3.27,5.69,5.64,7.86,3.86,3.55,7.44.1,11.07-1,2.44-.1,4.44.91,4.81,3.32.44,2.94-2.52,2.37-4.46,3.54a39.82,39.82,0,0,1,12.57,7.28c1.13.92,2.53,2,1.82,3.69-.8,2-2.63,2.5-4.53,2.24A19,19,0,0,1,843.06,519.07Z" transform="translate(-747 -327)"/><path class="cls-91" d="M820.42,491.2c-2.48,1.4-4.11-2.9-6.67-1-1.59-.13-2.8-1.75-4.57-1.21-.94-1.53-.26-2.94.32-4.37,1.24-1.37.86-3.62,2.4-4.79,2.14-1.63,5.29-1.59,6.35.17,2.74,4.55,7.53,4.34,11.44,6.17,1.49.69,3.45,1.36,3.39,3.22-.06,2.15-2.18,2.8-4,3.12C826.13,493.07,822.91,494.34,820.42,491.2Z" transform="translate(-747 -327)"/><path class="cls-13" d="M852,548c0,9.72,0,19.43.12,29.15a5.26,5.26,0,0,1-2.1,4.7c.33-6.74.72-13.48,1-20.22a26.9,26.9,0,0,0-.71-8.88A3.77,3.77,0,0,1,852,548Z" transform="translate(-747 -327)"/><path class="cls-3" d="M810.91,485.92,809.18,489c-2.84-.12-2.66-1.84-2-3.78.59-1.67,1.26-3.32,1.9-5l0-.39C813,480.89,811.69,483.48,810.91,485.92Z" transform="translate(-747 -327)"/><path class="cls-3" d="M873,657.14l-1.91-.11c-5.26,1-8.2-2.57-10.89-6-2.2-2.78-1.17-5.89.84-8.6a2.66,2.66,0,0,1,1.37-.68c1.06,1.77,1.78,3.05.85,5.66-1.43,4,3.23,4.94,5.66,6.84C870.19,655.31,872.79,654.47,873,657.14Z" transform="translate(-747 -327)"/><path class="cls-3" d="M868,648.29c-.64-2.79-2.68-5.76.25-7.84,1.51-1.09,2.71.93,3.37,2.13C873.62,646.27,868.84,646.05,868,648.29Z" transform="translate(-747 -327)"/><path class="cls-3" d="M852.09,631.6a4.11,4.11,0,0,0,.08-.6c1.25-.76,3.1-1.21,3.32.39.63,4.71,8.3,4.55,6.89,10.4l-.31.16c-2.93.94-4-1.52-5.47-3.09s-2.2-3.26-3.64-4.62A3.41,3.41,0,0,1,852.09,631.6Z" transform="translate(-747 -327)"/><path class="cls-3" d="M861,621.13c1-.32,2.09,1.79,3-.14a4.82,4.82,0,0,1,3.68,4.59,1.2,1.2,0,0,1-1.79,1C863.57,625.49,860.3,625,861,621.13Z" transform="translate(-747 -327)"/><path class="cls-92" d="M853,623.24c-2.87,1.59-4.66,1.44-6.11-.34-.58-.7.13-1.21.65-1.48C849.84,620.21,850.92,622.24,853,623.24Z" transform="translate(-747 -327)"/><path class="cls-78" d="M1044.91,372c-1.5,5.09-3.3,10-8.15,13A85.18,85.18,0,0,1,1044.91,372Z" transform="translate(-747 -327)"/><path class="cls-93" d="M852.09,631.6l1.76,1.57c2.19,7.64.93,11.36-4.7,13.89l-.81,1.76c-2-1.45-.25-4.32-2.22-5.78C848.38,639.37,847.88,634.26,852.09,631.6Z" transform="translate(-747 -327)"/><path class="cls-94" d="M855.88,587c.25,1.74.49,3.48.75,5.32-2.2.35-2.66-2.37-4.53-2.29-.58-.31-.3-2.37-1.8-.81s-1.85,3.87-3.12,5.58c-1.47,2-2.19,5-5.71,4.41a2.13,2.13,0,0,0-.44-.26,50.87,50.87,0,0,1,9-16C855.74,578.83,854.36,585,855.88,587Z" transform="translate(-747 -327)"/><path class="cls-95" d="M849.15,647.06c3.79-3.87,4-9,4.7-13.88,3.14,2.54,4.83,6.46,8.22,8.77-1.29,9.33-1.29,9.33,7.7,14.33.44.24.86.5,1.29.75,1.68,8.06,3,16.21,7.44,24.27-4.06-.5-6.2-2.6-8.43-4.37-9.38-7.45-14.71-17.77-19.9-28.19C849.88,648.15,849.49,647.62,849.15,647.06Z" transform="translate(-747 -327)"/><path class="cls-85" d="M1077.92,614.05c4.46,3.63,4.9,8.26,3.35,13.4-.31,1-1.66,2.13-.38,3.09s2.56.12,3.61-.72c2.46-2,4.86-4,7.29-6a14.62,14.62,0,0,0-.16,9.88c1,3.64-2.56,6-6,4.66-.42-.17-1-.58-1.26-.43-7.42,5.06-7.25-5.94-12.31-5.8-.09-4.06-.88-8.18,2-11.82A60.09,60.09,0,0,0,1077.92,614.05Z" transform="translate(-747 -327)"/><path class="cls-96" d="M1063,622.89c-1.87-1.07-3.89-1.95-5.1-3.89-1.14-2.86-6.55-4-3.44-8.55,2.62-3.79,10.8-6.55,15.23-5,1.83.65,3.83,1.07,5.38,2.39l0,0c.92,3.17-.89,5.65-2.07,8.28-.83,3.27-4,4.65-5.81,7.08C1065.58,626.7,1064.36,624,1063,622.89Z" transform="translate(-747 -327)"/><path class="cls-97" d="M990.94,644.92c-3.19-.27-5-.8-2-4.29,1.65-1.92,3.76-3.52,4.83-6a2.73,2.73,0,0,1,4.52-1c2.14,2,2.73,0,3.81-1h.69c2,.64,3.65,2.06,5.67,2.82,1.55.57,3.78,1.67,2.33,4.29-2.51,4.4-7.25,2.86-11,4.1-2.79,1.89-6.13-.92-8.92,1Z" transform="translate(-747 -327)"/><path class="cls-98" d="M1075.11,607.84a11.71,11.71,0,0,1-4.88-.36c-5.69-2-10.14.61-14.43,3.95-1.47,1.15-1.09,2.19-.28,3.38.9,1.35,2.44,2.32,2.42,4.19-1-.62-2-1.25-3.07-1.88-2.06-1.13-2.58-3.43-3.42-5.27-1-2.22-.79-4.39,2.13-6,5.7-3.11,11.37-4.6,17.58-2C1073,604.65,1075,605.32,1075.11,607.84Z" transform="translate(-747 -327)"/><path class="cls-99" d="M1061.9,640.9l3-4.95a1.35,1.35,0,0,1,2,0q2.49,3.53,5,7.07c-.05,1.78-1.15,1.42-2.23,1.09l-1.72-.22c-1.47-.86-3.09-.28-4.63-.47S1061.05,642.5,1061.9,640.9Z" transform="translate(-747 -327)"/><path class="cls-100" d="M1061.9,640.9c.8,3.47,4.59.91,6.06,3-3.86-.35-6.82.93-9.55,3.91a16.86,16.86,0,0,1-12.59,5.8C1051.88,650.22,1058,647,1061.9,640.9Z" transform="translate(-747 -327)"/><path class="cls-100" d="M1044,653.92c-6.51,3-11.31,1.28-16-1-1.19-.57-2.64-1.48-1.69-3s2-.11,2.89.46A24.14,24.14,0,0,0,1044,653.92Z" transform="translate(-747 -327)"/><path class="cls-101" d="M1066.94,636l-2,0c0-4.45.57-9-1.9-13.06,1.4-.13,2.65,2.17,4.17.28Z" transform="translate(-747 -327)"/><path class="cls-51" d="M995.81,630.08l1.25-1.25a43.36,43.36,0,0,1,14.8,6.26c-.28.27-.56.54-.85.8-3.41.2-6.12-1.52-8.86-3.2v0Z" transform="translate(-747 -327)"/><path class="cls-84" d="M1002.15,632.69c3.2.4,5.94,2,8.86,3.2,1.34,1.36,2.26,2.69-.17,3.88,0-1.76-1.47-3.36-2.57-3C1004.2,638.08,1003.76,634.64,1002.15,632.69Z" transform="translate(-747 -327)"/><path class="cls-102" d="M1078,645.94c4.66.17,9.17-.14,13.13-5.42-1,6.08-4.89,6.38-8.22,7.33C1081.53,646.41,1078.55,649.22,1078,645.94Z" transform="translate(-747 -327)"/><path class="cls-103" d="M1078,645.94c1.22,1.71,3.58.47,4.91,1.91-5,1-9.17-1.13-13.18-3.72l2.23-1.09C1074.3,643.21,1075.81,645.24,1078,645.94Z" transform="translate(-747 -327)"/><path class="cls-104" d="M1067.5,647.76c-.18,1.58-1.28,2.15-2.67,2.22-.93,0-2.21.16-2.3-1.12-.1-1.47,1.1-2.29,2.37-2.66S1067.05,646.5,1067.5,647.76Z" transform="translate(-747 -327)"/><path class="cls-84" d="M991,644.91c.7-.92.84-2.92,2.71-1.82,2,1.18,4.14.6,6.21.79C997.09,645.7,994,644.62,991,644.91Z" transform="translate(-747 -327)"/><path class="cls-98" d="M1073,616.09l2.07-8.28c1.74,1.09.68,2.75.85,4.15C1074.73,613.17,1074.79,615.29,1073,616.09Z" transform="translate(-747 -327)"/><path class="cls-85" d="M1100.79,640.9c-2.3.1-4.31-.09-3.31-3.74l3.39,3.69Z" transform="translate(-747 -327)"/><path class="cls-105" d="M1075,412.14c2-.48,3.28-.31,2.6,2.28-.83,3.18-1.73,6.35-2.33,9.57-.42,2.27-1.72,4.95,1.51,6.45,2.45,3.11.18,4.79-2,6.51h0c-1,.48-2.59,1.52-3,.12-1.22-4.07-6-5-7.3-8.87-.66-1.89-1.72-1.57-2.94-.42-.81.77-1.63,1.66-3.42,1.32,3.75-9.09,3.38-19.05,6.58-28.23,4.57.13,3.07,4.3,4.38,6.59.27,2.76,1,5.52.19,8.18-.48.66.62.53,0,.36.75-2.38,2.55-3.28,4.86-3.47A1.86,1.86,0,0,0,1075,412.14Z" transform="translate(-747 -327)"/><path class="cls-106" d="M1067.9,408.06c-1.65-2.14-.49-5.51-3.17-7.19a42.23,42.23,0,0,1,2.56-12.47l1.6-.28c2-.09,1.76,1.55,2,2.71a44.87,44.87,0,0,1,.48,12.3,11.27,11.27,0,0,1-1.9,4.85A1.2,1.2,0,0,1,1067.9,408.06Z" transform="translate(-747 -327)"/><path class="cls-107" d="M1086.86,514.93c1.81-.12,3.63-.22,5.44-.36s4.13-.17,4.94,1.6c3.08,6.76,7.66,12.67,8,20.88.3,7.27-.57,13.63-4.23,19.8-2.79,4.71-7.24,6.27-12.18,7a2.91,2.91,0,0,1-3-1.39c-.62-1.2.68-1.69,1.37-2.29,7.74-6.69,7.65-21.2,4.1-29.57-1.41-3.33-1.91-7.14-5.19-9.74-2.17-1.72,1.19-3.82.78-5.94Z" transform="translate(-747 -327)"/><path class="cls-108" d="M1074,540.74c1-4.72,2.84-8.78,8.29-9.81,4-.77,6.13,1.35,6.47,4.9a69.62,69.62,0,0,1,0,12.42c-.43,5.17-5.08,7.23-12.25,5.78-1.69-1.17-2.12-3-2.71-4.84C1075.47,546.41,1077.6,543.63,1074,540.74Z" transform="translate(-747 -327)"/><path class="cls-109" d="M1074,540.74c2.24.41,5.08.37,5.15,3.46.07,3.27-2.91,4-5.32,5-4-1.05-4.39-3.6-2.85-6.94Z" transform="translate(-747 -327)"/><path class="cls-110" d="M1068.68,407.91c.25-1.37.15-2.83,1.12-4,1.67-1.21.28-3.94,2.73-5.05,1.32,1.28,1.3,3,1.43,4.75.39,2.48.84,4.95,0,7.42,0,.32,0,.63,0,1C1070.25,413.93,1069.21,413.11,1068.68,407.91Z" transform="translate(-747 -327)"/><path class="cls-111" d="M1068.68,407.91c1,2.29,1.47,5.27,5.21,4.07l1.14.16c-2,2.31-4.94,3.78-7.13,6.58V408.06Z" transform="translate(-747 -327)"/><path class="cls-112" d="M1080.05,422.17c-.76,2.37,1.71,3.73,1.82,5.82-1,.68-1.92,1.59-3.21,1.81a2.48,2.48,0,0,1-1.74-.63c-1.92-3.64,2-5.86,2.18-9C1081,420.11,1080.47,421.16,1080.05,422.17Z" transform="translate(-747 -327)"/><path class="cls-113" d="M1073.94,411c-2.1-2.42-.44-5.25-.87-7.85,1.11-.68,1.32.31,1.74.93,1.14,1.25.69,3.7,3,4C1077.13,409.87,1075.05,409.8,1073.94,411Z" transform="translate(-747 -327)"/><path class="cls-114" d="M1080.05,422.17l-1-2c.4-3.05.8-6.09,1.32-10.08,2.71,4.21-.38,7.7.6,11a6.37,6.37,0,0,0-.17.87A3.21,3.21,0,0,0,1080.05,422.17Z" transform="translate(-747 -327)"/><path class="cls-30" d="M1076.92,429.17l2-.17c1.62,2.82.79,4.95-3.13,8a8,8,0,0,1-1-.06l2-6.52C1076.84,430,1076.88,429.59,1076.92,429.17Z" transform="translate(-747 -327)"/><path class="cls-115" d="M1074.81,404.11l-1.74-.93c-.14-1-.28-1.91-.44-3-1.53,1.36-1.27,3.27-2,4.76a.6.6,0,0,1-.42-.13,6.43,6.43,0,0,1-.41-.88c-.09-5.27,1.73-10.66-.91-15.79,0-1.61.77-1.73,2-1,.09.27.19.54.3.8C1072.26,393.36,1074.8,398.45,1074.81,404.11Z" transform="translate(-747 -327)"/><path class="cls-116" d="M1075.8,437c1.8-2.38,3.37-4.84,3.13-8,.57-1.56,1.62-1.68,2.94-1C1080.26,434.67,1079.24,436.17,1075.8,437Z" transform="translate(-747 -327)"/><path class="cls-117" d="M833.16,482.15l1.05-1,7.89-1.21c6.84-2.68,13.69-3.2,20.53,0,1.18.54,2.73,1.07,2.44,2.7-.23,1.36-1.73,1.25-2.83,1.45-2.57.48-4.74,2.5-8,1.73,2.5,1.55,5.79,1.64,5.7,5.24v-.07c-1.91,2.71-4.73,1.41-7.19,1.58-1.93.12-3.88,0-5.82,0-1.13,0-2.27,0-3.4,0-3.48-.16-5.77-2.5-8.23-4.53C834.51,486.05,831.25,485.05,833.16,482.15Z" transform="translate(-747 -327)"/><path class="cls-118" d="M859.93,491c-2.93-3.05-7.64-2.66-11.17-5.57,5.2-2.08,10.51-1.15,16-3.08-7.47-5.17-15.16-3.08-22.67-2.44,5.87-5.54,18.28-3.62,24.54.84.75.53,1.72,1.17,1.61,2.32-.09.85-.9.95-1.53.94C862,484,860.35,486.87,859.93,491Z" transform="translate(-747 -327)"/><path class="cls-119" d="M854.05,503.09h-4c-2.65-.27-2.71-1.72-1.42-3.49a6.45,6.45,0,0,1,3.19-2c1.32-.5,1.79-1.95,2.93-2.67,3.7-1.92,7-.46,10.31,1.16,1.52,1.26,1.73,2.21-.48,3C861,500.33,857.55,501.75,854.05,503.09Z" transform="translate(-747 -327)"/><path class="cls-118" d="M865,496.1c-3.64.13-7.28-.92-10.91,0-1.78-1.33-3.44-2.76-5.91-2.8-1.18,0-2.61-.5-2.16-2.35l13.88-.07C860.91,493.37,863.94,493.78,865,496.1Z" transform="translate(-747 -327)"/><path class="cls-120" d="M943,582.12a43.22,43.22,0,0,1,1.37,4.22,1.7,1.7,0,0,1-1.07,2,2.8,2.8,0,0,1-1.77-.5c-9.26-4.89-14.16-13.53-18.57-22.36-2.36-4.73-1.54-9.9.92-14.62a8,8,0,0,0,1.21-3.7,13.28,13.28,0,0,1,6.4-3.39c2.93-.82,3.81.57,3.75,3.17,2.5,2.2,1.75,5,1.41,7.71-.25,1.93,0,3.89-.29,5.81-.47,2.17-2.41,2.32-4,3-1.14.49-2.6,1-2.33,2.7.23,1.43,1.5,2.07,2.73,2.5,1.52.54,3.26.2,4.71,1.12C939.39,573.87,943.1,577.13,943,582.12Z" transform="translate(-747 -327)"/><path class="cls-121" d="M934.66,561.47c.31-4.83-.57-9.71.56-14.52.58-1,1.15-2,1.72-3,5.49-3.2,10.51-3.07,15,1.93a3.29,3.29,0,0,0,3.15,1.07c7.19,10.27,7.78,21.56,4.17,33-2.4,7.65-8.69,8.24-16.26,2.19-2.07-4-5.19-7.38-6.13-11.92l.53-.47c2.35-.06,3.49,1.65,4.68,3.24.9,1.19,1.57,2.55,2.58,3.66,1.64,1.8,3.2,4.63,5.93,3.72a9,9,0,0,0,6.37-7c1-5.72-.72-10.91-4-15.5-2-2.78-5.18-3.23-8.5-3.16-3.62.07-5.41,1.77-6,5.28-.24,1.5-1.15,2.81-3.08,2.6A1,1,0,0,1,934.66,561.47Z" transform="translate(-747 -327)"/><path class="cls-122" d="M955.07,546.91c-1.69,3.77-3.84.83-4.9-.14-3.66-3.33-6.8-5.66-11.3-.93-1.72,1.81-1.49-1-1.93-1.93,3.37-5.27,8.43-5.86,13.87-1.57,1.42,1.13,2.76,2.36,4.13,3.55C955,546.23,955,546.57,955.07,546.91Z" transform="translate(-747 -327)"/><path class="cls-123" d="M846.06,491c1.66,1.59,3.76,1,5.67,1,3.38,0,3.52,1.63,2.4,4.12,1.91,1.83,1.28,2.68-1.1,2.85-3,.18-6.51-.19-5.47,4.7,2,3.89,7.28,4.78,8.49,9.37,1.11,2.36,2,4.93,5.55,4.22a1.89,1.89,0,0,1,2.12,1.72c.25,3.35-1.49,6-3.65,8.28-1.77,1.86-4.1,1.31-5.94,0-3.78-2.62-7.39-5.48-11.07-8.24,3.35.17,6.69,1.95,10.26.06-5.05-6-12.66-7.75-19.45-12,3.45-1.8,6.39-.53,9.28-1.53-.44-2.27-2.52-2.69-4.06-3.65-7.32.93-12.54-3.35-17.94-7.21-.24-1.19-.49-2.38-.73-3.57,4,.74,7.79-.35,12.39-1.34-5.06-3.84-10.95-3.3-15.66-6a17.39,17.39,0,0,0,1.93-1.67c-1.13-1.75-3.22-1.26-4.87-1.87a1.48,1.48,0,0,0-2,1.52c-.06,1.49.1,3-1.28,4.06-.09-2.18,1-4.71-1.82-6.08,2.48-8.51,11.07-7.23,16.87-10.39,2.06-1.13,2.75,1.86,4.36,2.45a7.56,7.56,0,0,1,1.45.19c2.21.74,5.48.41,5.88,3.35s-2.8,3.06-4.61,4.24c-1.08.7-2,1.56-3.06,2.35-.66,1.38-.08,2.15,1.27,2.42,1.85.37,3,1.71,4.35,2.84a55.56,55.56,0,0,0,10.3,6.95c-1.07-.91-3.07-.89-2.95-3Z" transform="translate(-747 -327)"/><path class="cls-124" d="M846.13,503.93c-.33-1-2.66-1.75-.64-3,2.25-1.43,4.3-4.18,7.54-1.9-4.79,1.81-4.79,1.81-3,4.1,2.79,3,7.6,2.41,10.21,5.73-2.44,2-4.9-.32-7.35,0A16.81,16.81,0,0,1,846.13,503.93Z" transform="translate(-747 -327)"/><path class="cls-125" d="M846.13,503.93l6.92,4.11c1.78-.49,2.45.69,3,2,0,1,0,2,0,3C853,509.78,847.74,508.81,846.13,503.93Z" transform="translate(-747 -327)"/><path class="cls-126" d="M856.07,510.06l-3-2c2.6-1.6,4.66,1.74,7.19.78.77.24,2.19.5,2.18.73,0,1.6-1.5,2.4-2.46,3.43s-1.44,0-1.69-.8C857.91,511,857.57,510,856.07,510.06Z" transform="translate(-747 -327)"/><path class="cls-127" d="M841.47,599.2c4.11-2.63,4.67-7.69,7.63-11.16,1.17-1.38,2-3.74,3.88-2.55s.08,3.1-.88,4.53h0c-1.79,2.68-1.33,6-2.58,8.91-.9,2.07,1.74,3.34,2.45,5.15.81,1.18,1.84,2,3.34,1.62s3.11-.4,3.85,1.24c.65,1.45-.81,2.46-1.5,3.46-1.95,2.83-4.21,4.83-8.07,2.65-3.11-1.77-8.38-.34-9.71-3.95C838.88,606.36,840.84,602.54,841.47,599.2Z" transform="translate(-747 -327)"/><path class="cls-94" d="M852,604.07c-4.83-4.5-4.79-8,.13-14.06.35,2.86-.67,5.53-1.34,8.21a4.48,4.48,0,0,0,1.27,4.86Q852,603.57,852,604.07Z" transform="translate(-747 -327)"/><path class="cls-65" d="M835,488.05a14.61,14.61,0,0,0-4.82-2.21c-2.91-.81-2.9-2.4-.17-3.81,1,1.51,2.14-.41,3.18.12-.23,2.37,2.92,2.58,3,4.73C836.11,487.61,835.46,487.75,835,488.05Z" transform="translate(-747 -327)"/><path class="cls-128" d="M821.15,494.77c6.5,1.1,11.7,5.45,17.94,7.21-2,3.44-8.58,5.36-11.19,2.74C825.08,501.91,821.58,499.3,821.15,494.77Z" transform="translate(-747 -327)"/><path class="cls-129" d="M835,488.05l1.22-1.17,6.76,4.38,6.4,4.18C843.54,494.87,839.41,491.17,835,488.05Z" transform="translate(-747 -327)"/><path class="cls-130" d="M934.66,561.47l1.61.69c2.27.06,3.68,1.19,3.93,3.47s-1,3.65-3,4.49l-.4.07a9.32,9.32,0,0,1-1.43.42c-3.85.52-8.5-1.85-8.16-4.56C927.78,561.92,931.05,561.17,934.66,561.47Z" transform="translate(-747 -327)"/><path class="cls-131" d="M937.25,570.12c2.57-3,2.41-5.69-1-8a5.79,5.79,0,0,0,.54-1.39c.42-3.32-.38-7.14,4.8-7.81,7.22-.94,11.28.46,13.9,5.28a31.25,31.25,0,0,1,3.68,11.59c.73,6.11-3,9.14-6.73,12.3-2,1.68-4.14.72-6.24-.9C942.3,578.2,941.16,573.06,937.25,570.12Z" transform="translate(-747 -327)"/></svg>