<svg id="图层_1" data-name="图层 1" xmlns="http://www.w3.org/2000/svg" width="1200" height="630" viewBox="0 0 1200 630">
  <defs>
    <style>
      .cls-1 {
        fill: #222;
      }

      .cls-2 {
        fill: #61dafb;
      }

      .cls-3 {
        fill: #404040;
      }

      .cls-4 {
        fill: #60d8f8;
      }

      .cls-5 {
        fill: #60d8f9;
      }

      .cls-6 {
        fill: #5ed4f4;
      }

      .cls-7 {
        fill: #5fd5f5;
      }

      .cls-8 {
        fill: #232424;
      }

      .cls-9 {
        fill: #232323;
      }
    </style>
  </defs>
  <path class="cls-1"
    d="M959.42,854.91q-297.4,0-594.81.09c-3.73,0-4.61-.8-4.61-4.58q.17-310.36,0-620.72c0-3.57.52-4.7,4.49-4.7q595.56.17,1191.13,0c3.57,0,4.36.7,4.35,4.33q-.17,310.62,0,621.22c0,4.09-1.29,4.43-4.77,4.42Q1257.33,854.86,959.42,854.91Z"
    transform="translate(-360 -225)" />
  <path class="cls-2"
    d="M1069.77,482.17c0,18.23-12.62,31.66-33.15,34.91-5.74.91-11.6,1-17.38,1.72-13.09,1.59-19.28,7.33-21.75,20.24-1.84,9.63-3,19.39-8.29,28.06-7.75,12.62-21.76,19.36-35.67,16.73a34.05,34.05,0,0,1-27.7-28.54c-2.2-14.23,5.08-28.21,18.3-35.31,7.21-3.88,15-5.28,23-5.86a90.07,90.07,0,0,0,15.34-2c8.16-2,13.22-7,15.24-15.35a58,58,0,0,0-.86-29.55c-2.58-9.41-8.8-14.65-18.24-16.16-10-1.6-20.19-1.14-30-4.77-14.52-5.39-24-18.94-23.19-34.29a34.08,34.08,0,0,1,63.88-14.29c3.73,6.66,5.52,13.86,6.56,21.34,2.88,20.72,6.47,24.29,27.34,26.54,7.45.8,14.94,1.16,22.1,3.58C1060.32,454.26,1069.76,467,1069.77,482.17Z"
    transform="translate(-360 -225)" />
  <path class="cls-3"
    d="M919,482.27c0,19.16-14.4,33.74-33.32,33.75-18.42,0-33.44-15.07-33.65-33.78-.19-18.11,15.55-34.18,33.48-34.2C904.42,448,919,463,919,482.27Z"
    transform="translate(-360 -225)" />
  <path class="cls-3"
    d="M806.24,584A33.34,33.34,0,0,1,773,550.53c0-19.06,15.35-34.6,34.11-34.49,17.69.1,32.9,15.9,32.87,34.15C840,569.54,825.5,584.06,806.24,584Z"
    transform="translate(-360 -225)" />
  <path class="cls-3"
    d="M1109.29,584c-18.84,0-33.35-14.69-33.32-33.73,0-18.63,15-34.11,33.27-34.26S1143,531.76,1143,550.47A33.36,33.36,0,0,1,1109.29,584Z"
    transform="translate(-360 -225)" />
  <path class="cls-2"
    d="M978.12,669.4c11,6.59,13.07,18.38,19.47,28.55-7.53,0-14-.05-20.41,0-2.19,0-2.71-1.54-3.47-3-2.89-5.43-5.75-10.89-8.69-16.29a26.34,26.34,0,0,0-3-4.55,5.53,5.53,0,0,0-5.84-2c-2.35.75-1.13,3.14-1.17,4.76q-.24,9,0,18c0,2.4-.76,3.4-3.13,3.09a4.17,4.17,0,0,0-.5,0c-5.14-.12-11.83,1.67-15-.89-3.35-2.71-1-9.68-1.06-14.77-.14-14.48.06-29-.12-43.45,0-3.7.65-5.28,4.86-5.15,11.48.37,23-.11,34.45.38,14.17.6,21.85,13.33,15.92,25.71C988,664.77,983.82,667.59,978.12,669.4Z"
    transform="translate(-360 -225)" />
  <path class="cls-2"
    d="M1295.94,669.63c8.72,4.3,11.2,12.43,15,19.58,4.56,8.7,4.39,8-5.34,9-9.55,1-15.23-2.14-18.27-11.19-1.25-3.73-3.69-7.07-5.6-10.58a8,8,0,0,0-4.31-4c-2.8-1-4.73-.85-4.57,3.11.25,6.15-.07,12.32.13,18.48.09,2.93-.55,4.23-3.81,4-4.31-.29-8.66-.15-13,0-2.13,0-3-.73-3-2.88q.08-29.22,0-58.46c0-2.19.93-2.88,3-2.86,12.32.12,24.66-.15,37,.34,9.63.39,15.45,5.81,16.64,14.21C1311.27,658.55,1307.23,664.93,1295.94,669.63Z"
    transform="translate(-360 -225)" />
  <path class="cls-3"
    d="M649.73,669.74c8.52,6.15,11.47,15.55,15.85,24,1.54,3,.77,4.38-2.64,4.18-.16,0-.33,0-.5,0-19.42-.64-14.32,3.85-24-14.22-1.73-3.22-3.16-6.64-5.68-9.35-1.38-1.48-3.16-2.77-5.29-1.93-2,.77-1.43,2.82-1.45,4.41-.06,5.49-.15,11,0,16.47.1,3.48-1.36,4.8-4.75,4.65-3.66-.16-7.33-.11-11,0-2.89.07-4.26-1.06-4.25-4.09q.08-28,0-55.91c0-2.3.66-4,3.33-3.93,13,.3,26-1.16,38.86.8,8.48,1.29,12.42,5.45,13.91,13.4s-1.36,14.8-7.89,18.91C652.91,668,651.47,668.75,649.73,669.74Z"
    transform="translate(-360 -225)" />
  <path class="cls-2"
    d="M1061.93,665.52c.22,27.79-26.42,43.19-50.88,29.41-10.9-6.14-16.28-19.87-14-35.86,1.83-13.19,9.69-22.53,22.22-25.09,13.62-2.77,26.63-1.88,36.36,10C1059.92,649.22,1061.85,656.29,1061.93,665.52Z"
    transform="translate(-360 -225)" />
  <path class="cls-2"
    d="M1127.63,656.12c0,5.66.21,11.32,0,17-.7,15.85-10.1,25.15-25.88,25.84a62.73,62.73,0,0,1-15.41-1c-9-1.82-14.74-7.23-17.52-15.86a35.75,35.75,0,0,1-1.69-10.81c-.06-11.15.05-22.3-.09-33.45,0-2.91.64-4.28,3.86-4.08a97.56,97.56,0,0,0,12,0c3.22-.2,3.87,1.16,3.85,4.06-.06,12.15-.13,24.3.24,36.43.2,6.52,4.41,9.88,10.85,9.71s10.13-4,10.27-11.55c.2-10.15.07-20.3.08-30.45,0-8.14,0-8.14,8.14-8.14,11.44,0,11.44,0,11.44,11.33v11Z"
    transform="translate(-360 -225)" />
  <path class="cls-2"
    d="M1194,666.05c0-9.32.1-18.64-.06-27.95-.05-3.07.6-4.41,4.07-4.37,14.81.18,29.62.15,44.43,0,3,0,4.07.8,4,3.91-.34,12,1.4,9.44-9.18,9.68-6.66.15-13.32.23-20,0-4.51-.18-3.59,2.78-3.61,5.29s-.82,5.4,3.67,5.23c7.65-.29,15.31,0,23-.13,2.81-.05,3.67.9,3.75,3.72.26,9.39.37,9.39-9.09,9.39-5.66,0-11.32.21-17-.08-3.61-.18-4.51,1.17-4.4,4.56.33,9.84-1.08,8,8.2,8.14,7,.12,14,.16,21,0,3.31-.09,4.66.76,4.65,4.41,0,10.16.13,10.16-10.18,10.16-12.81,0-25.63-.19-38.43.11-4.13.09-5-1.29-4.88-5.07C1194.13,684,1194,675,1194,666.05Z"
    transform="translate(-360 -225)" />
  <path class="cls-3"
    d="M674,665.68c0-8.83.13-17.66-.06-26.48-.08-3.85,1.23-5.33,5.19-5.28q21,.24,42,0c3.67,0,5.25,1.31,4.92,5a26.7,26.7,0,0,0,0,4c.22,3.63-1.48,5.1-5.07,5.05-7.33-.1-14.66.08-22-.06-3.77-.07-6,.84-5.94,5.25.05,4.24,2.34,4.9,5.8,4.85,6.49-.1,13,.17,19.49-.08,5.34-.22,4.73,3.27,4.79,6.64.07,3.53.22,6.71-5,6.48-6.48-.29-13,0-19.48-.1-3.49-.08-5.81.49-5.64,4.81.15,4-.43,8,5.35,8.07q8.25.06,16.49.08h4.5c6.95,0,10.3,5.57,7.4,12.2-.77,1.76-2.22,1.84-3.72,1.84-15,0-30,0-45,0-3.5,0-4.09-1.93-4.07-4.81C674.05,684,674,674.84,674,665.68Z"
    transform="translate(-360 -225)" />
  <path class="cls-3"
    d="M764.12,634c11.63.1,9.68-1.3,13.78,9.89,5.83,15.94,11.85,31.81,17.79,47.7,2.31,6.16,2.19,6.35-4.27,6.37a48.84,48.84,0,0,0-5,0c-5.59.57-10.27,0-11-7.09-.25-2.38-2.23-3-4.48-3a96.37,96.37,0,0,1-10.48,0c-5.48-.51-9.53.48-10.06,7-.17,2.06-1.69,3.1-3.88,3.08-4.32,0-8.65,0-13,0-3.23,0-3.57-1.65-2.6-4.23q10.6-28.28,21.17-56.58a4.23,4.23,0,0,1,4.49-3.14C759.12,634.05,761.62,634,764.12,634Z"
    transform="translate(-360 -225)" />
  <path class="cls-3"
    d="M828,699c-16.14,0-25.75-5.5-30.34-19.28-3.71-11.14-3.53-22.67,2.69-33.24,6.94-11.78,18.33-14.06,30.69-13.38,9.9.54,18,4.42,22.5,14,2.29,4.89,1.82,6-3.38,7.16-1.46.34-3,.59-4.36,1.07-3.86,1.3-6.55,1.55-9.37-2.92-4.53-7.16-15.17-6-18.9,1.65-3.88,7.93-3.49,16.24-.12,24.19,1.72,4.06,5.24,6.07,10.07,5.89,5.22-.2,8.87-2.7,10.2-7.29,1.44-4.94,4.11-4.75,7.79-3.42.94.33,1.91.59,2.86.9,8.55,2.76,9.23,4.42,4.59,12.2C847.33,695.88,838.62,699.34,828,699Z"
    transform="translate(-360 -225)" />
  <path class="cls-3"
    d="M885.75,634c8,0,16,.13,24-.06,3.76-.08,5.44,1.06,5.36,5.1-.22,12.48,1,10.78-10.5,10.92a21.29,21.29,0,0,1-3,0c-4.43-.54-5.79,1.44-5.72,5.75.22,12-.09,24,.16,36,.1,4.62-1.12,6.48-6.11,6.42-13.91-.18-13.91,0-13.91-14,0-9.5-.19-19,.07-28.48.13-4.45-1.53-6-5.83-5.68-3.14.25-6.33,0-9.49.05-3.41.1-4.77-1.52-4.76-4.85.08-13.06-.92-11,10.24-11.1C872.76,633.91,879.26,634,885.75,634Z"
    transform="translate(-360 -225)" />
  <path class="cls-2"
    d="M1160.51,633.81c8.49,0,17,.09,25.48,0,2.89,0,4,.65,4.11,3.84.26,12,.38,12-11.53,12-8.49,0-8.49,0-8.49,8.42,0,11.66-.21,23.32.11,35,.12,4.32-1.29,5.49-5.33,5.08a50.43,50.43,0,0,0-10,0c-3.66.35-4.36-1.18-4.32-4.52.18-13.15,0-26.31.14-39.46,0-3.45-1-4.8-4.5-4.54s-7.33,0-11,0c-8.69,0-3.28-6.51-4.3-9.89-.8-2.69-1.35-6.28,4.13-6C1143.5,634.14,1152,633.81,1160.51,633.81Z"
    transform="translate(-360 -225)" />
  <path class="cls-4"
    d="M620.63,619.23c2.25-3.54,2.66-6.65,3.51-9.59.51-1.75.78-3.87,3.24-3.73,2.1.13,2.38,2,2.7,3.64,1.07,5.54,1.67,11.19,3.7,16.51a2.48,2.48,0,0,1-1.71,3.55c-1.87.54-2.63-.9-3-2.47-.7-2.72-1.37-5.46-2.36-9.38-1.22,3.49-2,6-2.95,8.43a3.9,3.9,0,0,1-3.2,2.83c-2,.19-2.25-1.59-2.7-3-.71-2.2-1.37-4.4-2.14-6.86-1.57,2.4-1.51,4.92-2.1,7.26-.36,1.43-.72,3.13-2.75,2.92s-2.32-1.86-2-3.37c1.29-5.83,2.72-11.62,4.13-17.42a2.74,2.74,0,0,1,2.81-2.34,3,3,0,0,1,2.61,2.65C619.08,612,619.75,615.17,620.63,619.23Z"
    transform="translate(-360 -225)" />
  <path class="cls-5"
    d="M669.52,621.81a54.35,54.35,0,0,0-.27-12.76c-.2-1.41,0-2.78,1.64-3.14,2-.42,2.85,1.06,2.89,2.58.17,6,.31,12,.08,17.91-.13,3.32-2.41,3.15-4.57,1.7-2.92-2-5-4.77-7.33-7.38l-5.26-6c0,4.57.11,7.92-.05,11.25-.08,1.57-.23,3.7-2.5,3.58s-2.13-2-2.13-3.77q0-8-.16-15.92c0-1.69-.27-3.41,1.89-4.05,1.89-.56,2.69.83,3.57,2C660.83,612.61,664.22,617.5,669.52,621.81Z"
    transform="translate(-360 -225)" />
  <path class="cls-6"
    d="M680.15,618.24c.07-3.43,1.58-7-3.64-8.19-2-.48-1-3.17.93-3.51a28.8,28.8,0,0,1,11.86.56,2,2,0,0,1-.61,4c-4.58-.89-3.66,2.33-3.73,4.82,0,1.5,0,3,0,4.5,0,2.05-.26,4.12,2.93,3.73a2.36,2.36,0,0,1,2.87,2.13c.12,1.68-1.37,2.23-2.69,2.33-3.31.24-6.64.28-10,.4a2.22,2.22,0,0,1-2.38-1.42c-.34-.89.1-2.14.68-2.17C681.94,625.05,679.89,621,680.15,618.24Z"
    transform="translate(-360 -225)" />
  <path class="cls-7"
    d="M641.68,629c-1.49,0-3,0-4.47,0-1.06,0-2-.32-2.24-1.51s.14-2.24,1.27-2.34c3.84-.35,3-3.15,3.11-5.51a44.1,44.1,0,0,1,.2-4.46c.3-2.26.74-4.37-2.7-4.41a2,2,0,0,1-1.93-2.41c.15-1.41,1.24-1.89,2.47-2a40.51,40.51,0,0,1,10.88.64,1.89,1.89,0,0,1,1.7,2.07c0,1.15-.8,2.09-1.82,2-5.08-.67-4,2.91-4.08,5.71,0,1.49.09,3,0,4.47-.16,2,.4,3.11,2.69,2.9,1.6-.14,3.2.37,3.19,2.28s-1.78,2.15-3.27,2.25c-1.65.1-3.31,0-5,0Z"
    transform="translate(-360 -225)" />
  <path class="cls-8"
    d="M961.66,646.49c2.29.26,4.46.34,6.56.79,2.85.61,4,2.75,4.17,5.5s-1,4.9-3.66,5.9c-3.84,1.42-7.86,1.17-11.86,1.14-1.57,0-2-.9-2-2.25,0-2.83-.33-5.7.08-8.47C955.68,644.47,959.61,647.8,961.66,646.49Z"
    transform="translate(-360 -225)" />
  <path class="cls-8"
    d="M1272.85,653.57c.18-7.4-1.3-6.9,6.78-6.89a39.56,39.56,0,0,1,6,.44c3.07.49,4.6,2.53,4.76,5.54s-1,5.15-4,6.15a24.68,24.68,0,0,1-11.36.9C1270.63,659.08,1274,655.27,1272.85,653.57Z"
    transform="translate(-360 -225)" />
  <path class="cls-9"
    d="M633.71,647c6.71,0,9.31,1.77,9.29,6.21,0,4.91-3.2,6.5-11.11,6.9-5.72.29-6.11-2.67-5.94-7C626.19,647,626.06,646.93,633.71,647Z"
    transform="translate(-360 -225)" />
  <path class="cls-1"
    d="M1042.32,664.32c-.11,4.44-.13,7.42-1,10.34-1.76,6.27-5.54,9.35-11.77,9.44s-10.82-3.14-12.44-9.34a34.25,34.25,0,0,1-.3-16.29c1.57-7,5.78-10.73,12.34-10.72s11,3.68,12.5,10.59A42.66,42.66,0,0,1,1042.32,664.32Z"
    transform="translate(-360 -225)" />
  <path class="cls-1"
    d="M764.07,653.2c2.33,5.47,3.63,11.27,5.22,17,.61,2.19-.55,3.2-2.44,3.46s-3.65.16-5.48.26c-3.34.19-4.56-1-3.4-4.46,1.76-5.33,3.19-10.77,4.77-16.16Z"
    transform="translate(-360 -225)" />
</svg>