<svg xmlns="http://www.w3.org/2000/svg" width="1024" height="512"><defs><style>.a{fill:#057ec0}.c{fill:#1386c6}.g{fill:#40a4d8}.j{fill:#339cd3}.n{fill:#4daedd}.o{fill:#45a8da}.q{fill:#3da3d7}.r{fill:#1b8bc9}.s{fill:#43a6d9}.ab{fill:#4aacdc}.ac{fill:#3ba1d6}.af{fill:#2593cd}.ag{fill:#2c97d0}.aj{fill:#2794ce}.am{fill:#61d9fa}.ao{fill:#24343d}.aq{fill:#0071bb}.au{fill:#369ed4}.az{fill:#2d97d0}.bf{fill:#fefefe}</style></defs><path d="M441 .14h223c2.92 2.36 2.31 5.71 2.32 8.79.08 28.11-.22 56.22.13 84.33.25 19.8-1 39.54-1.28 59.32-.16 11.61-6.53 19.92-16.86 25.16-3.43.77-6.46 2.88-10.08 3.05-16.88-2.38-33.78-1.09-50.69-.54-9.47.31-18.94.38-28.41-.14q-19 .7-37.91 0c-11.49-2.23-23.08-1.79-34.66-1.36-7.12.26-14.22.85-21.34.5a26 26 0 0 1-16.63-6.93c-7.6-6.47-11-14.76-10.92-24.67.07-14.81-.62-29.65.15-44.43 1.65-31.27.33-62.55.9-93.82.03-3.19-.72-6.74 2.28-9.26ZM1023.9 105.08V298c-1.82 4-5.67 4-9.17 4.72a71.8 71.8 0 0 0-9.73-.11 13.76 13.76 0 0 0-2.71-.41c-7.52.19-15 .34-22.53-.14-13.15.47-26.3.53-39.45 0-1.93 0-3.85.26-5.78.15-21.44-3.79-43-.17-64.45-.8-4.78-.14-9.23-.79-13.06-3.85-10-6.36-15.22-15.39-15.43-27.32-.59-34.05 1.66-68.07 1-102.13-.22-11.79 0-23.59 0-35.39a40.39 40.39 0 0 1 .62-8.92c2.27-6 4.35-12.07 9.66-16.38 3.52-2.86 7.13-5.34 11.6-6.37 7.49-2.38 15.14-1 22.74-1a290.07 290.07 0 0 1 29.49 0c8.61-.21 17.23-1 25.8.52 1.7.31 3.25-.56 4.91-.53 9.14-.67 18.18.43 27.28 1.15 11.55.92 23.19 1.17 34.7-1a37.89 37.89 0 0 0 7.36.67c3.25-.01 5.76 1.14 7.15 4.22ZM527 511.87H321c-2.12-1.61-2.27-4-2.29-6.3-.12-22.46-.81-45 .22-67.37.83-18 .3-35.91.7-53.86.11-4.71.52-9.3 2.86-13.51 6.92-12.61 17.49-18.38 31.91-17.25 3.11.24 6.27.32 9.41.34 11.76-.57 23.51-.48 35.26 0 15.43-1.09 30.82.45 46.22.91 17.54.52 35.09 1.92 52.58-.76 7.74.73 15.17 2.3 21 8.08 7.63 6.47 10.66 14.64 10.59 24.68-.25 38.59-.07 77.19-.15 115.78 0 3.19.69 6.73-2.31 9.26Z" class="a"/><path d="M492.09 795.87h-44q0-253.62-.09-507.24c0-3.74.82-4.88 4.6-4.59 4.8.38 9.66.1 14.49.1 2.3 1.73 2.31 4.27 2.29 6.77a56.89 56.89 0 0 0 1.44 14.83 25.1 25.1 0 0 0 24 19c12 .25 23.92-.13 35.88.21 2.34.07 5.74-.55 5.32 3.78-2 2.14-4.59 1.67-7 1.71-9.14.16-18.3 0-27.45.11-5.76.09-6.75 1.32-7.09 7.15-.37 6.25 1.2 12.66-1.42 18.74-2 2.41-4.84 1.88-7.43 2-14 .6-19.53 6.84-20.26 21-1.21 23.13-.7 46.26-.88 69.39a60.37 60.37 0 0 0 .16 7c1.14 10.48 7.68 16.69 18.22 16.85 15.82.24 31.65 0 47.47.09a33.33 33.33 0 0 1 6.48.3c1.94.4 4.18.76 3.09 3.75-2 1.95-4.67 1.56-7.11 1.59-9.48.15-19 0-28.46.08-8.85 0-9.82.95-9.83 9.67v297.48c-.11 3.46.86 7.36-2.42 10.23Z" style="fill:#1285c5" transform="translate(-448 -284)"/><path d="M44.09 511.87v-311c0-8.8 0-8.8 9-8.8h39c2.66-2.92 5.55-2.61 8.57-.63 2.32 3.43 1.77 7.35 1.77 11.13q.08 70.89 0 141.78 0 78.63-.05 157.26c0 3.53 1 7.44-2.32 10.3Z" class="c"/><path d="M548.08 795.87V476c1.67-3 4.62-2.22 7.15-2.27 4.7-.1 9.29-.42 13.66-2.4 6.24-2.83 9.74-7.72 9.71-14.45-.12-26 1.86-51.88 1.11-77.84-.31-10.63-5.12-17.52-14-19.29a47.93 47.93 0 0 0-13.88-1.26c-2.36.22-4.32-.27-5.2-2.8-1.16-9.46-2.3-18.92.79-28.26 1.37-1.49 3.24-1.54 5-1.58q18.56-.37 37.12 0c1.63 0 3.32.06 4.71 1.18 2.12 2.29 2 5.18 2.06 8 .12 8.32 0 16.63.06 24.95 0 2-.1 4 .95 5.81.83 2.16-.38 3.87-1.3 5.61-6.19 11.76-8.57 24.43-8.62 37.54-.14 31.26 0 62.51-.07 93.77 0 7.3-.22 14.58-.73 21.9-1.11 16 1.22 31.49 9.17 45.79 1 1.84 2.28 3.74 1.69 6.09-1.08 3.29-.06 6.61-.06 9.91q-.06 99.83-.08 199.65c0 3.38.85 7.11-2.32 9.8Z" style="fill:#1587c6" transform="translate(-448 -284)"/><path d="M947 640.91c-33.33.46-66.64-.44-100-1-2.47-1.89-2.32-4.65-2.31-7.28 0-11.12-.44-22.24.29-33.35a12 12 0 0 0-.34-2.94c-.39-2.28 1.12-3.7 2.39-5.23a65.75 65.75 0 0 0 15.59-44.22c-.59-40.93 1.58-81.83 1.11-122.77a124.92 124.92 0 0 0-2.68-26.73c-1.25-5.46-3.12-10.5-7.55-14.24-2.08-5.25-6-9.88-5.67-16 1-2.89.77-5.89.78-8.86.08-13.06 0-26.13.07-39.19a9.69 9.69 0 0 0-1.05-4.76 3.56 3.56 0 0 1-.12-2.92c3.32-6.85 3.27-14.18 3.22-21.52 0-2.23.34-4.33 2.27-5.8h36c0 30 .54 60-.25 89.91-.47 17.47-.2 34.94-.84 52.39-.41 11 1.81 20.8 10.11 28.59.32 16.19 1.15 32.38-.51 48.54-.38 2.27-2 3.18-3.94 4-7.84 3.53-11.39 9.7-11.25 18.24.11 6.3-.11 12.61 0 18.91.28 11.29-.55 22.53-1 33.8-.39 10.12 2.86 18.29 13 22.34a4.77 4.77 0 0 1 3 3.15c1.7 5.69.75 11.54 1 17.32.12 3.15 0 6.31.06 9.46.18 5.46 1.32 6.59 6.93 6.72 8.29.2 16.6-.23 24.89.35a72.14 72.14 0 0 1 12.47-.09c2 .27 4.2.34 4.33 3.18Z" style="fill:#2391cc" transform="translate(-448 -284)"/><path d="M595.07 795.87V584.26c0-2.81-.33-5.68 1-8.33 2-.86 3.31.45 4.24 1.74 6.89 9.53 16.63 15.66 26.15 22.07 3.28 4.64 8.33 6.42 13.34 8.2 2.73 1 4.7 2.42 5 5.53a19 19 0 0 1 .61 5.45q.11 84.57 0 169.15c0 2.78.3 5.75-2.32 7.8Z" style="fill:#1789c7" transform="translate(-448 -284)"/><path d="M845.78 123c-1.78 11.43-.55 22.94-.85 34.41-.27 10.49 0 21-.11 31.48-.25 25.3-.26 50.61-1 75.9-.39 13 3.43 23.49 14.28 31.05 2.18 8.37.91 16.87.94 25.32-.26 2.06-1.74 3.1-3.34 4.07-9 5.38-13.14 13.77-13.25 23.76-.37 31.92-.19 63.85-.11 95.77 0 4.31 1.72 8.08 3.68 11.78.92 1.73 2.39 3.28 1.92 5.5-1.63 6-.19 12-.63 18-.26 3.55.5 7.27-1.83 10.47-1.3 1.31-3 1.39-4.66 1.44-4.88.36-9.49-1.43-14.28-1.8-2.33-.19-3.37-1.87-3.65-4.07a47.62 47.62 0 0 1-.29-7c.36-17.9-.88-35.83.73-53.71.18-1.94-.86-3.51-1.46-5.21a14.6 14.6 0 0 1 .43-5.42 82.71 82.71 0 0 0 2.21-17.71c-.12-36-.07-72 0-107.93 0-5.32-.17-10.63.72-15.94a18.24 18.24 0 0 0-1.12-10.3 21.1 21.1 0 0 1-1.35-7.33c-.26-4.8-1.15-9.52-1.67-14.29 1.81-5 .75-10.13.68-15.25-.3-23.81-.83-47.64.06-71.41 1.16-30.62.91-61.24.39-91.83-.3-18.13-.25-36.25-.53-54.38-.05-2.92-.47-6.1 2.31-8.3h20c2.91 2.36 2.31 5.72 2.32 8.79q.13 43.92 0 87.83c0 7.79.76 15.64-1.07 23.36a4.41 4.41 0 0 0 .53 2.95Z" class="g"/><path d="M146.07 44.13h-46c-4.2 3-8.15 3-12 0-1.76-1.29-3.8-1-5.77-1-11.11 0-22.24-.34-33.34.06-16.16.6-29.12-10.93-29.84-29.13-.18-4.63 0-9.28 0-13.92h208a5.57 5.57 0 0 1 2.12 3.78c1 13.5 1 26.69-11.19 36.13-6.85 5.53-14.76 6.75-23.34 6.51-13.59-.37-27.19 0-40.79-.13-2.85-.03-5.8.3-7.85-2.3Z" class="a"/><path d="M975 795.87c0-40-.25-80 .19-120.07.13-11.22-1.53-21.09-10.18-28.87-2.13-14.76-2.51-29.5.28-44.23a3.67 3.67 0 0 1 1.42-2c7.93-5.19 10.52-12.62 10-21.87-.87-16.45 1.48-32.86 1-49.33-.28-8.76-2.06-16.54-10.66-21a5 5 0 0 1-2.63-4c-1.51-13.05-.72-26.12-.47-39.19a4.63 4.63 0 0 1 1.43-3.09A3.14 3.14 0 0 1 969 462l38 .09c2.33 1.69 2.26 4.24 2.29 6.7.08 7.73.19 15.47-.07 23.2a7.84 7.84 0 0 0 .89 4.72 6.3 6.3 0 0 1-1.21 5.17c-9 13.63-11.39 29-11.47 44.82q-.34 66.67 0 133.36c.05 10.87 3.83 20.84 9.36 30.17 1.66 2.8 4.42 5.11 4.26 8.81a14.24 14.24 0 0 0-.78 5.84c.17 12.77.09 25.54.05 38.32a17.64 17.64 0 0 1-.6 5.41 5.88 5.88 0 0 1-3.7 4.86c-7.83 3.56-13.06 9.36-15.17 17.82a8.61 8.61 0 0 1-2.86 4.55Z" style="fill:#2a96cf" transform="translate(-448 -284)"/><path d="M405 .14c0 5.1-.12 10.22 0 15.32.13 5.32-2.38 9.85-4 14.65.34 2.5-.67 4.38-2.41 6.16a30.28 30.28 0 0 1-20.05 9.62c-14.12-1.27-28.25 0-42.37-.39-10.48-.27-21 .33-31.44-.34-9.79.19-19.58 1-29.33-.7-12.72-2.18-23.27-13.24-24.49-26.08a104.06 104.06 0 0 1-.09-13.45 6.05 6.05 0 0 1 2.23-4.79ZM540 511.87c.52-11 5.93-18.75 15.55-23.75 1.47-.76 3-1.46 4.47-2.18 2.14-2.83 5.16-3.4 8.45-3.37 11.15.11 22.26 1 33.42 1.1 12.28.06 24.56 1.7 36.78-.72 4.45.87 9 .45 13.47.88q19.83-.74 39.66 0c11.89-.85 23.75-.06 35.59.85a65 65 0 0 0 14.29-.45c12.83 2 21.74 8.85 26.11 21.24.78 2.21 1.31 4.52-.83 6.41Z" class="a"/><path d="M773 654.92a27.74 27.74 0 0 0-3 13.46c.11 5.15.08 10.3 0 15.45-.5 37.34-1.38 74.69-1 112h-34a6.21 6.21 0 0 1-2.24-5.3c-.2-25.74-.26-51.48 0-77.23a12.08 12.08 0 0 1 .63-3.41 5.08 5.08 0 0 1 2.59-4c8-4.4 10.2-11.95 10.53-20.22.38-9.47.39-19 0-28.43-.31-7.3-2.8-13.68-9.81-17.37a5.67 5.67 0 0 1-3.35-4.65c-.78-6.73-2-13.48 1.07-20a5.51 5.51 0 0 1 4.13-1.44q14.48-.49 28.94 0a5.84 5.84 0 0 1 3.75 1.13c2 2.13 2.07 4.82 2 7.46-.24 10.21 1 20.47-.85 30.65a2.83 2.83 0 0 0 .61 1.9Z" style="fill:#1c8dca" transform="translate(-448 -284)"/><path d="M647 176.13c6.16-3.62 11.32-8.14 14-15a27.09 27.09 0 0 0 2-9.19c.89-33.44 1-66.88 1-100.33V.17h23c2.11 1.6 2.3 3.95 2.28 6.3-.12 16.61.74 33.25-.5 49.85-.19 2.43 1.13 4.07 1.85 6-.9 16.37.46 32.78-1 49.16a167.15 167.15 0 0 0 0 26.85 35.33 35.33 0 0 0 6.44 18.09c1.39 2 3.26 3.86 3 6.64-1.49 4.73-.36 9.58-.7 14.36-.2 3 .14 6-2 8.56-2.15 1.67-4.72 1.32-7.15 1.35-8.42.11-16.84.16-25.26-.06-5.15.13-10.07-1.42-15.14-2-4.36-.47-4.99-4.27-1.82-9.14Z" class="j"/><path d="M707.05 795.87h-39a6.12 6.12 0 0 1-2.21-4.81c-.11-2-.15-4-.16-6V626.37c0-11.91.06-11.91 11.79-11.92h22c2 0 4-.28 5.86.79 3.57 6.2 2.23 12.68 1.09 19.15-.82 2-2.49 2.5-4.41 2.67s-3.66.15-5.49.22c-12 .49-19 6.66-19.85 18.63a299.07 299.07 0 0 0 0 34.4c.47 9.54 8.09 16.34 18.25 17.14 2.81.22 5.65 0 8.47.25 2 .14 4 .42 5 2.59 1.14 2.51 1.06 5.2 1.06 7.85q.08 34.46 0 68.9c-.09 3.1.55 6.47-2.4 8.83Z" style="fill:#198ac8" transform="translate(-448 -284)"/><path d="M705.06 616.12c-10.32 0-20.64.11-30.94-.25-5-.17-6.17 1.73-6.15 6.38.15 38.25.08 76.5.08 114.75v58.87h-25l.05-184.12c1.55-1.9 3.61-1.54 5.52-1 8.15 2.13 16.45 1.9 24.76 1.89 17.27 0 34.54-.15 51.81.12 2.6 0 6.41-1.17 6.93 3.49-.55.38.26 0-.31.39-4.6 2.69-22.44 2.36-26.75-.52Z" style="fill:#1889c8" transform="translate(-448 -284)"/><path d="m1450.91 584.13 2.14.06a40.29 40.29 0 0 0 18.85-2.19q0 104.94.1 209.89c0 3.42-.65 4.32-4.1 4.1-5.64-.37-11.33-.1-17-.1a6.1 6.1 0 0 1-2.22-4.81c-.09-1.83-.15-3.66-.15-5.49V594.42c.07-3.53-1-7.42 2.38-10.29Z" style="fill:#4fafde" transform="translate(-448 -284)"/><path d="M840.83 489.72h4.11c1.68-2 4-2.15 6.38-2.16 9.48 0 19-.34 28.45.23 15-.47 29.89-.85 44.77 1.41 5.48.84 10.94-.26 16.37-1.09a9.78 9.78 0 0 1 3.52.82c9.5 2.44 16.48 7.94 20.59 17 .92 2 1.71 4-.11 6H789c-2.56-5.35 1.43-8.71 3.91-12.44 1.18-1.77 3.3-2.77 4.72-4.43 6.59-7.37 15.31-8.67 24.16-6.93a94.66 94.66 0 0 0 14.16 1.32c1.6.01 3.27-.36 4.88.27Z" class="a"/><path d="M1002.91 300.13v211.74h-23c-2.61-2-2.28-5-2.32-7.77-.15-12.27 0-24.53-.07-36.79 0-2 1.47-3.33 2.8-4.53 6.52-5.88 9-13.58 9.12-21.93.28-31.23.22-62.47 0-93.71 0-7.16-3.26-13.08-8.29-18.11-1.48-1.48-3.6-2.57-3.71-5.08-.26-6.54.15-13.08.29-19.62a5 5 0 0 1 2.16-4.2Z" class="n"/><path d="m916.93 102-30-.09c-2.22-1.56-2.27-3.95-2.29-6.28q-.21-44.61 0-89.24c0-2.34.16-4.69 2.29-6.29h30c2.14 1.6 2.28 3.95 2.29 6.3q.21 44.65 0 89.31c-.02 2.37-.13 4.74-2.29 6.29Z" class="o"/><path d="M1364.93 386V284.14h27c2.91 2.36 2.31 5.72 2.32 8.8.09 23.3 0 46.61.06 69.91 0 7.94-.56 15.92 1.26 23.76Z" style="fill:#48aadb" transform="translate(-448 -284)"/><path d="M823.94.14v233.77c0 2.83-.12 5.66-.18 8.49-2.81-.23-3.22-2.63-3.82-4.57a76.12 76.12 0 0 0-13.11-25.32 5.61 5.61 0 0 1-1.32-4.6c.21-13.47 0-26.94.11-40.41-.1-2 1-3.32 2.41-4.65 7.76-7.3 12-16.06 11.65-27-.29-8.31 0-16.63-.07-25-.15-12 1.57-23.87 1-35.86-.56-12.56-4.9-23-15.76-30.05a32.77 32.77 0 0 0-6.29-3c-2.12-.82-3.85-2-4.2-4.48-1.54-11.17-.72-22.38-.52-33.57a5.2 5.2 0 0 1 2.09-3.78Z" class="q"/><path d="M259.05 511.87v-86c.85-1.76 2.48-2 4.18-2.17 6.95-.46 13.93 0 20.89-.43a3.22 3.22 0 0 1 2.92 1.6v87Z" class="r"/><path d="M886.93.14V102c-7.64.68-15.41-.89-23 1.21-2.36-1.24-2.25-3.56-2.26-5.67q-.32-45.78 0-91.57c0-2.19.32-4.32 2.26-5.78Z" class="s"/><path d="M1395.56 386.61c-4-.6-3.65-3.56-3.65-6.44v-96h22c2.63 2 2.32 5 2.33 7.8q.13 39.44 0 78.88c-.06 14.07 1.15 12.74 12 13.05.83 0 1.66.17 2.49.16a132.89 132.89 0 0 1 18.93 0c2.84.58 6.73-1.85 8.11 2.86-17.77.21-35.54.29-53.3-.62-2.93-.16-5.93.19-8.91.31Z" style="fill:#49abdc" transform="translate(-448 -284)"/><path d="M1457.81 386.91c-2.51-1.41-5.26-.61-7.9-.85-2.16-1.59-2.28-4-2.29-6.3q-.21-44.65 0-89.32c0-2.34.15-4.7 2.29-6.3 6.16 0 12.34.2 18.49-.09 3-.14 3.6.6 3.59 3.58-.14 33.82-.09 67.64-.09 101.45-4.41-2.53-9.34-1.79-14.09-2.17Z" style="fill:#4eaede" transform="translate(-448 -284)"/><path d="M1311.93 284.14v103c-8.83 4.08-15.6 10-18.17 19.85-2.45-1.8-1.82-4.47-1.82-6.88v-116Z" style="fill:#41a5d8" transform="translate(-448 -284)"/><path d="M701.05 284.14v11.94c0 19.07 11.38 30.64 30.57 31 6.8.12 13.61 0 20.42 0 2.59 2.34 2.28 4.92.61 7.6-1.84 1.87-4.28 1.66-6.55 1.67q-44.82.23-89.64 0c-2 0-4 .11-5.76-1.11a1.86 1.86 0 0 1-.22-3 3.18 3.18 0 0 1 2.62-1.21c7 1 10.08-3.18 11.95-9 10.2-8.71 10.71-20.41 10-32.48-.11-1.83 0-3.66 0-5.49Z" style="fill:#1a8bc8" transform="translate(-448 -284)"/><path d="M1449.91 284.14v101.92h-19c-2.16-1.59-2.28-4-2.3-6.3q-.21-44.65 0-89.32c0-2.34.16-4.7 2.29-6.3Z" style="fill:#4caddd" transform="translate(-448 -284)"/><path d="M1430.91 284.14v101.92h-10.47c-6.51 0-6.53 0-6.53-6.78v-95.14Z" style="fill:#4bacdd" transform="translate(-448 -284)"/><path d="M1183 284.14h35a5.93 5.93 0 0 1 2.2 4.75c.27 9.39.3 18.77 0 28.16a9 9 0 0 1-1.49 4.65 5.31 5.31 0 0 1-4.08 1.56c-9.49.35-19 .4-28.47 0a5.05 5.05 0 0 1-3.64-1.38 4.36 4.36 0 0 1-1.11-2.2c-1.31-10.88-.91-21.79-.27-32.69-.01-1.28 1.03-1.99 1.86-2.85Z" style="fill:#39a0d5" transform="translate(-448 -284)"/><path d="M1136.82 347.1c-2.25-1.65-1.84-4.09-1.84-6.37v-56.59h24c2.46 1.88 2.24 4.63 2.32 7.26.31 9.77-.48 19.56.51 29.3a4.2 4.2 0 0 1-2.64 4.83c-9.1 4.41-16.47 10.53-20.38 20.18a2.41 2.41 0 0 1-1.97 1.39Z" style="fill:#359dd4" transform="translate(-448 -284)"/><path d="M978.93 467.17c1.62 4.69.91 9.54 1 14.33.1 10.12 0 20.25 0 30.37h-15c-3-10.54-10-17.13-20.09-20.84a31.83 31.83 0 0 1 .12-19.36c1.62-2.21 4.08-2 6.34-2 8.28 0 16.58.26 24.45-3.06a2.68 2.68 0 0 1 3.18.56Z" class="ab"/><path d="M797.84 496.84a39.58 39.58 0 0 0-8.89 15h-17a5.21 5.21 0 0 1-2.09-3.81c-.13-12.76-1.15-25.53.61-38.26.58-2.36 2.3-3.46 4.49-4A68.63 68.63 0 0 0 791.3 459c2-1.15 4-1.56 5.85.29 1.13 1.6 1.07 3.48 1.07 5.28 0 10.73.48 21.51-.38 32.27ZM770 37.08V.14h26v38a4 4 0 0 1-4.23 1.9c-5.53-.87-11.12-.39-16.67-.73-2.01-.09-4.1-.06-5.1-2.23Z" class="ac"/><path d="M1220 753v42.84h-5c-2.59-14.14-10.43-22.32-24.07-25.1-3.11-.81-6.28-.33-9.41-.35-2.86 0-4.36-1.22-4.61-4 0-.5-.1-1-.14-1.49-.81-10.44.17-11.71 10.54-11.44 8 .21 15.91-.75 23.8-1.79 2.89.44 6.31-1.93 8.89 1.33Z" style="fill:#39a0d6" transform="translate(-448 -284)"/><path d="M1161 322.13c-2.69-1.15-2-3.57-2-5.62-.06-10.79 0-21.58 0-32.37h24V321a3.21 3.21 0 0 1-2.64 2c-5.77.71-11.58.48-17.37.5-.88.04-1.5-.68-1.99-1.37Z" style="fill:#379fd4" transform="translate(-448 -284)"/><path d="M521 178h-3c-1.77 2.26-4.31 2.24-6.82 2.29-7 .12-14-.07-21 .1-5.42.13-6.71 1.42-6.82 6.91-.16 8.48 0 17-.09 25.44 0 2.82 0 5.69-1.9 8.08-1.49 1.38-3.39 1.32-5.2 1.37-7.49.22-15 .21-22.47 0-2.15 0-4.41 0-5.75-2.25v-41.6c0-2.65-.15-5.34 2-7.4a31.85 31.85 0 0 0 20 6.11c14.9-.24 29.81-.07 44.72 0 2.2.05 4.42-.34 6.33.95Z" class="af"/><path d="M560.88 213c-2.08-1.46-1.88-3.67-1.89-5.81V178.1h79.92c-.38 3.78-3.45 3.08-5.7 3.14-11 .3-21.92 0-32.88.16-5.6.07-6.22.69-7.35 6.5.4 2.81-1.31 4.39-3.52 5.37-9.39 4.21-17.13 10.61-24.21 17.92-1.25 1.29-2.54 2.15-4.37 1.81Z" class="ag"/><path d="M1040.18 473.12c-3.11-7.75-1.69-10.07 6.2-10.07h34.76c2 0 4 .3 5.78-.91l8.07-2c0 7.89 0 7.83 7.74 7.93 3.08 0 6.26-.64 9.24.75-1.5 3.14-4.49 2.46-7 2.5-13.16.19-26.32.14-39.48.06a63.65 63.65 0 0 0-18.27 2.23c-2.32.66-4.85 1.73-7.04-.49Z" style="fill:#2f99d0" transform="translate(-448 -284)"/><path d="m1383 583.94 4.89.08c4 6.64 2.75 13.49.76 20.36-1.55 1.79-3.68 1.65-5.74 1.73-12.76-2-25.61-1.69-38.46-1.67-1.48 0-3 0-4.2-1.1-2.84-5.52-1.72-11.34-1.16-17.08.18-1.83 1.67-2.8 3.59-2.76 13.47.24 26.92-.59 40.32.44Z" style="fill:#46a9db" transform="translate(-448 -284)"/><path d="M939.93 319.83v-19.81l40 .11c-.28 8 .75 16-1 23.88a3 3 0 0 1-3.59.93c-9.21-3.6-18.87-2.34-28.38-2.7-2.54-.09-5.48.63-7.03-2.41Z" class="ab"/><path d="M935 299.94c-11.93 0-23.87.26-35.79-.06-5.16-.14-6.8 1.68-6.38 6.6.35 4.12.08 8.28.09 12.42-.92 1.5-2.45 1.57-3.92 1.52a119.09 119.09 0 0 0-25 1.74c-2.06-.1-4.35.94-6-1.17a58.72 58.72 0 0 1 .09-25.14c3.72 2.56 7.92 3.17 12.32 3.17q29.13 0 58.28.11c2.14 0 4.31-.35 6.31.81Z" class="s"/><path d="M1014.78 300.19a13.63 13.63 0 0 1-9.74 0Z" class="n"/><path d="M519 319c-1.13 2.15-1 4.48-1 6.8 0 10.42 0 20.85-.06 31.27a38.19 38.19 0 0 1-.93 5.86c-5.43-3.75-11.27-6.26-18-6-5.56-2-11.33-.47-17-1-1.94-1.45-2.23-3.57-2.27-5.76-.16-8.11-.27-16.23 0-24.33.21-5.34 1.28-6.43 6.64-6.32a146.28 146.28 0 0 0 27.18-1.77c1.94 0 3.98-.64 5.44 1.25Z" class="aj"/><path d="M846 596c1.11 2.15 1 4.48 1 6.79v37.18h-36a5.1 5.1 0 0 1-2.09-3.74c-.23-6.7-.89-13.42.51-20.07.51-2.46 2.48-3.41 4.54-4.08 10.16-3.3 19.63-7.81 27.56-15.16 1.28-1.22 2.74-1.99 4.48-.92Z" style="fill:#218fcb" transform="translate(-448 -284)"/><path d="M811 615.07v24.84c-5 0-10-.17-14.94.08-10.51.53-17.88 6.12-23.1 14.93-2.19-1.43-2-3.69-2-5.84v-33c1-2.27 3.08-2.28 5-2.39 10.4-.54 20.83.42 31.22-.62a3.66 3.66 0 0 1 3.82 2Z" style="fill:#1f8eca" transform="translate(-448 -284)"/><path d="M100.07 72.11c5.26.4 10.5 0 15.8.81 10.48 1.6 17.74 8.58 18.11 19.27 1 27.63-1 55.22-1.06 82.84 0 9.07-9.5 16.48-20.35 17-4.16.18-8.33 0-12.49.06h-8c-1.93-1.38-4.16-1-6.3-1H35.3c-13 0-21.14-8.12-21.19-21.28-.06-19.82-.27-39.64.13-59.45.14-7.12.61-14.27 1-21.41.45-8.6 9.2-16.33 18.37-16.75 3.49-.16 7 0 10.5-.05 1.61-2.13 4-2.26 6.3-2.28q21.69-.21 43.39 0c2.32-.03 4.68.13 6.27 2.24Z" class="a"/><path d="M100.07 72.11h-56c0-7.63.14-15.25-.06-22.87-.11-3.93 1.45-5.21 5.27-5.16 12.93.15 25.86.05 38.78.05h12q.01 13.99.01 27.98Z" class="c"/><path d="m202.19 49.85 101.84.21c1.67-2.08 4-2.24 6.34-2 10 1.09 19.88.38 29.84.25 10.46-.13 20.89 1.33 30.28 6.71a67.57 67.57 0 0 1 27.31 21c1.93 2.49 3.32 4.92 3.08 8.1l6.27 13a52.53 52.53 0 0 1 6.3 24.83c-.22 28.3.44 56.61-.27 84.89-.45 17.79-.18 35.6-1 53.37-.66 14.13-6 26.88-14.86 38-11.86 14.94-27.13 24.27-46.06 27.45a54.88 54.88 0 0 1-9 .6c-36.14 0-72.27.28-108.4-.15-11.62-.14-23.27-.59-34.9-1-8-.3-15.06-3.86-21.81-7.95a86.37 86.37 0 0 1-29.11-25.26c-11.04-17.56-12.71-36.9-11.29-57.08.87-12.42.26-24.93.32-37.41.1-22.94.48-45.89.19-68.83-.22-16.49 2.42-32.08 11-46.38-.51-3.54 1.61-6.05 3.62-8.42a73.86 73.86 0 0 1 43.94-25.52c2.29-.43 4.68-.7 6.37 1.59Z" class="am"/><path d="M650.19 333.85c-23 2.34-40.72 13.63-53.93 32.35-2.12-1.83-2.2-4.31-2.2-6.83v-31.24c17 0 33.95-.26 50.91.11a32.12 32.12 0 0 0 20.07-6.13c0 10.72 0 10.72-10.55 11a8.61 8.61 0 0 0-4.3.74Z" style="fill:#1689c7" transform="translate(-448 -284)"/><path d="m519 319-4 1c-7.23 1-14.51.27-21.76.43-12.5.28-24.86 3.08-37.43 1.87-2.76-.27-5.72.26-7.76-2.35-13.07-5.14-17.46-10.86-16.85-24.87.8-18.61.62-37.21.89-55.81.15-10.52 6.76-16 16-19.26h33c1.59-2.1 3.92-2.23 6.25-2.27 7.43-.13 14.85-.15 22.28 0 3.2.08 6.27.6 8.41 3.37 11.38 5.08 14.44 14.44 14.06 26-.58 18.06-.6 36.14-1 54.2-.32 8.38-5.21 13.77-12.09 17.69Z" class="a"/><path d="M177.19 317.19c17.55 7.73 36.24 5.93 54.59 6.2 35.48.52 71 .63 106.44.72 37.27.09 66.44-25.3 71.46-62.08a97.69 97.69 0 0 0 .49-12.47c.3-40.46.48-80.92.91-121.38.11-10.57-.65-20.92-3.93-31 7.52 9.35 10.55 20.49 10.56 32 .06 45.93-.3 91.86-.81 137.79-.19 17.39-7.24 32.24-18.88 45a74 74 0 0 1-35 19.1c-13.3 1.76-26.67.38-40 1.06-12-.54-24-.41-36-.11a1.93 1.93 0 0 1-2.83-.13c-2.07-.86-4.25-.51-6.39-.52-21.05-.15-42.1-.33-63.16-.36-6.72 0-13.08-1.86-19.55-3.26-6.09-3.21-13.04-5.16-17.9-10.56Z" class="ao"/><path d="M448 320h67c-6.17 2-12.51.79-18.75.88C482 321.12 482 321 482 335v20.91c-9.61 0-19.23-.12-28.84.06-3.88.08-5.28-1.34-5.22-5.21.19-10.24.06-20.52.06-30.76Z" class="af"/><path d="M848.88 368.17c-7.51-11.71-17.73-20.42-29.89-27a10.24 10.24 0 0 1-1.14-3.78c-1-8.16.11-9.48 8.25-9.79a3.74 3.74 0 0 0 1.89-.45c9.28-.69 15.53-6.25 21-13.05 2 1.91 2 4.4 2 6.91v39.2c.01 2.86-.18 5.64-2.11 7.96Z" style="fill:#2190cb" transform="translate(-448 -284)"/><path d="m858 321 5-1.16c5-.8 10-.31 14.94-.33 17.16-.08 34.31 0 51.47 0 1.81 0 3.66-.36 5.43.37h5.07c8.26.06 16.51.06 24.77.2 5.06.08 9.64 2.05 14.2 4 9.5 6.94 13.41 16.18 13.22 28-.47 29.12-.41 58.24-.34 87.37 0 11.38-3.47 20.88-12.85 27.79-7.23 4.64-15.3 5.05-23.54 4.72-3.15-.12-6.31 0-9.47 0-1.63 2.09-4 2.21-6.32 2.25-6.47.1-12.95.19-19.42-.1-11.65-2.47-23.43-1.81-35.19-1.39-7 .24-13.92.82-20.89.44-6.06-.33-11.12-3-15.66-6.88-1.35-1.14-2.26-2.43-1.67-4.32-5.2-6.52-7.12-13.85-7-22.27.36-28.46.51-56.93.13-85.39-.2-14.86 4.43-26.37 18.12-33.3Z" class="a"/><path d="M592.18 189.12c11.3-4 23-4.79 34.86-4.53 12.31.26 24.62.16 36.93.22l32 .06c1.54-1.79 3.64-2.1 5.83-2.11 9.21-.05 18.43-.37 27.64.24 1.58.08 3.15-.17 4.73-.12 9 1.18 18 2.81 27 .39 3.89.69 7.87 1.09 11.57 2.63a61.19 61.19 0 0 1 28.78 15c2.49 2.27 4.67 4.69 5.43 8.09a83.45 83.45 0 0 1 16.8 33.39q.63 6.29 1.25 12.58c1 8.59.74 17.18.54 25.82-.89 37.79-.93 75.6-.5 113.39.44 39-30.63 66.66-62.93 70.1-16.92 1.81-33.91 1.43-50.87.14-2.49-.19-5-.18-7.49-.18-27.33 0-54.65-.1-82 0-14.64.08-28.49-2.48-40.9-10.72a53.07 53.07 0 0 0-8-4.06c-3.39-3.14-6.48-6.58-9.82-9.78-1.38-1.32-2.42-2.76-1.41-4.79-11.17-14.83-15.29-31.51-15-50 .71-41.57.72-83.16.65-124.75 0-17.14 4.19-32.81 13.56-47.12 8.46-10.59 19.17-18.22 31.35-23.89Z" class="ao"/><path d="M572.89 446.49c16.81 12.69 36 15.84 56.6 15.42 26.64-.54 53.31-.16 80 .2 17.31.23 34.64 1.46 51.9-.16 34.61-3.26 62.21-33.82 62.45-68.63.12-17.81.13-35.63.29-53.45q.39-42.45.91-84.89a54.64 54.64 0 0 1 1.68 18.24c-1.28 14.29-.54 28.59-.67 42.87-.27 27.61-.23 55.23-.2 82.84 0 7-1.34 13.88-2 20.81.18 11.72-6 20.62-13.11 29a48.31 48.31 0 0 1-10.21 9.34c-1.44.95-2.79 1.82-4.55.9a80 80 0 0 1-24 10l-8.09 1c-7.1.81-14.22.12-21.33.35-13.49.44-26.88 2.9-40.45 1.91-3.29-.24-6.62-.09-9.93-.34-10.3.52-20.61.31-30.91.18-4.91-.09-9.69-.89-14.77-.24-11.42 1.47-22.89-.65-34.36-.94-1.2 0-2.18-.77-3.29-1.1a59.79 59.79 0 0 1-33.93-17.38c-1.6-1.53-3.64-3.18-2.03-5.93Z" class="aq"/><path d="M796 459c13.9-9.81 22.78-23.18 27.88-39.25 1.26 2.29 1.11 4.8 1.11 7.28 0 18.55.13 37.11-.09 55.66 0 4.71 1.34 6.61 6.2 6.29 3.23-.21 6.63-.81 9.78.76-7 0-13.94.39-20.87 0a30.77 30.77 0 0 0-22.12 7.1c-2.41-1.07-1.87-3.26-1.87-5.16-.09-10.9-.02-21.79-.02-32.68Z" class="q"/><path d="M1294.77 745.93a30.75 30.75 0 0 0 23.43 9.13c14.64-.37 29.31-.07 44 0 2 0 4-.3 5.85.82-.86 1.6-2.36 1.86-4 1.87-8.78 1-17.6.31-26.4.54-6.22.16-7.08 1-7.37 7.31-.13 2.92.5 6.1-2.34 8.27l-35-.09v-22.64c.06-1.92-.52-4.14 1.83-5.21Z" style="fill:#41a6d9" transform="translate(-448 -284)"/><path d="M518 221.12c-12.27-1.87-24.63-.73-36.94-1.12 0-12.1.14-24.2-.08-36.3-.08-4.35 1.39-5.83 5.74-5.73 10.44.24 20.89.09 31.34.1Z" class="aj"/><path d="M572.89 446.49c7.51 10.65 18.5 16 30.39 20 1.56.52 3.14 1 4.71 1.48 2.7 2 2.18 5 2.34 7.78.33 5.64 1.26 6.61 6.91 6.74 5.49.14 11-.14 16.48.18 2.16.12 4.93-.3 5.21 3.14-18.4 0-36.8.29-55.2-.13-7.93-.18-15.82-1.28-23.72.26v-45.17c0-2-.76-4.41 1.63-5.84Z" class="ag"/><path d="M828 327.16c-6.66.3-9.28 3.69-8.09 10.28.21 1.15-.58 2.49-.91 3.74-13.27-5.83-27.22-7.06-41.52-6.38a171.59 171.59 0 0 1-25.44-.74v-6.94Z" style="fill:#1f8ecb" transform="translate(-448 -284)"/><path d="M1086.93 769.81c-7.15-2-14.45-.67-21.67-.86-10.16-.28-9.25.67-9.28-9.54v-7.45c14.38 1.26 28.74 2.71 43.21 1.19 3.22-.34 6.64-.86 9.8.73-2.5 2.3-6.09 8.72-6.93 12.7a6 6 0 0 1-2.09 3.21Z" style="fill:#309ad2" transform="translate(-448 -284)"/><path d="m692 469.93 71.9.1c-7.71 1.86-15.54.62-23.31.81-10 .24-9.93 0-9.66 10.29.09 3.34 1.16 4.91 4.66 4.79 2.45-.08 5-.57 7.32.85l-50.91-.91a14.31 14.31 0 0 1 0-15.93Z" class="au"/><path d="M692 469.93v15.93l-40-.07v-9.33c0-6.51 0-6.51 6.56-6.56h2.46Z" class="j"/><path d="M287 424.92c-9.28 1.86-18.66.62-28 1-4 0-8 .08-12 0-12.39-.4-21.1-9.12-20.95-21.43.14-12.13-1.17-24.33.74-36.38 1.63-10.29 9.26-16.6 19.71-17.06 3.49-.16 7 0 10.49-.06 1.76-2.3 4.33-2.46 6.8-2.12 5.78.79 11.59.71 17.4.86 2.2 0 4.33.32 5.78 2.29 11.51 5.31 14.7 14.91 14 26.69-.55 9.46.55 18.94-.7 28.41-1.06 8.54-5.4 14.38-13.27 17.8Z" class="a"/><path d="M287 352c-10 .3-20-.46-30-1v-18.88l27.16-.23 2.84.11v20Z" class="r"/><path d="M713 38.13c7.26-1.69 14.65-.7 22-1.12l35 .07c8.67.25 17.36-.22 26 1.09 5.3 2.35 10.74 4.35 15.12 8.45a35.89 35.89 0 0 1 11.78 27.59c-.15 22.11-.37 44.21-.93 66.3-.28 11.29-6.68 19.5-15 26.4-1.36 4.81-5.74 5.33-9.54 6.63a18 18 0 0 1-5.25 1.17c-19.2-2.22-38.44-1.21-57.66-.72-10.79.27-21.66 1.54-31.36-4.85-2.26-1.5-5.29-2.51-5-6.15-8.2-8.95-11.49-19.51-11.16-31.59.56-20.63.67-41.26 1-61.89a56.28 56.28 0 0 1 .85-6.41c1.52-10.45 8.89-16.29 17-21.43a73.86 73.86 0 0 1 7.15-3.54Z" class="a"/><path d="M698.1 163a41.63 41.63 0 0 0 27.31 9.19c22.49-.28 45 0 67.47 0-.29 3-2.69 2.93-4.77 3.07a91.08 91.08 0 0 1-13.82-.14c-11.06.62-22.14.19-33.21.32-6.87.08-6.89 0-9.13 6.8a7 7 0 0 1-2 2.77c-11.33.31-22.66.46-34-.11v-16.85c.05-1.98-.31-4.13 2.15-5.05Z" class="au"/><path d="M879.93 489.84c0-4.13.23-8.28-.06-12.39-.32-4.46 1.58-5.73 5.81-5.62 10.08.24 20.17.11 30.26.13 2.85 2.17 2.19 5.35 2.32 8.26.28 6.34 1.06 7.16 7.33 7.29 4 .08 8-.15 12 .2 1.93.17 4.16.16 4.29 3Z" class="o"/><path d="M1389.83 774.72c-6.49-1.85-13.12-.73-19.67-.73-4.62 0-6.72-1.24-6.3-6.15.33-3.93.07-7.92.08-11.88l4.07-.11 25.91.08c-.5 6.36 1.12 12.84-1.1 19.1Z" style="fill:#47a9db" transform="translate(-448 -284)"/><path d="M774 173.1c6.29-.56 12.68 1 18.91-.94 5-.71 9.51-3 14-5.25a9.84 9.84 0 0 1 1.07 4.82c-.52 12.42 1.17 24.9-1 37.28a76.06 76.06 0 0 0-34-21.15c-1.73-5.06-2.78-10.07 1.02-14.76Z" class="q"/><path d="M934.86 319.86h-71.84c5.79-1.83 11.74-.52 17.6-.83 4.1-.21 8.22-.08 12.33-.1q18.08 0 36.14.07c1.96 0 3.99-.33 5.77.86Z" class="g"/><path d="M377.28 70.18c17.2 11.5 26.36 28.05 26.51 48.26.37 46.43-.17 92.86-.88 139.29-.46 30.21-28 58.27-58.46 59-28.27.73-56.59-.1-84.89-.27-17.81-.1-35.63.08-53.43-.46-23.11-.7-41.15-10.64-53.06-30.85-4.32-9.39-5.7-19.2-5.46-29.54.41-17.62-.41-35.27.24-52.87.91-25.1.48-50.19 1-75.28.65-32.73 28.47-61.84 61.37-64.86 3.48-.31 6.93-.88 10.43-.59 15.93-.28 31.83-.82 47.76.43 10.41.82 20.9.16 31.36.24 5.31 0 10.62-.15 15.92.32 12.73-.59 25.47-.36 38.21-.21 8.45.21 16.1 3.43 23.38 7.39Z" class="ao"/><path d="M668.05 348.05c-23.74.65-43.24 9.62-57.12 29.36a63.35 63.35 0 0 0-11.82 36.46c-.44 43.56-.64 87.12-1.11 130.68-.09 8.4 1.37 16.51 3.07 24.64-7-9.72-9.62-20.9-9.6-32.5.07-44.6 0-89.21 1.07-133.8.92-39.17 34.3-63.5 64.53-61.91 3.65.19 7.32.13 11 .18q3.57 3.44-.02 6.89Z" style="fill:#1688c7" transform="translate(-448 -284)"/><path d="M668.05 348.05v-6.89l55.07.11c12.41.78 24.82.12 37.23.33 2 0 4.12-.34 5.13 2a4.26 4.26 0 0 1-1.44 5.31l-85-.58c-3.7.01-7.34-.17-10.99-.28Z" style="fill:#1b8bc8" transform="translate(-448 -284)"/><path d="M764 348.94c-.09-6.79-.08-6.81-6.9-6.82h-28.23c-2 0-4 .3-5.79-.83 23.91.12 47.84-.8 71.71.89 11.27.8 21.75 4.34 30.44 12-19.88-7.38-40.72-4.18-61.23-5.24Z" style="fill:#1f8fcb" transform="translate(-448 -284)"/><path d="M800 213.27c12.59 11.38 17.62 26.22 17.64 42.49q.09 68.91-1 137.84a62.66 62.66 0 0 1-57.76 61.4c-13.4 1-26.93.28-40.41.23q-49.71-.18-99.43-.5c-22.46-.17-40.68-9-53.94-27.34a59.42 59.42 0 0 1-10.74-26.6c.17-35.54.86-71.07.57-106.61 0-10.63-.36-21.29.09-31.91.59-14 3.55-27.26 12.83-38.44 11.1-13.36 24.43-22.91 42-25.62a28 28 0 0 1 7.81-1.48c17.09 0 34.19-.38 51.28.23 14.42-.4 28.8-.53 43.21.7 12.18 1 24.45 2 36.61-.56 6.25 1.18 12.61.24 18.89.92 12.61 1.35 23.21 6.77 32.35 15.25Z" class="aq"/><path d="M609 200.08c-9.48 3.13-18.85 6.4-26.81 12.79-16.69 13.4-25.53 30.72-26.16 52.09-.28 9.31-.1 18.62-.13 27.93-.78.09-1.35-.26-1.34-1 .12-12-.57-24 .36-36.07a62.8 62.8 0 0 1 55-63.55c1.82 2.85 1.58 5.46-.92 7.81Z" class="az"/><path d="M1222 457.1c-.44 4.91.89 9.94-1 14.76l-11.12-2c-7.6-.65-15.21-.1-22.81-.31-1.8 0-3.65.4-5.39-.4L1178 469c.18-13.69-1.8-11.81 11.76-11.91 10.71-.09 21.46-.01 32.24.01Z" style="fill:#399fd5" transform="translate(-448 -284)"/><path d="M1248 497.27c-10-6.3-20.37-11.68-32.37-12.75-5.9-.52-11.86-.44-17.79-.64-9.28-.8-18.58-.13-27.86-.34h-4c-2.53 0-3.71-1.37-3.61-3.73.09-2.11 1.29-3.31 3.56-3.26 13.1.25 26.21-.52 39.3.41 16.42.29 30 7 41.63 18.24a8 8 0 0 1 1.14 2.07Z" style="fill:#399fd4" transform="translate(-448 -284)"/><path d="M1057 484.08c.07-2.64-.4-5.34.93-7.83l5-.23a40.78 40.78 0 0 1 13.32-.06l40.73.24c2.48 2.27 2.32 4.53 0 6.8-13.24 0-26.47.1-39.71 0a147.34 147.34 0 0 0-20.27 1.08Z" style="fill:#319bd2" transform="translate(-448 -284)"/><path d="M1117 483v-6.8q43.17.15 86.35.33a9 9 0 0 1 1.94.42c-11.78 0-23.56 0-35.33.14-2.25 0-5.66-1.08-5.74 2.81-.08 4.3 3.59 3 6 3.07 7.47.15 14.93 0 22.4.07 1.81 0 3.67-.23 5.32.84-27.06.76-54-1.05-80.94-.88Z" style="fill:#359dd3" transform="translate(-448 -284)"/><path d="M1002.92 539.8c0 10.44.06 20.87.13 31.3 0 2-.36 4 .85 5.79 0 21.74.56 43.5-.19 65.21-.44 12.77-.38 25.52-.69 38.28a41.68 41.68 0 0 1-.6 4.41c-1.3-12.77-.56-25.57-.55-38.36 0-33.41.31-66.81.51-100.22.01-2.14-.38-4.33.54-6.41Z" style="fill:#2891c9" transform="translate(-448 -284)"/><path d="M733.68 185.12c9.4.3 18.84-1 28.2.71-9.39-.64-18.82.41-28.2-.71Z" class="au"/><path d="m628.24 192-13.32.06a34.71 34.71 0 0 1 13.32-.06Z" class="az"/><path d="M339 148.62a51.3 51.3 0 0 1-1.51 14.38c-.63 2.78.15 3.85 2.65 4.7a62.83 62.83 0 0 1 18.85 10c13.71 10.85 13.72 25.75 0 36.56a61.64 61.64 0 0 1-19.35 10.15c-3 1-3.75 2.15-3.13 5.31 1.49 7.7 2.08 15.47.61 23.31-2.82 15.12-13.92 22.1-28.62 17.71-8.47-2.54-15.54-7.55-22.09-13.27-2.12-1.86-3.37-2.13-5.71-.15-6.09 5.2-12.76 9.61-20.45 12.21-16.17 5.47-28.25-2.13-30.34-19.09a59.68 59.68 0 0 1 1-20.34c.74-3.28.16-5-3.41-6.21a56 56 0 0 1-20.23-11.57c-10.32-9.28-10.74-21.66-1.06-31.58 6.08-6.22 13.64-10.07 21.74-12.81 3.51-1.19 4.53-2.69 3.73-6.48a61.1 61.1 0 0 1-.7-21.33c2.33-16.21 14.57-23.8 30.1-18.47 7.84 2.69 14.59 7.28 20.68 12.76 2.35 2.11 3.76 2.22 6.17.15A62.39 62.39 0 0 1 307 122.9c17.78-6.52 31 2.27 32 21.23.07 1.49 0 2.99 0 4.49Z" class="am"/><path d="M759.76 439c-13.82.08-25.34-2.48-36-8.65-2.77-1.61-3.81-3.12-2-6.26 2-3.44 2.48-8.68 5.3-10.42 3.11-1.92 6.57 2.83 10.15 4.13 9.56 3.48 19.24 5.19 29.36 3.18a15.38 15.38 0 0 0 6.76-3c5.1-4.13 4.68-10.77-1-14.08-4.66-2.71-9.91-3.77-15.11-4.93-7-1.55-14-3.15-20.45-6.28-16.4-7.92-20-28.06-7.34-41.27 6-6.27 13.54-9.59 22-10.77 14.08-2 27.5 0 39.91 7.4 3.19 1.91 4.58 3.85 2.44 7.54-1.91 3.28-2.4 8.43-5.09 9.93-2.88 1.61-6.2-3-9.59-4.36-8.34-3.39-16.83-5.21-25.8-3.12a14.47 14.47 0 0 0-7.37 4c-4.56 4.72-3.58 11.58 2.24 14.67 5.34 2.83 11.3 3.87 17.13 5.22a95.32 95.32 0 0 1 16.58 5.32c10 4.35 16.28 11.37 16.08 22.89-.2 12-6.21 20.08-16.88 24.85a47.91 47.91 0 0 1-21.32 4.01ZM675.3 341c12.15 0 24.31.08 36.46-.06 3 0 4.68.43 4.25 4-.53 4.23 1.82 9.91-1 12.36-2.41 2.09-7.91.66-12 .71-4.33 0-8.68.24-13-.06-3.37-.24-4.09 1-4.07 4.18.12 23.46-.09 46.93.2 70.39.05 4.77-1.44 5.93-5.79 5.53a67.71 67.71 0 0 0-11.48 0c-3.52.27-4.47-.93-4.44-4.42q.22-30.45 0-60.91c0-4.76 2.08-10.91-.93-13.89-2.78-2.75-8.87-.66-13.5-.79-4-.11-8-.2-12 0-3 .18-3.53-1-3.6-3.73C634.06 341 634 341 647.33 341Z" class="bf"/><path d="M282.1 223.07c-10.16 3.25-16.44-3.31-21.46-13.49-8.53-17.26-9.23-10.58.45-27.38 7.8-13.54 8.08-13.38 23.69-13.32 14.88.06 15.19-.11 22.29 12.87 10.18 18.62 10.38 11.2-.47 29.27-8.75 14.58-4.05 11.6-24.5 12.05ZM240.26 148.5v-.72c.57-17.64 8.92-22.28 24.28-13.48 4.2 2.41 9.71 4.69 11.23 8.72 1.78 4.74-5.1 7-7.22 11-2.58 4.9-6.89 6.71-12.23 6.91a56.84 56.84 0 0 0-7.39 1.11c-7.23 1.24-7.24 1.25-8-6.32-.23-2.3-.43-4.62-.67-7.22ZM328.16 243.31c-.24 2.23-.37 4.56-.78 6.84-2 11.3-7.92 14.41-18.63 10-5.75-2.39-10.68-6-15.48-9.9-1.79-1.45-2.07-2.31-.41-4.28 12.2-14.44 12.43-14.59 30.37-16.85 2.47-.31 3.37.6 3.62 2.75.45 3.74.87 7.54 1.31 11.44ZM250.92 261.23c-5.41.27-8.45-2.65-10-7.39-2.45-7.7-1.43-15.44 0-23.18.42-2.27 1.78-1.95 3.31-1.69 5.73 1 11.46 2 17.21 2.86a4.79 4.79 0 0 1 3.24 2c3.2 4 6.5 8 9.76 12 .79 1 2.22 1.87.52 3.25-7.15 5.75-14.49 11.16-24.04 12.15ZM329 148.85v1.49c-.19 13.36-.12 12.67-13 11.3-8.36-.9-13.78-4.39-18.48-11-5.26-7.39-5.68-7.11 1.95-12.35a47.06 47.06 0 0 1 13.24-6.75c8.53-2.53 13.33.28 15.5 8.89a33.07 33.07 0 0 1 .79 8.42ZM359.22 194.62c-.12 5.34-2.44 8.15-5.18 10.62-5.26 4.76-11.68 7.44-18.19 10-2.38.92-2.77-.23-3.38-1.94-1.74-4.82-3.6-9.6-5.36-14.42-.33-.9-.91-2-.62-2.78 2.34-6.19 4.85-12.31 7.31-18.45.53-1.34 1.51-1 2.45-.67 7.5 2.79 14.78 6 20.14 12.25 1.61 1.9 2.95 4.04 2.83 5.39ZM233.48 176.51c1.79-.65 1.9.92 2.27 1.86 2 5.09 3.77 10.25 5.78 15.32a5.13 5.13 0 0 1-.25 4.25c-2 4.88-4 9.79-5.87 14.75-.66 1.76-1.21 3.12-3.43 2.25-7.29-2.86-14.45-6-19.7-12.09-3.86-4.49-4-8.56-.54-13 5.57-7.14 13.63-10.3 21.74-13.34Z" class="ao"/><path d="m768.34 468.36-7.27-12.57c11.8-.49 12.46.57 7.27 12.57Z" style="fill:#263a44" transform="translate(-448 -284)"/><path d="M703.23 504.13a2.11 2.11 0 0 1-2.47.42c-9.54-2.41-9.55-2.4-4.46-12.47Z" style="fill:#263b45" transform="translate(-448 -284)"/><path d="m703.87 455.22-7.23 11.91c-5.64-9.94-5.55-10.13 7.23-11.91Z" style="fill:#263943" transform="translate(-448 -284)"/><path d="M767.55 493.57c1.6.35 1.47 1.55 1.81 2.41 2.59 6.49.61 9.18-6.38 8.65-1.36-.1-2.13-.53-1.07-2.11 1.98-2.96 3.8-6.02 5.64-8.95Z" style="fill:#263942" transform="translate(-448 -284)"/><path d="M724.94 517h13.5c-2 3.29-4 7-6.74 7.13-2.47.15-4.21-3.92-6.76-7.13Z" style="fill:#253842" transform="translate(-448 -284)"/><path d="m725.84 442.75 6.63-7.5a36 36 0 0 1 6.71 7.5Z" style="fill:#273c47" transform="translate(-448 -284)"/><path d="M300.15 196.35a14.73 14.73 0 0 1-15.33 14.84 14.93 14.93 0 0 1-14.75-15 15.26 15.26 0 0 1 14.92-15 15 15 0 0 1 15.16 15.16Z" class="am"/></svg>