<svg id="图层_1" data-name="图层 1" xmlns="http://www.w3.org/2000/svg" width="252.18" height="369" viewBox="0 0 252.18 369"><defs><style>.cls-1{fill:#666;}.cls-2,.cls-4{fill:#fff;}.cls-3{font-size:15px;font-family:Consolas;}.cls-4{stroke:#00a99d;}.cls-4,.cls-5{stroke-miterlimit:10;stroke-width:2px;}.cls-5{fill:none;stroke:#000;}</style></defs><rect class="cls-1" x="72.52" y="48" width="2" height="60"/><rect class="cls-2" x="1" y="1" width="148" height="48" rx="9"/><path class="cls-1" d="M901.48,182a8,8,0,0,1,8,8v30a8,8,0,0,1-8,8h-130a8,8,0,0,1-8-8V190a8,8,0,0,1,8-8h130m0-2h-130a10,10,0,0,0-10,10v30a10,10,0,0,0,10,10h130a10,10,0,0,0,10-10V190a10,10,0,0,0-10-10Z" transform="translate(-761.48 -180)"/><text class="cls-3" transform="translate(42.01 28.88)">Document</text><rect class="cls-2" x="1" y="107" width="148" height="48" rx="9"/><path class="cls-1" d="M901.48,288a8,8,0,0,1,8,8v30a8,8,0,0,1-8,8h-130a8,8,0,0,1-8-8V296a8,8,0,0,1,8-8h130m0-2h-130a10,10,0,0,0-10,10v30a10,10,0,0,0,10,10h130a10,10,0,0,0,10-10V296a10,10,0,0,0-10-10Z" transform="translate(-761.48 -180)"/><text class="cls-3" transform="translate(25.52 134.88)">Element <tspan class="cls-1" x="65.98" y="0">html</tspan></text><rect class="cls-2" x="1" y="213" width="148" height="48" rx="9"/><path class="cls-1" d="M901.48,394a8,8,0,0,1,8,8v30a8,8,0,0,1-8,8h-130a8,8,0,0,1-8-8V402a8,8,0,0,1,8-8h130m0-2h-130a10,10,0,0,0-10,10v30a10,10,0,0,0,10,10h130a10,10,0,0,0,10-10V402a10,10,0,0,0-10-10Z" transform="translate(-761.48 -180)"/><text class="cls-3" transform="translate(25.52 239.88)">Element <tspan class="cls-1" x="65.98" y="0">body</tspan></text><rect class="cls-2" x="1" y="320" width="148" height="48" rx="9"/><path class="cls-1" d="M901.48,501a8,8,0,0,1,8,8v30a8,8,0,0,1-8,8h-130a8,8,0,0,1-8-8V509a8,8,0,0,1,8-8h130m0-2h-130a10,10,0,0,0-10,10v30a10,10,0,0,0,10,10h130a10,10,0,0,0,10-10V509a10,10,0,0,0-10-10Z" transform="translate(-761.48 -180)"/><text class="cls-3" transform="translate(29.64 347.88)">Element <tspan class="cls-1" x="65.98" y="0">div</tspan></text><rect class="cls-1" x="72.52" y="154" width="2" height="60"/><rect class="cls-1" x="72.52" y="261" width="2" height="60"/><circle class="cls-4" cx="187.52" cy="346" r="20"/><text class="cls-3" transform="translate(183.39 349.88)">1</text><circle class="cls-4" cx="187.52" cy="237" r="20"/><text class="cls-3" transform="translate(183.39 240.88)">2</text><circle class="cls-4" cx="187.52" cy="133" r="20"/><text class="cls-3" transform="translate(183.39 136.88)">3</text><circle class="cls-4" cx="187.52" cy="25" r="20"/><text class="cls-3" transform="translate(183.39 28.88)">4</text><path class="cls-5" d="M973.67,532s78.85-55.35,12.31-98.08" transform="translate(-761.48 -180)"/><polygon points="212.18 247 233.49 249.85 225.35 254.55 225.4 263.95 212.18 247"/><path class="cls-5" d="M973.67,424s78.85-55.35,12.31-98.08" transform="translate(-761.48 -180)"/><polygon points="212.18 139 233.49 141.85 225.35 146.55 225.4 155.95 212.18 139"/><path class="cls-5" d="M973.67,313s78.85-55.35,12.31-98.08" transform="translate(-761.48 -180)"/><polygon points="212.18 28 233.49 30.85 225.35 35.55 225.4 44.95 212.18 28"/></svg>