<svg id="prefix__图层_1" data-name="图层 1" xmlns="http://www.w3.org/2000/svg" width="1400" height="787">
    <defs>
        <style>
            .prefix__cls-1 {
            fill: #141e27
            }

            .prefix__cls-3 {
            fill: #f8f9fa
            }

            .prefix__cls-4 {
            fill: #f7f8f9
            }

            .prefix__cls-9 {
            fill: #4e5a66
            }

            .prefix__cls-11 {
            fill: #4d5965
            }

            .prefix__cls-12 {
            fill: #4d5964
            }

            .prefix__cls-17 {
            fill: #1f2830
            }

            .prefix__cls-19 {
            fill: #1d262f
            }

            .prefix__cls-20 {
            fill: #212a31
            }

            .prefix__cls-21 {
            fill: #212a32
            }

            .prefix__cls-22 {
            fill: #202932
            }

            .prefix__cls-23 {
            fill: #1d262e
            }

            .prefix__cls-24 {
            fill: #1e272f
            }

            .prefix__cls-25 {
            fill: #1e2830
            }

            .prefix__cls-26 {
            fill: #222b33
            }

            .prefix__cls-27 {
            fill: #1c262e
            }

            .prefix__cls-28 {
            fill: #1f2831
            }

            .prefix__cls-29 {
            fill: #202931
            }

            .prefix__cls-30 {
            fill: #222a32
            }

            .prefix__cls-32 {
            fill: #232c34
            }

            .prefix__cls-34 {
            fill: #202831
            }

            .prefix__cls-35 {
            fill: #252d35
            }

            .prefix__cls-36 {
            fill: #1d272f
            }

            .prefix__cls-37 {
            fill: #212b33
            }

            .prefix__cls-39 {
            fill: #242c34
            }

            .prefix__cls-40 {
            fill: #1f2931
            }

            .prefix__cls-41 {
            fill: #232b33
            }

            .prefix__cls-46 {
            fill: #1e2730
            }

            .prefix__cls-50 {
            fill: #151f28
            }

            .prefix__cls-52 {
            fill: #17212a
            }
        </style>
    </defs>
    <path class="prefix__cls-1"
          d="M260.09 534q0-191.7-.09-383.41c0-3.75.84-4.59 4.59-4.59q695.42.15 1390.82 0c3.74 0 4.59.84 4.59 4.59q-.15 388.91 0 777.82c0 3.74-.84 4.59-4.59 4.59q-695.41-.15-1390.82 0c-3.74 0-4.59-.84-4.59-4.59q.17-195.21.09-390.41c1.06-1.33 1.49-2.67 0-4z"
          transform="translate(-260 -146)"/>
    <path d="M260.09 534c3.6 1.33 1.72 2.67 0 4z" transform="translate(-260 -146)" fill="#212a33"/>
    <path class="prefix__cls-3"
          d="M481 531.1v-26c0-2.22 0-3.83 3.05-3.75 7.16.2 14.35-.22 21.49.2 12.89.75 21.65 9 24.19 22.56a39.57 39.57 0 01-.84 18.81c-3.24 10.77-11.91 17.62-23.19 18-7.16.25-14.34 0-21.49.16-2.83.08-3.26-1.08-3.23-3.51.13-8.81.02-17.64.02-26.47zM1271.15 523.06c10.26-8.33 17-8 24.65 1.05 4.17-5 9.27-8.06 16.07-6.73 6.26 1.22 10.36 5.55 10.72 12.66.47 9.47.15 19 .26 28.47 0 2-.8 2.65-2.67 2.55a27.72 27.72 0 00-5 0c-3.13.4-4-.86-3.91-3.91.21-7.32.07-14.65.07-22 0-4.15-.74-7.78-5.88-8.22-4.5-.38-7.86 2.3-8.17 7.49a198.17 198.17 0 00-.13 22.47c.25 4.53-2.17 4.44-5.1 4.07-2.58-.33-6.64 2-6.31-3.86.41-7.14.13-14.32.09-21.48 0-6.09-2-8.66-6.5-8.71s-7.5 3-7.69 8.57c-.23 7.15-.26 14.33 0 21.48.11 3.36-1 4.5-4.24 4.07a21.73 21.73 0 00-4.49 0c-2.18.18-2.87-.72-2.85-2.88q.12-18.48 0-37c0-2.49 1-3.43 3.24-3 3.17.69 8.69-2.66 7.84 4.91zM791.69 522.8c1.3.17 1.53-1.1 2.23-1.71 6.48-5.72 14.53-5.43 20.33 1 1.39 1.55 1.94 2.2 3.61.27 4.67-5.41 10.69-6.72 17.17-4.08s8 8.36 8 14.76c0 8-.17 16 .08 24 .1 3.34-1 4.52-4.18 4a8.31 8.31 0 00-2.49 0c-3.57.57-5-.55-4.75-4.48.36-7 .15-14 .08-21 0-5.84-1.89-8.35-6.08-8.65-4.63-.32-7.86 2.46-8.16 8-.39 7.31-.33 14.65-.13 22 .09 3.26-.83 4.59-4.14 4.11a14.73 14.73 0 00-4 0c-2.74.35-3.35-.88-3.31-3.41.15-7.49.09-15 0-22.47 0-5.72-2-8.19-6.37-8.25s-7.54 3-7.68 8c-.2 7.32-.23 14.65 0 22 .1 3.26-.84 4.59-4.15 4.13a21.05 21.05 0 00-4.49 0c-2.08.15-3-.54-3-2.78.08-12.49.06-25 0-37.46 0-1.87.71-2.5 2.63-2.69 7.01-.62 8.11-.09 8.8 4.71zM983 531c0-8.66.11-17.31-.07-26-.05-2.84.81-3.7 3.64-3.67 12.15.14 24.31.29 36.45-.05 5.31-.14 3.6 3.25 3.94 5.89.43 3.33-.58 4.7-4.26 4.57-7.81-.29-15.64 0-23.46-.16-3.15-.08-4.3.66-4.26 4.09.11 9.27-.07 9.27 9 9.27 5 0 10 .35 15-.1 4.65-.43 4 2.34 4.1 5.17.14 3.19 0 5.28-4.31 5-6.63-.42-13.31 0-20-.16-2.71-.07-3.69.58-3.75 3.53-.26 12.59-.37 12.58 12.14 12.58 5.66 0 11.32.11 17 0 5-.12 2.58 3.57 2.9 5.65s1 4.59-3 4.51c-12.48-.22-25-.17-37.45 0-2.9 0-3.63-.88-3.58-3.67.09-8.82-.03-17.64-.03-26.45zM743.73 523.44c10.37-11.14 26.79-6.31 30.33 8a34.08 34.08 0 010 16.76c-3.83 15.19-21 18-30 8.5 0 5.47-.17 10.16.06 14.83.14 2.88-.83 3.92-3.64 3.56a16.64 16.64 0 00-4 0c-2.66.3-3.76-.47-3.73-3.46q.21-24.95 0-49.9c0-2.92 1-4.1 3.71-3.47 2.96.65 8.38-2.93 7.27 5.18zM644.9 542.91c-4.16 0-8.32.06-12.48 0-1.82 0-3 .32-2.35 2.48 1 3.55 2.88 6.44 6.56 7.53s8 1.38 10.54-2.14c3.27-4.5 7.58-1.86 11.39-2.41 1.5-.21 1 1.3.68 2.2a15.86 15.86 0 01-5.44 7.58c-7.47 5.85-20.53 5.51-27.88-.71-7.89-6.66-9.94-20-4.57-29.74a21 21 0 0124.9-9.6c8.44 2.63 15.6 14.17 14.39 22.94-.27 2-1.43 1.89-2.77 1.89zM1354.4 542.91c-4.33 0-8.66.05-13 0-2 0-2.78.47-2.07 2.6 1.22 3.67 3.13 6.64 7.16 7.58s7.69.78 10.42-2.75c3.11-4 7.33-1.5 11-1.9 1.38-.16.87 1.45.55 2.31a16.67 16.67 0 01-6.37 8.11c-12.62 8.49-30.17 1.75-33.78-13-4.29-17.47 9.35-32.19 26-28 9.17 2.29 16.6 13.43 15.6 23-.25 2.38-1.6 2.09-3.06 2.09-4.13-.03-8.29-.04-12.45-.04zM859.3 543.49c.69 4.49 2.5 8.25 7.33 9.52 4.29 1.13 8.24.72 11.11-3.34.89-1.27 9.75-2.17 10.79-1.24s.48 1.83.1 2.72a16 16 0 01-7.91 8.64c-8.3 3.89-16.62 3.77-24.11-1.63-8.05-5.79-9.85-14.38-8.12-23.6 2.2-11.79 12.2-18.87 23.57-17.31 10.65 1.46 18.32 11.38 18.06 22.91-.06 2.81-1.41 2.77-3.4 2.77-9 0-17.94.12-26.92.21-.11 0-.23.16-.5.35zM560.66 542.91c-4.32 0-8.65.07-13 0-2.15 0-2.51.71-1.9 2.66 1.15 3.75 3.17 6.6 7.16 7.52s7.59.68 10.41-2.79c1.35-1.66 9.31-3 11-1.9s.51 2.33 0 3.44c-3.42 8.25-14.42 12.54-24.78 9.71-12-3.31-18.3-15.81-14.55-29.12 3.27-11.63 14.86-17.87 26.69-14.37 8.56 2.53 15.52 13.73 14.45 22.82-.28 2.4-1.64 2-3.08 2-4.06.05-8.25.03-12.4.03zM1186.85 562.24c-13 .07-22.32-9.2-22.51-22.28s9.52-22.92 22.53-22.86c12.85.06 22.16 9.56 22.16 22.62s-9.21 22.46-22.18 22.52z"
          transform="translate(-260 -146)"/>
    <path class="prefix__cls-4"
          d="M906.61 523.83c5.81-6.72 12-8.38 18.83-5.46 7.09 3 8.89 9.28 8.72 16.49-.17 7.5-.13 15 0 22.49.05 2.66-.47 4.12-3.5 3.73a17.75 17.75 0 00-4.49 0c-2.73.34-3.36-.86-3.31-3.4.15-7.16.09-14.33 0-21.49 0-6.12-2.55-9.16-7.41-9.18s-8.42 3.5-8.6 9.07a158.29 158.29 0 000 19c.49 5.38-1.6 6.88-6.34 5.94-1.89-.37-5.19 1.78-5.2-2.46v-38c0-.84.05-2 .91-2.09 2.3-.26 4.66 0 7-.31 3.78-.49 3.32 2.28 3.39 5.67zM1225.66 523.75c5.5-6.54 11.68-8.28 18.55-5.45 7.12 2.93 9.06 9.11 8.9 16.34-.15 7-.39 14 .09 21 .33 4.83-1.51 5.51-5.79 5.62-4.62.11-5.91-1.26-5.63-5.77.4-6.46.15-13 .09-19.46 0-5.82-2.44-8.78-7.08-9-4.91-.21-8.7 3.26-8.89 8.72-.25 7.15-.25 14.31-.05 21.46.09 3.09-.91 4.64-3.88 3.77-2.56-.75-7.3 2.69-7.5-2.49-.46-12.46-.12-25-.18-37.44 0-2.15.85-3.26 2.93-2.8 3.2.68 8.66-2.9 8.44 5.5z"
          transform="translate(-260 -146)"/>
    <path class="prefix__cls-3"
          d="M705.21 562.25c-13 0-22.28-9.24-22.35-22.32-.07-13.33 9.33-22.89 22.44-22.83 12.81.06 22.18 9.64 22.16 22.66s-9.32 22.46-22.25 22.49z"
          transform="translate(-260 -146)"/>
    <path
            d="M1385.83 524.26c3.06-3.12 5-5.16 7.68-6.19 9.57-3.65 19.59 2.38 20.23 12.81.56 9.12.11 18.31.25 27.47 0 2.31-.94 2.87-3 2.71a18.35 18.35 0 00-4 0c-3.44.52-4.6-.66-4.44-4.27.31-7 .15-14 0-21-.09-5.87-2.54-8.72-7.26-8.82s-8.39 3.16-8.64 8.44c-.33 7.15-.3 14.32-.12 21.48.08 3.2-.77 4.66-4.16 4.16a19.83 19.83 0 00-4.49 0c-2.09.16-2.94-.57-2.92-2.8q.12-18.48 0-37c0-2.37.75-3.38 3.15-3.14a12.67 12.67 0 003.48 0c4.02-.68 5.22 1.14 4.24 6.15z"
            transform="translate(-260 -146)" fill="#f7f9fa"/>
    <path class="prefix__cls-3"
          d="M1044.66 523.84c3.23-2.94 5.49-5.3 8.87-6.18 8.88-2.34 17.14 2.53 18.54 11.7 1.49 9.73.32 19.6.6 29.41 0 1.75-.84 2.12-2.42 2.31-8.63 1.07-9.11.69-9.11-8.1v-17c0-5.68-2.06-8.55-6.45-9-4.88-.47-8.88 2.77-9.43 8.22-.41 4.12-.15 8.31-.17 12.47a50.41 50.41 0 00.06 7.48c.7 4.78-.94 6.08-5.82 6-4.73 0-5.68-1.48-5.56-5.85.3-11 .26-22 0-32.95-.08-3.61 1.09-4.8 4.5-4.27 3.13.58 8.33-2.08 6.39 5.76zM577.92 518.49c10.51-1 10.51-1 13.54 8.82 1.95 6.29 3.92 12.58 6.07 19.47 2.78-8.86 5.34-17.1 8-25.33.84-2.63 9.62-4.94 11.42-3 .76.82.22 1.91-.1 2.83-4.3 12.4-8.69 24.78-12.89 37.21-.86 2.55-2.59 2.92-4.61 2.47-2.66-.58-6.47 2.08-7.9-1.93-4.7-13.14-9.11-26.38-13.61-39.6-.14-.25.03-.62.08-.94zM1095.55 546.74c2.54-8 5.28-15.27 7.11-22.79 1.19-4.89 3.58-6.51 8.25-5.8a36.45 36.45 0 005 0c-4.86 14-9.45 27.47-14.26 40.88-1.35 3.79-4.9 1.51-7.43 1.89-1.79.27-3.93.76-4.87-2-4.33-12.74-8.79-25.43-13.22-38.14-.68-2 0-2.5 2-2.67 8.28-.69 8.36-.7 10.86 7.48 2.12 6.84 4.24 13.66 6.56 21.15z"
          transform="translate(-260 -146)"/>
    <path
            d="M956.15 561.07c-9.11-.08-12.23-3.21-12.25-12.31v-19.45c0-1.92.17-3.88-2.68-3.44-3.29.51-3.3-1.47-3.33-3.87s.23-4.3 3.4-3.83c2.4.36 2.73-1.12 2.61-3-.09-1.49.15-3 0-4.49-.59-4.28.66-5.83 5.46-5.9 5.15-.07 6.13 1.71 5.72 6.23-.34 3.63-1.65 8.3 5.28 7.36 2.9-.4 1.62 2.62 1.8 4.17s.38 3.8-2.25 3.29c-5.23-1-5.06 2.12-5 5.71.16 5.48.08 11 0 16.45 0 2.47.81 4.76 3.38 4.59 5.4-.35 4.28 3.24 4.15 6.16-.2 4-3.48 1.71-5.33 2.35a3 3 0 01-.96-.02z"
            transform="translate(-260 -146)" fill="#f7f8fa"/>
    <path class="prefix__cls-4"
          d="M1423.63 540.26c0-3-.06-6 0-9s.68-6-4.29-5.6c-2.8.22-1.37-2.78-1.59-4.33s-.39-3.43 2-3.09c4.3.62 4.06-2.08 3.9-4.88a20.64 20.64 0 000-2.49c-.82-4.66.76-6.24 5.75-6.11 4.39.12 5.85 1.12 5.45 5.56-.35 3.87-1.9 8.93 5.65 8.11 2.64-.28 1.13 3.17 1.48 4.9.38 1.95-.73 2.83-2.59 2.49-4.23-.79-4.88 1.35-4.71 5 .26 5.48.16 11 0 16.48-.08 3.39 1 5.54 4.73 5.48 4.64-.07 2.24 3.42 2.68 5.38.58 2.56-1 3.07-3.2 2.94-2.48-.16-5.05.15-7.46-.34-4.77-1-7.63-3.9-7.72-9-.07-3.82 0-7.65 0-11.48zM677.28 531.35c0 8.63-.14 17.27.07 25.9.07 3.08-.8 4.26-3.89 3.83a21.63 21.63 0 00-4.48 0c-2 .14-3-.39-3-2.7q.12-27.15 0-54.3c0-1.93.67-2.76 2.59-2.65a19.6 19.6 0 004 0c3.62-.52 4.93.66 4.78 4.55-.3 8.42-.07 16.9-.07 25.37z"
          transform="translate(-260 -146)"/>
    <path
            d="M1149.49 524.59c3.08-4 5.73-6.81 10.22-6.77 2.32 0 3.22.68 3.19 3.12-.05 3.95.81 7.45-5.55 7.69-4.93.18-7.26 4.87-7.41 9.81-.18 6.14-.24 12.3 0 18.43.1 3.12-.61 4.72-4.06 4.21a21.54 21.54 0 00-4.47 0c-2 .14-3-.39-3-2.7q.11-18.69 0-37.37c0-2.17.88-2.73 3-2.86 7.5-.51 7.69-.47 8.08 6.44z"
            transform="translate(-260 -146)" fill="#f6f7f9"/>
    <path class="prefix__cls-4"
          d="M1119.85 539.7c0-5.83.21-11.67-.08-17.49-.17-3.42 1.09-4.44 4.26-4.05a24 24 0 004.49 0c2-.14 2.56.83 2.55 2.68 0 12.5-.07 25 0 37.49 0 2.3-.92 2.88-3 2.72a21.15 21.15 0 00-4.5 0c-3.16.46-4-.85-3.85-3.88.28-5.8.13-11.63.13-17.47z"
          transform="translate(-260 -146)"/>
    <path
            d="M835.88 439.9c0-4.58 1.16-8.59 5.71-10.7 4.23-1.95 8.49-2 12.14 1.13 3.81 3.31 4.94 7.63 3.87 12.63-.54 2.52-3.21 4.72-.91 7.84.75 1-.91 2.18-2.07 1.05-1.65-1.59-3.31-1-5.08-.7-8.09 1.52-13.63-3.05-13.66-11.25z"
            transform="translate(-260 -146)" fill="#4f5b67"/>
    <path class="prefix__cls-9"
          d="M1030 445v4c0 .84-.72 2.19-1.21 1.73-3.17-3-5.42.76-8.13.92a10.78 10.78 0 01-10.54-6.84c-2-5.51-.42-11.87 3.7-14.91 3.56-2.63 9.75-2.58 13.07.24 1.34 1.14 3.24 2.78 1.93 4.45-1.08 1.37-2.93.34-4.19-1.1-2.37-2.71-5.14-2.73-8-.65s-3.86 7.59-2.07 11.44c1.38 3 3.81 4.07 6.93 3.66a4.5 4.5 0 004.19-3.71c.41-2.4-1.7-1.89-3-2.17-.9-.18-1.58-.64-1.47-1.63s1-1.14 1.82-1.34c5.36-1.3 7.05.1 6.97 5.91zM937 428c2.83-.11 5.34.6 7.17 2.82.78.95 2 2.17.73 3.44-1.16 1.13-2.53.62-3.43-.59-1.42-1.92-3.21-2.88-5.58-2.37-1.32.29-2.58.9-2.77 2.48s.94 2.41 2.26 2.85c2.51.84 5.21 1.26 7.55 2.42 4.6 2.28 5 7.26 1.12 10.56s-11.75 2.47-14.75-1.75c-.75-1-2-2.29-.45-3.42a2.31 2.31 0 013.48.74c1.35 2.34 3.29 3.08 5.84 2.9 1.77-.13 3.38-.47 3.75-2.52s-.8-3.15-2.53-3.72c-1.25-.42-2.58-.6-3.85-.93-3.78-1-7.09-2.55-6.55-7.29s4.24-5.38 8.01-5.62z"
          transform="translate(-260 -146)"/>
    <path
            d="M1074.05 439.63v3.49c0 6.89-3 9.5-9.74 8.4-4-.65-6.85-5.51-6-10.09 1-5 4.38-8.08 8.53-6.76 3.24 1 3.26-.22 3.24-2.61 0-1.51-.64-3.78 2-3.73s1.87 2.29 1.93 3.81c.11 2.49.04 4.99.04 7.49z"
            transform="translate(-260 -146)" fill="#4e5965"/>
    <path class="prefix__cls-11"
          d="M1085 451.61a8.46 8.46 0 01-8-7.54c-.52-4.43 2.57-9.13 6.78-9.71s7 1.48 8.52 5.36c1.18 3 .41 4.47-3 4.29a24.93 24.93 0 00-4.49 0c-1.25.15-3.44-.89-3.37 1.56.06 2 1.85 2.58 3.6 2.8a12.7 12.7 0 001.46-.19c1.77 0 4-4.2 5-.49.7 2.65-3.11 3.23-5.54 3.75-.26.11-.59.13-.96.17z"
          transform="translate(-260 -146)"/>
    <path class="prefix__cls-12"
          d="M975 444.12c0 1.34.06 2.67 0 4a4.28 4.28 0 01-.61 2.33c-1 1.23-11.61.55-12.76-.68-2.29-2.48-1.51-5.95 1.79-7.3a35.11 35.11 0 014.82-1.24c1.45-.36 3.34-.57 2.33-2.76-.75-1.64-2.37-1.57-3.91-1a2.06 2.06 0 00-.44.23c-1.41.95-3 4.14-4.42 1.07-1-2.09 2.09-3.38 4.13-4.09 5.83-2.1 9.07 1.25 9.07 9.44z"
          transform="translate(-260 -146)"/>
    <path class="prefix__cls-9"
          d="M907.74 439.65c3.49-.74 4.35-5.81 9.59-3.95-6.73 3.76-4 7.55-1 11.47.71.91 2.25 2.3.81 3.38-1.61 1.21-3.12.17-4.07-1.48-.34-.58-.62-1.19-1-1.73-.83-1.16-1.25-3.1-3.05-2.82-1.59.25-1.27 2.12-1.68 3.31s0 3.07-1.94 2.89-1.47-2-1.48-3.18v-16.48c0-1.16 0-2.6 1.56-2.63s1.57 1.38 1.67 2.55c.25 2.77-.46 5.61.59 8.67z"
          transform="translate(-260 -146)"/>
    <path class="prefix__cls-11"
          d="M875.08 443c0 7.76-2.41 9.66-10.17 8.07-2.23-.46-3.66-1.77-3.81-4-.21-3.14-.12-6.29-.11-9.44 0-1.19.17-2.41 1.73-2.52 1.86-.13 2.14 1.19 2.17 2.61.05 2.32 0 4.64.08 7 0 1.89.83 3.22 2.92 3.24s3-1.2 3.14-3.11c.12-2.31.05-4.63.11-6.95 0-1.35.15-2.81 2-2.74s1.85 1.56 1.88 2.88c.09 1.65.05 3.31.06 4.96z"
          transform="translate(-260 -146)"/>
    <path class="prefix__cls-9"
          d="M1048 443c0 7.78-2.37 9.69-10.16 8.09-2.22-.46-3.65-1.77-3.79-4-.19-3.14-.11-6.3-.1-9.46 0-1.21.24-2.41 1.8-2.47 1.9-.07 2 1.34 2.09 2.72v7c0 1.91.67 3.26 2.88 3.17a3 3 0 003.21-3.1c.13-2.49.08-5 .14-7.47 0-1.27.42-2.32 2-2.3s1.88 1.12 1.9 2.37c.03 1.77.03 3.6.03 5.45z"
          transform="translate(-260 -146)"/>
    <path class="prefix__cls-12"
          d="M894.36 451.56c-4.91-.22-7.47-2.3-8.57-6.41s.08-7.34 3.48-9.53c3-1.93 6.32-2.17 9.24.43 1 .91 2.83 2 1.53 3.54-.92 1.11-2.46.38-3.49-.68-2-2.05-4-2.39-5.88.06-2 2.73-2.21 5.73.29 8.16 1.75 1.71 4 1.51 5.7-.48 1.1-1.3 2.43-2.35 3.7-.92s-.33 2.71-1.3 3.77a7.32 7.32 0 01-4.7 2.06z"
          transform="translate(-260 -146)"/>
    <path d="M1125.56 513.31c-3.89-.15-6.32-2.17-6.41-6s2.26-6.16 6.15-6.25 6.34 2.19 6.42 6-2.2 6-6.16 6.25z"
          transform="translate(-260 -146)" fill="#f4f5f6"/>
    <path class="prefix__cls-9"
          d="M958.21 436.14c-4.56 1.84-3 5.36-3.2 8.3-.08 1.12-.22 2.39.9 3.19s2.86 1.25 1.35 2.84c-1.1 1.15-2.86.76-4.24.15-.66-.3-1.53-1.2-1.52-1.82.09-5.49-2.22-10.89-.5-16.44.36-1.17.44-2.32 2-2.31s2 1.09 1.93 2.33c-.14 2.03 1.76 2.51 3.28 3.76zM999.35 435.86c-4.34 2-3.28 5.35-3.32 8.33 0 1.27-.31 2.75 1.12 3.57 1 .59 2.32 1.22 1.35 2.55s-2.43.82-3.7.48-2.37-1.24-2.33-2.34c.22-5.47-2.33-10.87-.41-16.39.35-1 .52-1.92 1.77-2a1.81 1.81 0 012.12 2.11c-.1 1.97 1.31 2.83 3.4 3.69z"
          transform="translate(-260 -146)"/>
    <path
            d="M978.11 442.84v-5c0-2.34 1.07-3.73 3.33-2.37 1.35.82 2 .35 3-.19s2.56-1.43 3.26.49c.54 1.47-.53 2-1.77 2.37-3.93 1.19-3.79 4.42-3.93 7.65-.08 1.75 1.13 4.74-1.69 4.9-3.5.2-1.84-3.08-2.21-4.91a14.72 14.72 0 01.01-2.94z"
            transform="translate(-260 -146)" fill="#4c5863"/>
    <path
            d="M882.89 443.07v5.44c0 1.24-.37 2.31-1.9 2.35s-2-1-2-2.24q-.06-5.44 0-10.88c0-1.4.27-2.74 2.14-2.6 1.52.11 1.76 1.28 1.78 2.49.01 1.81-.02 3.63-.02 5.44z"
            transform="translate(-260 -146)" fill="#4b5763"/>
    <path
            d="M1051.94 443.11v-5.93c0-1.05.45-2 1.68-2.05a1.85 1.85 0 012.17 2.07v11.37c0 1.24-.41 2.31-2 2.3s-1.91-1.06-1.93-2.32v-5.44z"
            transform="translate(-260 -146)" fill="#4b5762"/>
    <path class="prefix__cls-17"
          d="M1534.54 535.89a1.89 1.89 0 01-1.93 1.88 2.15 2.15 0 01-2.46-2.38 1.74 1.74 0 011.76-1.94c1.48.05 2.25 1.11 2.63 2.44z"
          transform="translate(-260 -146)"/>
    <path
            d="M1506.65 610.17c1.09.2 2 .78 1.85 1.94s-.92 2.33-2.28 2.1a2.1 2.1 0 01-1.84-2.54c.21-1.11 1.14-1.54 2.27-1.5z"
            transform="translate(-260 -146)" fill="#1f2730"/>
    <path class="prefix__cls-19"
          d="M1480.88 614.31a2.39 2.39 0 01-2.52-2.21c-.12-1.15.76-1.8 1.87-1.91a1.91 1.91 0 012.26 1.49c.29 1.41-.87 1.98-1.61 2.63z"
          transform="translate(-260 -146)"/>
    <path class="prefix__cls-20"
          d="M286.09 562.81c-1.46 0-2.39-.44-2.55-1.58a2.11 2.11 0 011.91-2.49c1.32-.14 2.11 1 2.22 2.19s-.97 1.56-1.58 1.88z"
          transform="translate(-260 -146)"/>
    <path class="prefix__cls-17"
          d="M1506.19 511.82c-1-.19-2-.72-1.84-1.9s.91-2.33 2.24-2.15a2.11 2.11 0 011.89 2.5c-.18 1.14-1.12 1.56-2.29 1.55z"
          transform="translate(-260 -146)"/>
    <path class="prefix__cls-21"
          d="M285.35 511.82c-1-.19-1.94-.72-1.83-1.9s.9-2.33 2.24-2.16a2.12 2.12 0 011.88 2.51c-.18 1.13-1.11 1.56-2.29 1.55zM285.82 614.3a2.31 2.31 0 01-2.3-2.2c-.12-1.15.76-1.8 1.86-1.91a1.91 1.91 0 012.26 1.5c.26 1.31-.71 2.09-1.82 2.61z"
          transform="translate(-260 -146)"/>
    <path class="prefix__cls-22"
          d="M1557.92 588.62a1.94 1.94 0 01-1.8-2.06c0-1.3.65-2.33 2.12-2.12a2.13 2.13 0 012 2c-.05 1.27-1.06 1.96-2.32 2.18z"
          transform="translate(-260 -146)"/>
    <path class="prefix__cls-17"
          d="M311 584.29c1.41.41 2.49 1 2.39 2.37a2.15 2.15 0 01-2 1.9c-1.43.11-2.06-.91-2-2.25a2.24 2.24 0 011.61-2.02zM1534.56 560.78a1.93 1.93 0 01-1.86 2c-1.35.13-2.37-.48-2.36-1.9a2.16 2.16 0 011.82-2.11c1.43-.23 1.95.93 2.4 2.01z"
          transform="translate(-260 -146)"/>
    <path class="prefix__cls-23"
          d="M1609.76 326.47a1.85 1.85 0 011.93 1.76 1.9 1.9 0 01-1.35 2.31c-1.44.35-2.12-.64-2.22-1.91a2 2 0 011.64-2.16z"
          transform="translate(-260 -146)"/>
    <path class="prefix__cls-19"
          d="M1636.05 326.47a1.94 1.94 0 011.66 2.14c-.09 1.28-.78 2.27-2.21 1.93a1.87 1.87 0 01-1.36-2.29 1.84 1.84 0 011.91-1.78z"
          transform="translate(-260 -146)"/>
    <path class="prefix__cls-22"
          d="M1534.51 484a1.91 1.91 0 01-2 1.77c-1.3 0-2.3-.69-2.08-2.11a1.86 1.86 0 012.21-1.48 1.89 1.89 0 011.87 1.82z"
          transform="translate(-260 -146)"/>
    <path class="prefix__cls-19"
          d="M1559.75 354.46c-.06 1.08-.5 2-1.63 2.11-1.44.12-2-.9-2-2.19a1.76 1.76 0 011.83-1.89c1.21.02 1.63.92 1.8 1.97zM1583.89 356.63a1.91 1.91 0 01-1.77-2c0-1.3.69-2.3 2.11-2.08a1.86 1.86 0 011.48 2.21 1.9 1.9 0 01-1.82 1.87z"
          transform="translate(-260 -146)"/>
    <path class="prefix__cls-24"
          d="M1611.75 354.48c-.09 1.08-.52 2-1.66 2.09-1.45.1-2-.92-1.95-2.21a1.76 1.76 0 011.84-1.87c1.18.04 1.61.95 1.77 1.99z"
          transform="translate(-260 -146)"/>
    <path class="prefix__cls-25"
          d="M1635.75 352.46a1.85 1.85 0 011.93 1.77 1.87 1.87 0 01-1.34 2.3c-1.45.36-2.12-.63-2.22-1.91a2 2 0 011.63-2.16zM285.73 378.22c1 .19 1.92.64 1.9 1.84a1.77 1.77 0 01-1.94 1.77c-1.3 0-2.31-.62-2.13-2.05.13-1.09 1.07-1.55 2.17-1.56z"
          transform="translate(-260 -146)"/>
    <path class="prefix__cls-17"
          d="M285.62 688.13c1.05.15 2 .57 2 1.75a1.74 1.74 0 01-1.84 1.86c-1.29.08-2.32-.48-2.24-1.93.07-1.15 1.01-1.58 2.08-1.68z"
          transform="translate(-260 -146)"/>
    <path class="prefix__cls-26"
          d="M1585.72 535.18c.09 1.2-.38 2.13-1.44 2.34-1.43.27-2.12-.74-2.16-2a1.82 1.82 0 011.69-2c1.19-.16 1.69.69 1.91 1.66z"
          transform="translate(-260 -146)"/>
    <path class="prefix__cls-19"
          d="M1507 691.75c-1.49.06-2.43-.42-2.59-1.49-.21-1.42.8-2.09 2.09-2.09a1.81 1.81 0 012 1.73c.05 1.24-.97 1.54-1.5 1.85z"
          transform="translate(-260 -146)"/>
    <path class="prefix__cls-23"
          d="M1506.1 378.25c1.2-.09 2.14.38 2.34 1.43.27 1.43-.73 2.12-2 2.16a1.83 1.83 0 01-2-1.68c-.16-1.16.7-1.69 1.66-1.91z"
          transform="translate(-260 -146)"/>
    <path class="prefix__cls-24"
          d="M285.26 714.16c1.21-.09 2.14.39 2.34 1.44.27 1.42-.73 2.12-2 2.16a1.82 1.82 0 01-2-1.68c-.15-1.2.7-1.7 1.66-1.92z"
          transform="translate(-260 -146)"/>
    <path class="prefix__cls-27"
          d="M1505.81 714.19c1.49-.11 2.43.36 2.63 1.41.27 1.43-.73 2.12-2 2.16a1.84 1.84 0 01-2-1.68c-.18-1.24.83-1.57 1.37-1.89z"
          transform="translate(-260 -146)"/>
    <path class="prefix__cls-24"
          d="M1532.19 714.15c1.17 0 2.11.44 2.25 1.53.2 1.43-.81 2.08-2.1 2.07a1.79 1.79 0 01-2-1.75c0-1.2.87-1.66 1.85-1.85z"
          transform="translate(-260 -146)"/>
    <path class="prefix__cls-23"
          d="M287.67 741.79a1.85 1.85 0 01-1.76 1.93 1.88 1.88 0 01-2.31-1.34c-.35-1.45.63-2.12 1.91-2.22a2 2 0 012.16 1.63z"
          transform="translate(-260 -146)"/>
    <path class="prefix__cls-27"
          d="M1610.11 769.54a1.91 1.91 0 01-2-1.85 1.87 1.87 0 011.43-2.25c1.42-.28 2.11.72 2.16 2a2 2 0 01-1.59 2.1z"
          transform="translate(-260 -146)"/>
    <path class="prefix__cls-28" d="M287.67 406a2.1 2.1 0 01-4.09.42c-.28-1.42.73-2.12 2-2.16a1.93 1.93 0 012.09 1.74z"
          transform="translate(-260 -146)"/>
    <path class="prefix__cls-21"
          d="M1560.32 509.65c-.28 1.17-.72 2.24-2.17 2.13a1.75 1.75 0 01-1.82-1.86 2.2 2.2 0 012.15-2.2c1.07-.01 1.62.9 1.84 1.93z"
          transform="translate(-260 -146)"/>
    <path class="prefix__cls-29"
          d="M1532.29 507.61c1.22.3 2 1 2 2s-.65 2.24-2.08 2.15a1.76 1.76 0 01-1.85-1.84 2.74 2.74 0 011.93-2.31zM337.33 537.59a2.1 2.1 0 01-.69-4.06c1.44-.38 2.13.59 2.24 1.87a2 2 0 01-1.55 2.19z"
          transform="translate(-260 -146)"/>
    <path class="prefix__cls-28"
          d="M362.85 533.38c1.49.24 2 1 2 2.1 0 1.29-.72 2.3-2.13 2a1.91 1.91 0 01-1.46-2.24 2.17 2.17 0 011.59-1.86z"
          transform="translate(-260 -146)"/>
    <path class="prefix__cls-24"
          d="M1506.35 404.18c1.16.17 2.06.59 2.12 1.77a1.74 1.74 0 01-1.84 1.86c-1.29.08-2.33-.48-2.25-1.94.07-1.15 1.05-1.53 1.97-1.69z"
          transform="translate(-260 -146)"/>
    <path class="prefix__cls-17"
          d="M1534.51 406a1.86 1.86 0 01-1.92 1.8c-1.3.05-2.32-.55-2.19-2a1.83 1.83 0 012.11-1.6 1.91 1.91 0 012 1.8z"
          transform="translate(-260 -146)"/>
    <path class="prefix__cls-23"
          d="M1585.74 328.68c-.19 1.05-.64 1.93-1.84 1.91a1.77 1.77 0 01-1.77-1.94c0-1.3.62-2.31 2-2.13 1.13.13 1.58 1.08 1.61 2.16z"
          transform="translate(-260 -146)"/>
    <path class="prefix__cls-24"
          d="M388.92 533.42a1.85 1.85 0 011.93 1.77 1.88 1.88 0 01-1.35 2.3c-1.44.35-2.12-.63-2.22-1.91a2 2 0 011.64-2.16z"
          transform="translate(-260 -146)"/>
    <path class="prefix__cls-23"
          d="M415.21 533.42a2 2 0 011.66 2.14c-.09 1.28-.77 2.27-2.21 1.93a1.88 1.88 0 01-1.36-2.29 1.86 1.86 0 011.91-1.78z"
          transform="translate(-260 -146)"/>
    <path class="prefix__cls-30"
          d="M1560.29 535.54a2.53 2.53 0 01-2.38 2 1.75 1.75 0 01-1.77-1.9 1.94 1.94 0 012.22-2c1.08.04 1.64.85 1.93 1.9z"
          transform="translate(-260 -146)"/>
    <path d="M1055.63 430a2.23 2.23 0 01-2.08 2.31 1.79 1.79 0 01-1.92-1.82 2 2 0 114-.49z"
          transform="translate(-260 -146)" fill="#46525d"/>
    <path class="prefix__cls-22"
          d="M287.69 431.8a1.91 1.91 0 01-1.94 2c-1.29.05-2.32-.54-2.19-2a1.85 1.85 0 012.12-1.6 2 2 0 012.01 1.6z"
          transform="translate(-260 -146)"/>
    <path class="prefix__cls-29"
          d="M313.66 432.08a1.91 1.91 0 01-2.05 1.75c-1.3 0-2.3-.72-2.05-2.14a2.11 2.11 0 014.1.39z"
          transform="translate(-260 -146)"/>
    <path class="prefix__cls-17"
          d="M363.1 588.57a1.83 1.83 0 01-1.8-1.92c-.05-1.29.54-2.32 2-2.19a1.82 1.82 0 011.59 2.11 1.89 1.89 0 01-1.79 2z"
          transform="translate(-260 -146)"/>
    <path class="prefix__cls-32"
          d="M1611.76 535.53c-.15 1.06-.57 2-1.75 2a1.74 1.74 0 01-1.87-1.84c-.08-1.29.48-2.32 1.94-2.24 1.15.07 1.58 1.01 1.68 2.08z"
          transform="translate(-260 -146)"/>
    <path d="M1635.89 537.59a1.91 1.91 0 01-1.78-2c0-1.3.69-2.3 2.11-2.08a2.11 2.11 0 01-.33 4.11z"
          transform="translate(-260 -146)" fill="#252e35"/>
    <path class="prefix__cls-28"
          d="M339 510c-.12 1.12-.6 1.91-1.86 1.7a2 2 0 01-1.82-2 1.88 1.88 0 012.27-2c1.12.16 1.41 1.3 1.41 2.3z"
          transform="translate(-260 -146)"/>
    <path class="prefix__cls-29"
          d="M313.47 509.53c-.16 1.23-.64 2.26-2 2.26a1.77 1.77 0 01-1.94-1.74 2.23 2.23 0 012-2.34c1.01-.1 1.7.76 1.94 1.82z"
          transform="translate(-260 -146)"/>
    <path class="prefix__cls-17" d="M1508.51 432a2.1 2.1 0 01-4.09.42c-.28-1.42.73-2.12 2-2.16a1.93 1.93 0 012.09 1.74z"
          transform="translate(-260 -146)"/>
    <path class="prefix__cls-34"
          d="M1534.51 431.82a1.9 1.9 0 01-1.85 2 1.87 1.87 0 01-2.25-1.43c-.27-1.42.73-2.11 2-2.16a2 2 0 012.1 1.59z"
          transform="translate(-260 -146)"/>
    <path class="prefix__cls-20"
          d="M313.44 560.44a2.45 2.45 0 01-2.27 2.14 1.75 1.75 0 01-1.86-1.82c-.11-1.45.95-2 2.13-2.11a2 2 0 012 1.79z"
          transform="translate(-260 -146)"/>
    <path class="prefix__cls-29"
          d="M338.88 560.17c.09 1.2-.38 2.14-1.44 2.34-1.42.27-2.12-.73-2.15-2a1.82 1.82 0 011.68-2c1.2-.16 1.7.7 1.91 1.66z"
          transform="translate(-260 -146)"/>
    <path class="prefix__cls-21"
          d="M1558.19 558.57c1.17.26 2.07.85 2 1.91a2.21 2.21 0 01-2.25 2.11 1.77 1.77 0 01-1.82-1.87c-.06-1.46 1.08-1.81 2.07-2.15z"
          transform="translate(-260 -146)"/>
    <path class="prefix__cls-32"
          d="M1611.76 560.53c-.15 1.05-.57 2-1.75 2a1.75 1.75 0 01-1.87-1.84c-.08-1.29.48-2.33 1.94-2.24 1.14.07 1.58 1.01 1.68 2.08z"
          transform="translate(-260 -146)"/>
    <path class="prefix__cls-35"
          d="M1637.71 560.81c-.2 1-.7 1.81-1.89 1.73a1.81 1.81 0 01-1.71-2c0-1.29.72-2.3 2.13-2 1.06.12 1.55 1.05 1.47 2.27z"
          transform="translate(-260 -146)"/>
    <path class="prefix__cls-17"
          d="M337.15 588.57a2.1 2.1 0 01-.42-4.09c1.43-.28 2.12.73 2.16 2a1.93 1.93 0 01-1.74 2.09z"
          transform="translate(-260 -146)"/>
    <path class="prefix__cls-20"
          d="M287.67 458.15a2 2 0 01-2.14 1.67c-1.28-.09-2.27-.78-1.93-2.21a1.88 1.88 0 012.29-1.37 1.86 1.86 0 011.78 1.91z"
          transform="translate(-260 -146)"/>
    <path class="prefix__cls-24"
          d="M389.28 588.58a1.92 1.92 0 01-2-1.85 1.87 1.87 0 011.43-2.25c1.43-.28 2.12.73 2.16 2a2 2 0 01-1.59 2.1z"
          transform="translate(-260 -146)"/>
    <path class="prefix__cls-23"
          d="M415.07 584.41a1.85 1.85 0 011.79 2c0 1.29-.58 2.31-2 2.16a1.84 1.84 0 01-1.57-2.14 1.89 1.89 0 011.78-2.02z"
          transform="translate(-260 -146)"/>
    <path class="prefix__cls-27"
          d="M1430.75 586.63c-.18 1-.63 1.92-1.83 1.9a1.77 1.77 0 01-1.77-1.94c0-1.3.61-2.31 2-2.13 1.14.13 1.6 1.06 1.6 2.17z"
          transform="translate(-260 -146)"/>
    <path class="prefix__cls-36"
          d="M1454.9 588.57a1.89 1.89 0 01-1.77-2c0-1.29.69-2.3 2.11-2.07a2.11 2.11 0 01-.34 4.1z"
          transform="translate(-260 -146)"/>
    <path class="prefix__cls-37"
          d="M1584.11 588.58a1.86 1.86 0 01-2-1.75 1.89 1.89 0 011.32-2.32c1.44-.37 2.13.6 2.25 1.88a2 2 0 01-1.57 2.19z"
          transform="translate(-260 -146)"/>
    <path
            d="M1611.72 586.16c.09 1.21-.39 2.14-1.45 2.34-1.42.27-2.12-.73-2.16-2a1.83 1.83 0 011.69-2c1.2-.16 1.7.7 1.92 1.66z"
            transform="translate(-260 -146)" fill="#222b34"/>
    <path class="prefix__cls-39"
          d="M1637.71 586.16c.09 1.2-.38 2.14-1.44 2.34-1.43.27-2.12-.73-2.16-2a1.83 1.83 0 011.68-2c1.21-.16 1.7.69 1.92 1.66z"
          transform="translate(-260 -146)"/>
    <path class="prefix__cls-17"
          d="M1508.52 457.82a1.9 1.9 0 01-1.85 2 1.87 1.87 0 01-2.25-1.43c-.28-1.42.72-2.11 2-2.16a2 2 0 012.1 1.59z"
          transform="translate(-260 -146)"/>
    <path class="prefix__cls-29" d="M1534.52 458.12a2 2 0 01-2.13 1.7c-1.28-.07-2.27-.76-2-2.19a2.11 2.11 0 014.09.49z"
          transform="translate(-260 -146)"/>
    <path class="prefix__cls-21"
          d="M311.11 610.15c1.68.11 2.31 1 2.31 2.26a1.8 1.8 0 01-1.85 1.86 2.22 2.22 0 01-2.08-2.28c-.05-1.19.98-1.51 1.62-1.84z"
          transform="translate(-260 -146)"/>
    <path class="prefix__cls-17"
          d="M1532.51 665.8c-1.09-.06-2-.5-2.11-1.63-.13-1.44.89-2 2.19-2a1.76 1.76 0 011.88 1.82c-.02 1.22-.92 1.64-1.96 1.81z"
          transform="translate(-260 -146)"/>
    <path class="prefix__cls-40"
          d="M1532.23 610.12a2.14 2.14 0 012 2.43 1.75 1.75 0 01-2 1.71 2.22 2.22 0 01-1.93-2.41c.11-1.17 1.09-1.49 1.93-1.73z"
          transform="translate(-260 -146)"/>
    <path class="prefix__cls-29"
          d="M285.53 636.15c1.08.08 2 .51 2.09 1.65.1 1.45-.92 2-2.22 2a1.76 1.76 0 01-1.86-1.85c.04-1.22.95-1.64 1.99-1.8z"
          transform="translate(-260 -146)"/>
    <path class="prefix__cls-21"
          d="M287.71 483.77c-.21 1.48-1 2-2.06 2-1.3 0-2.3-.69-2.08-2.11a1.88 1.88 0 012.21-1.49 2.15 2.15 0 011.93 1.6z"
          transform="translate(-260 -146)"/>
    <path class="prefix__cls-29"
          d="M311.86 485.81c-1.2 0-2.14-.43-2.3-1.5-.21-1.42.79-2.1 2.09-2.1a1.8 1.8 0 012 1.74c.03 1.19-.82 1.67-1.79 1.86z"
          transform="translate(-260 -146)"/>
    <path class="prefix__cls-17" d="M313.67 690a1.9 1.9 0 01-2 1.77c-1.29 0-2.3-.68-2.08-2.1a2.11 2.11 0 014.11.33z"
          transform="translate(-260 -146)"/>
    <path class="prefix__cls-25"
          d="M1508.51 638.12a2 2 0 01-2.14 1.66c-1.29-.09-2.27-.78-1.93-2.21a2.1 2.1 0 014.07.55z"
          transform="translate(-260 -146)"/>
    <path class="prefix__cls-40"
          d="M287.67 663.81a1.85 1.85 0 01-1.76 1.94 1.9 1.9 0 01-2.31-1.35c-.35-1.45.63-2.12 1.91-2.22a1.94 1.94 0 012.16 1.63z"
          transform="translate(-260 -146)"/>
    <path class="prefix__cls-36"
          d="M1482.52 663.78a1.86 1.86 0 01-1.74 2 1.88 1.88 0 01-2.32-1.32c-.38-1.44.59-2.12 1.87-2.24a2 2 0 012.19 1.56z"
          transform="translate(-260 -146)"/>
    <path class="prefix__cls-24"
          d="M1508.5 664a1.84 1.84 0 01-1.94 1.79c-1.3 0-2.31-.58-2.16-2a1.82 1.82 0 012.13-1.56 1.88 1.88 0 011.97 1.77z"
          transform="translate(-260 -146)"/>
    <path class="prefix__cls-27"
          d="M1637.72 767.67c-.22 1-.71 1.9-1.91 1.82a1.81 1.81 0 01-1.7-2c0-1.29.72-2.3 2.13-2.05a2 2 0 011.48 2.23z"
          transform="translate(-260 -146)"/>
    <path class="prefix__cls-28"
          d="M1508.51 483.85a1.85 1.85 0 01-1.77 1.93 1.87 1.87 0 01-2.3-1.34c-.36-1.44.63-2.12 1.91-2.22a2 2 0 012.16 1.63z"
          transform="translate(-260 -146)"/>
    <path class="prefix__cls-23"
          d="M287.48 354.43c-.23 1.07-.83 2-1.9 1.91a2.25 2.25 0 01-2.08-2.34 1.46 1.46 0 011.5-1.58c1.32-.02 2 .92 2.48 2.01z"
          transform="translate(-260 -146)"/>
    <path class="prefix__cls-24"
          d="M311.47 378.22a2 2 0 011.9 1.94c.12 1.31-.85 1.73-1.9 1.69a1.82 1.82 0 01-2-1.81c.05-1.21.95-1.64 2-1.82z"
          transform="translate(-260 -146)"/>
    <path class="prefix__cls-41"
          d="M1585.77 509.62c-.21 1-.63 2-1.85 1.94a1.76 1.76 0 01-1.78-1.95 1.87 1.87 0 011.9-1.89c1.33-.14 1.61.85 1.73 1.9z"
          transform="translate(-260 -146)"/>
    <path class="prefix__cls-27"
          d="M363.2 381.88c-.92 0-1.73-.29-1.81-1.26a1.94 1.94 0 012-2.29c1-.05 1.47.65 1.51 1.58a1.68 1.68 0 01-1.7 1.97z"
          transform="translate(-260 -146)"/>
    <path class="prefix__cls-24"
          d="M1534.24 380.17c0 1.32-.88 1.73-1.94 1.68a1.8 1.8 0 01-1.93-1.82 1.76 1.76 0 012-1.77c1.12-.01 1.63.85 1.87 1.91z"
          transform="translate(-260 -146)"/>
    <path class="prefix__cls-17"
          d="M1508.57 535.73c-.08 1.14-.58 1.95-1.78 1.86a2.3 2.3 0 01-2.11-1.76 1.68 1.68 0 011.51-2.09c1.39-.23 1.89.96 2.38 1.99zM1585.77 380c-.13 1.43-.88 1.94-2 1.88-.92-.05-1.6-.54-1.53-1.54a1.93 1.93 0 012.31-2c.96.12 1.21.96 1.22 1.66zM363.25 482.16a1.62 1.62 0 011.66 1.71c.06.9-.26 1.72-1.23 1.82a1.93 1.93 0 01-2.3-2c-.07-.96.62-1.44 1.87-1.53z"
          transform="translate(-260 -146)"/>
    <path class="prefix__cls-24"
          d="M390.92 483.89c0 .93-.29 1.73-1.26 1.82a2 2 0 01-2.29-2c-.05-1 .64-1.47 1.58-1.51a1.68 1.68 0 011.97 1.69z"
          transform="translate(-260 -146)"/>
    <path class="prefix__cls-17"
          d="M1482.53 510.11a1.91 1.91 0 01-2.14 1.66 1.88 1.88 0 01-1.75-2c0-1.24 1-1.64 2-1.52a1.87 1.87 0 011.89 1.86z"
          transform="translate(-260 -146)"/>
    <path class="prefix__cls-34"
          d="M364.93 509.62c-.21 1-.63 2-1.85 1.94a1.76 1.76 0 01-1.78-1.95 1.88 1.88 0 011.9-1.89c1.33-.14 1.61.85 1.73 1.9z"
          transform="translate(-260 -146)"/>
    <path class="prefix__cls-24"
          d="M1456.57 509.85c-.2 1.33-.94 1.95-2 1.9-1.3-.05-1.58-1.06-1.47-2.12s.43-2.1 1.76-1.8a2.49 2.49 0 011.71 2.02z"
          transform="translate(-260 -146)"/>
    <path class="prefix__cls-26"
          d="M1585.72 560c.1 1.43-.41 2.32-1.47 2.55s-1.86-.5-2.08-1.6.55-1.88 1.55-2.17a1.5 1.5 0 012 1.22z"
          transform="translate(-260 -146)"/>
    <path
            d="M1611.77 483.81c0 1.25-.51 1.94-1.48 1.92a2 2 0 01-2.08-2.25c.06-1 .85-1.36 1.79-1.31a1.62 1.62 0 011.77 1.64z"
            transform="translate(-260 -146)" fill="#232c33"/>
    <path d="M1637.76 483.93c0 .94-.36 1.73-1.32 1.79a2 2 0 01-2.25-2.09c0-1 .69-1.45 1.63-1.47a1.69 1.69 0 011.94 1.77z"
          transform="translate(-260 -146)" fill="#242d35"/>
    <path d="M882.81 430.53a2 2 0 01-2 1.79c-1.22.07-1.78-.77-1.77-1.84 0-1.31.73-2.23 2.13-2.06a1.92 1.92 0 011.64 2.11z"
          transform="translate(-260 -146)" fill="#47525e"/>
    <path class="prefix__cls-37"
          d="M285.46 533.62c1.08.2 2 .79 1.93 1.87a2.27 2.27 0 01-2.29 2.12 1.47 1.47 0 01-1.61-1.49c-.06-1.33.87-2.01 1.97-2.5z"
          transform="translate(-260 -146)"/>
    <path d="M1558 610.35a2.36 2.36 0 012.26 2.13 1.75 1.75 0 01-1.9 1.81 2.29 2.29 0 01-2-1.94c-.23-1.13.4-1.83 1.64-2z"
          transform="translate(-260 -146)" fill="#202830"/>
    <path class="prefix__cls-30"
          d="M1582.13 612.12c.23-1 .77-1.84 2-1.69a1.85 1.85 0 011.63 2.11c0 1.1-.59 2-1.86 1.7a1.93 1.93 0 01-1.77-2.12z"
          transform="translate(-260 -146)"/>
    <path class="prefix__cls-29"
          d="M287.44 586.25c-.08 1.14-.68 2-1.74 2a2.22 2.22 0 01-2.21-2.17 1.48 1.48 0 011.39-1.7c1.33-.13 2.03.81 2.56 1.87z"
          transform="translate(-260 -146)"/>
    <path class="prefix__cls-24"
          d="M363.55 636.23a1.58 1.58 0 011.37 1.76 1.69 1.69 0 01-1.87 1.83c-1.21 0-1.87-.68-1.64-1.89a2.05 2.05 0 012.14-1.7zM1456.73 535.39c0 1.17-.49 2-1.64 2.16s-1.81-.71-1.95-1.78.29-2 1.51-2.06a2 2 0 012.08 1.68z"
          transform="translate(-260 -146)"/>
    <path class="prefix__cls-29"
          d="M1532.51 636.18a2 2 0 011.7 2.07c0 1.24-1 1.65-2 1.52s-1.91-.76-1.79-1.94.93-1.62 2.09-1.65z"
          transform="translate(-260 -146)"/>
    <path class="prefix__cls-26"
          d="M1610 636.27a1.48 1.48 0 011.78 1.44 1.69 1.69 0 01-1.59 2.09c-1.11.1-2-.28-2-1.61a2 2 0 011.81-1.92z"
          transform="translate(-260 -146)"/>
    <path class="prefix__cls-23"
          d="M390.92 664a1.7 1.7 0 01-1.9 1.8c-.95 0-1.66-.48-1.65-1.44a2 2 0 012.21-2.11c.94.05 1.42.81 1.34 1.75z"
          transform="translate(-260 -146)"/>
    <path class="prefix__cls-26"
          d="M1585.77 483.93c0 .94-.36 1.73-1.31 1.79a2 2 0 01-2.25-2.09c0-1 .68-1.45 1.62-1.47a1.69 1.69 0 011.94 1.77z"
          transform="translate(-260 -146)"/>
    <path class="prefix__cls-17"
          d="M364.91 560.37c-.05 1.18-.52 2.06-1.66 2.17s-1.82-.69-1.94-1.78.7-1.81 1.73-2c1.3-.29 1.71.6 1.87 1.61zM362.86 610.38a1.94 1.94 0 012 2c.05 1-.37 2-1.68 1.9a1.88 1.88 0 01-1.91-1.87 1.94 1.94 0 011.59-2.03z"
          transform="translate(-260 -146)"/>
    <path class="prefix__cls-21"
          d="M1636.38 662.22a1.58 1.58 0 011.37 1.76 1.68 1.68 0 01-1.87 1.83c-1.22 0-1.87-.67-1.64-1.89a2.05 2.05 0 012.14-1.7z"
          transform="translate(-260 -146)"/>
    <path class="prefix__cls-46"
          d="M1481.19 562.66a2.48 2.48 0 01-2.55-2 1.74 1.74 0 011.79-1.92 2.27 2.27 0 012 1.83c.4 1.13-.37 1.71-1.24 2.09z"
          transform="translate(-260 -146)"/>
    <path class="prefix__cls-29"
          d="M311.71 639.81c-1.17-.06-2-.53-2.17-1.67s.69-1.81 1.78-1.93 1.81.7 2 1.73c.29 1.29-.6 1.71-1.61 1.87z"
          transform="translate(-260 -146)"/>
    <path class="prefix__cls-24"
          d="M1480.43 584.33c1.37.09 2.18.6 2.09 1.8a2.31 2.31 0 01-1.76 2.11 1.7 1.7 0 01-2.09-1.52c-.28-1.45 1.12-1.72 1.76-2.39z"
          transform="translate(-260 -146)"/>
    <path class="prefix__cls-40"
          d="M1534.25 586.7c-.43 1-1 1.89-2.16 1.53a2.25 2.25 0 01-1.75-2.59 1.51 1.51 0 011.82-1.26 2.4 2.4 0 012.09 2.32z"
          transform="translate(-260 -146)"/>
    <path class="prefix__cls-17"
          d="M1636.07 717.68a2 2 0 01-1.87-2c0-1.32.9-1.68 2-1.57s1.66 1 1.55 2.12a1.45 1.45 0 01-1.68 1.45z"
          transform="translate(-260 -146)"/>
    <path class="prefix__cls-21"
          d="M311.39 533.59c1.27.29 2.14 1 2 2a2.25 2.25 0 01-2.41 2 1.5 1.5 0 01-1.5-1.61c.03-1.32 1.03-1.88 1.91-2.39z"
          transform="translate(-260 -146)"/>
    <path class="prefix__cls-46"
          d="M1480.78 537.66c-1.13-.38-2.21-1-2.13-2.29a1.71 1.71 0 012-1.64 2.31 2.31 0 011.86 2c.16 1.17-.51 1.84-1.73 1.93z"
          transform="translate(-260 -146)"/>
    <path class="prefix__cls-34"
          d="M1558 404.29c1.17-.08 1.72.55 1.76 1.7a1.5 1.5 0 01-1.24 1.76 1.76 1.76 0 01-2.15-1.44c-.2-1.12.56-1.74 1.63-2.02z"
          transform="translate(-260 -146)"/>
    <path class="prefix__cls-21"
          d="M311.35 456.26c1.33.08 1.66.91 1.59 2-.06.88-.53 1.54-1.49 1.51a1.72 1.72 0 01-1.9-1.72c-.02-1.17.8-1.66 1.8-1.79z"
          transform="translate(-260 -146)"/>
    <path class="prefix__cls-29"
          d="M339 457.86c0 1.08-.35 1.95-1.61 1.88a1.7 1.7 0 01-1.81-1.8 1.65 1.65 0 011.49-1.62c1.12-.23 1.76.37 1.93 1.54z"
          transform="translate(-260 -146)"/>
    <path class="prefix__cls-17"
          d="M363.12 459.75c-1.05-.29-1.8-.92-1.56-2a1.76 1.76 0 012.17-1.4 1.76 1.76 0 01-.61 3.44z"
          transform="translate(-260 -146)"/>
    <path class="prefix__cls-46"
          d="M389.33 456.26c1.33.08 1.67.92 1.6 2a1.42 1.42 0 01-1.49 1.51 1.71 1.71 0 01-1.9-1.71c-.02-1.18.79-1.67 1.79-1.8z"
          transform="translate(-260 -146)"/>
    <path class="prefix__cls-23"
          d="M414.92 456.15c1.07 0 1.95.35 1.88 1.61a1.72 1.72 0 01-1.81 1.81 1.68 1.68 0 01-1.62-1.5c-.22-1.15.38-1.8 1.55-1.92z"
          transform="translate(-260 -146)"/>
    <path class="prefix__cls-36"
          d="M1456.5 457.9a1.79 1.79 0 01-1.75 1.85 1.4 1.4 0 01-1.65-1.33c-.16-1 .11-2 1.32-2.13a1.84 1.84 0 012.08 1.61z"
          transform="translate(-260 -146)"/>
    <path class="prefix__cls-46"
          d="M1482.5 458a1.8 1.8 0 01-1.9 1.75 1.41 1.41 0 01-1.52-1.48c-.08-1 .24-2 1.49-2a1.78 1.78 0 011.93 1.73z"
          transform="translate(-260 -146)"/>
    <path class="prefix__cls-21"
          d="M1559.82 457.77c-.12 1.52-.72 2.16-1.9 2a1.7 1.7 0 01-1.55-1.58 1.72 1.72 0 011.76-1.86c1.28-.15 1.53.8 1.69 1.44z"
          transform="translate(-260 -146)"/>
    <path class="prefix__cls-26"
          d="M1585.79 458.21c-.14 1.18-.81 1.76-2 1.51a1.67 1.67 0 01-1.46-1.66 1.72 1.72 0 011.85-1.77c1.33-.05 1.6.86 1.61 1.92z"
          transform="translate(-260 -146)"/>
    <path class="prefix__cls-41"
          d="M1611.82 457.78c-.14 1.55-.76 2.16-1.94 1.94a1.67 1.67 0 01-1.51-1.6 1.71 1.71 0 011.79-1.83c1.3-.1 1.49.89 1.66 1.49z"
          transform="translate(-260 -146)"/>
    <path class="prefix__cls-32"
          d="M1636 456.27c1.17-.08 1.73.55 1.77 1.7a1.52 1.52 0 01-1.24 1.77 1.78 1.78 0 01-2.16-1.44c-.22-1.13.54-1.75 1.63-2.03z"
          transform="translate(-260 -146)"/>
    <path class="prefix__cls-29"
          d="M337.31 485.76c-1-.15-1.81-.65-1.76-1.81a1.71 1.71 0 011.94-1.67 1.42 1.42 0 011.45 1.55c.06 1.07-.3 1.89-1.63 1.93z"
          transform="translate(-260 -146)"/>
    <path class="prefix__cls-23"
          d="M416.82 483.87c-.24 1.08-.83 1.85-2 1.67a1.76 1.76 0 01-1.51-2.09 1.5 1.5 0 011.72-1.3c1.16.03 1.84.52 1.79 1.72z"
          transform="translate(-260 -146)"/>
    <path class="prefix__cls-24"
          d="M1454.49 482.25c1.06.07 1.9.52 2 1.66s-.7 1.72-1.77 1.83a1.39 1.39 0 01-1.6-1.39c-.12-1.03.12-1.92 1.37-2.1z"
          transform="translate(-260 -146)"/>
    <path class="prefix__cls-17"
          d="M1480.76 482.26c1 .22 1.84.76 1.7 1.92a1.75 1.75 0 01-2 1.56 1.47 1.47 0 01-1.35-1.67c-.04-1.07.41-1.84 1.65-1.81z"
          transform="translate(-260 -146)"/>
    <path class="prefix__cls-26"
          d="M1558.15 485.76c-1-.15-1.81-.65-1.76-1.81a1.71 1.71 0 011.93-1.68 1.44 1.44 0 011.46 1.56c.05 1.07-.3 1.89-1.63 1.93z"
          transform="translate(-260 -146)"/>
    <path d="M1636 511.59a1.8 1.8 0 01-1.78-1.85 1.42 1.42 0 011.42-1.59c1-.11 2 .2 2.05 1.44a1.81 1.81 0 01-1.69 2z"
          transform="translate(-260 -146)" fill="#252d36"/>
    <path class="prefix__cls-35"
          d="M1609.64 508.11c1.47.1 2.17.62 2 1.84a1.71 1.71 0 01-1.53 1.6 1.69 1.69 0 01-1.91-1.7c-.15-1.27.8-1.58 1.44-1.74z"
          transform="translate(-260 -146)"/>
    <path class="prefix__cls-23"
          d="M414.92 508.14c1.07 0 1.95.34 1.88 1.61a1.71 1.71 0 01-1.81 1.8 1.65 1.65 0 01-1.61-1.49c-.23-1.16.37-1.8 1.54-1.92z"
          transform="translate(-260 -146)"/>
    <path class="prefix__cls-40"
          d="M338.94 612.57c-.21 1-.56 1.85-1.6 1.64a2.22 2.22 0 01-1.84-2.09 1.5 1.5 0 011.92-1.67 2 2 0 011.52 2.12z"
          transform="translate(-260 -146)"/>
    <path class="prefix__cls-24"
          d="M389.21 613.89c-1.5-.18-2.08-.85-1.83-2a1.67 1.67 0 011.66-1.46 1.73 1.73 0 011.77 1.85c.07 1.34-.97 1.44-1.6 1.61z"
          transform="translate(-260 -146)"/>
    <path class="prefix__cls-23"
          d="M413.31 612.43c.08-1.06.52-1.91 1.66-2s1.72.71 1.83 1.78a1.39 1.39 0 01-1.39 1.6c-1.03.19-1.91-.14-2.1-1.38z"
          transform="translate(-260 -146)"/>
    <path class="prefix__cls-36"
          d="M1456.56 612a2.33 2.33 0 01-2 2.21c-.91.1-1.37-.71-1.39-1.58 0-1.27.51-2.25 1.9-2.25.82.02 1.38.62 1.49 1.62z"
          transform="translate(-260 -146)"/>
    <path class="prefix__cls-24"
          d="M389.12 511.59a1.8 1.8 0 01-1.77-1.85 1.4 1.4 0 011.42-1.58c1-.11 2 .19 2 1.43a1.8 1.8 0 01-1.65 2z"
          transform="translate(-260 -146)"/>
    <path class="prefix__cls-46"
          d="M389.16 562.63c-1.36-.35-2-1.11-1.81-2.17s1.12-1.46 2.16-1.29a1.42 1.42 0 011.3 1.68 2 2 0 01-1.65 1.78z"
          transform="translate(-260 -146)"/>
    <path class="prefix__cls-17"
          d="M1558.14 378.29c1.3 0 1.68.83 1.64 1.92a1.43 1.43 0 01-1.44 1.56 1.72 1.72 0 01-2-1.65c-.02-1.12.79-1.66 1.8-1.83z"
          transform="translate(-260 -146)"/>
    <path class="prefix__cls-34"
          d="M1610 381.91c-1.1 0-1.91-.45-1.78-1.7a1.72 1.72 0 013.44-.13c.14 1.21-.53 1.76-1.66 1.83z"
          transform="translate(-260 -146)"/>
    <path class="prefix__cls-32"
          d="M1611.68 612.24c-.08 1.34-.92 1.67-2 1.6-.89-.06-1.54-.53-1.52-1.49a1.72 1.72 0 011.72-1.9c1.17-.03 1.67.79 1.8 1.79z"
          transform="translate(-260 -146)"/>
    <path class="prefix__cls-39"
          d="M1637.66 612.08c.08 1.17-.55 1.73-1.7 1.77a1.52 1.52 0 01-1.77-1.25 1.78 1.78 0 011.44-2.15c1.13-.22 1.75.55 2.03 1.63z"
          transform="translate(-260 -146)"/>
    <path class="prefix__cls-19"
          d="M416.88 560.58c-.3 1.35-.89 2.11-2 1.94a1.76 1.76 0 01-1.51-2.09c.1-.9.82-1.3 1.72-1.3a1.64 1.64 0 011.79 1.45z"
          transform="translate(-260 -146)"/>
    <path class="prefix__cls-29"
          d="M1635.79 378.47a1.77 1.77 0 011.85 1.75 1.4 1.4 0 01-1.33 1.65c-1 .16-2-.11-2.13-1.32a1.84 1.84 0 011.61-2.08z"
          transform="translate(-260 -146)"/>
    <path class="prefix__cls-17"
          d="M337.56 636.22c1.23.23 1.51 1.1 1.36 2.14a1.4 1.4 0 01-1.64 1.34c-1.06-.13-1.84-.71-1.74-1.86s.96-1.57 2.02-1.62zM313 405.9c-.18 1.5-.85 2.08-2 1.83a1.66 1.66 0 01-1.45-1.65 1.72 1.72 0 011.84-1.78c1.33-.06 1.44.97 1.61 1.6z"
          transform="translate(-260 -146)"/>
    <path class="prefix__cls-19"
          d="M389.11 636.41a1.78 1.78 0 011.7 2c-.05 1.24-1 1.54-2 1.44a1.4 1.4 0 01-1.44-1.55 1.79 1.79 0 011.74-1.89z"
          transform="translate(-260 -146)"/>
    <path class="prefix__cls-23"
          d="M1454.52 636.17c1.35.31 2.12.89 1.94 2a1.77 1.77 0 01-2.1 1.51c-.9-.1-1.29-.82-1.29-1.72a1.65 1.65 0 011.45-1.79z"
          transform="translate(-260 -146)"/>
    <path class="prefix__cls-24"
          d="M1482.5 638a1.79 1.79 0 01-2 1.7c-1.25-.05-1.55-1-1.45-2a1.4 1.4 0 011.56-1.44 1.79 1.79 0 011.89 1.74z"
          transform="translate(-260 -146)"/>
    <path class="prefix__cls-46"
          d="M337.12 407.77c-1-.29-1.79-.93-1.55-2a1.77 1.77 0 012.17-1.41c.92.16 1.24.91 1.21 1.79a1.52 1.52 0 01-1.83 1.62z"
          transform="translate(-260 -146)"/>
    <path class="prefix__cls-19"
          d="M361.52 406.25a1.78 1.78 0 011.68-1.94 1.39 1.39 0 011.7 1.27c.18 1-.07 2-1.26 2.18a1.84 1.84 0 01-2.12-1.51z"
          transform="translate(-260 -146)"/>
    <path class="prefix__cls-21"
          d="M1559.81 637.73c0 1.29-.47 2.1-1.72 2a1.72 1.72 0 01-.12-3.43 1.5 1.5 0 011.84 1.43z"
          transform="translate(-260 -146)"/>
    <path class="prefix__cls-30"
          d="M1584.13 639.73c-1-.18-1.83-.68-1.75-1.85a1.74 1.74 0 012-1.64 1.45 1.45 0 011.41 1.6c.03 1.1-.38 1.87-1.66 1.89z"
          transform="translate(-260 -146)"/>
    <path class="prefix__cls-19"
          d="M1480.6 404.27c1 .11 1.84.57 1.86 1.72s-.77 1.7-1.84 1.78a1.4 1.4 0 01-1.54-1.46c-.08-1.04.21-1.9 1.52-2.04z"
          transform="translate(-260 -146)"/>
    <path class="prefix__cls-26"
          d="M1635.72 639.85c-1.18-.14-1.76-.82-1.51-2a1.67 1.67 0 011.66-1.46 1.72 1.72 0 011.77 1.85c.05 1.32-.86 1.6-1.92 1.61z"
          transform="translate(-260 -146)"/>
    <path class="prefix__cls-34"
          d="M311.31 662.22c1.3 0 1.68.83 1.64 1.92a1.45 1.45 0 01-1.45 1.57 1.73 1.73 0 01-1.95-1.66c-.07-1.17.75-1.66 1.76-1.83z"
          transform="translate(-260 -146)"/>
    <path class="prefix__cls-17"
          d="M337.31 665.72c-1-.15-1.81-.64-1.76-1.81a1.72 1.72 0 011.94-1.67 1.42 1.42 0 011.45 1.55c.06 1.07-.29 1.89-1.63 1.93z"
          transform="translate(-260 -146)"/>
    <path class="prefix__cls-24"
          d="M365 664.11c-.1 1.17-.72 1.78-1.9 1.56a1.67 1.67 0 01-1.51-1.6 1.7 1.7 0 011.78-1.82c1.22-.08 1.57.75 1.63 1.86z"
          transform="translate(-260 -146)"/>
    <path class="prefix__cls-29"
          d="M1584.13 407.78c-1-.18-1.83-.68-1.75-1.85a1.74 1.74 0 012-1.63 1.45 1.45 0 011.41 1.6c.03 1.1-.38 1.86-1.66 1.88z"
          transform="translate(-260 -146)"/>
    <path class="prefix__cls-21"
          d="M1611.79 405.87c0 1.09-.35 2-1.62 1.89a1.72 1.72 0 01-1.81-1.81 1.67 1.67 0 011.5-1.62c1.14-.22 1.79.4 1.93 1.54zM1637.66 406.12c.08 1.18-.55 1.73-1.7 1.77a1.52 1.52 0 01-1.77-1.24 1.77 1.77 0 011.44-2.15c1.13-.22 1.75.5 2.03 1.62z"
          transform="translate(-260 -146)"/>
    <path class="prefix__cls-24"
          d="M1454.4 558.66a2.48 2.48 0 012.07 1.92 1.5 1.5 0 01-1.58 2c-1.21 0-1.7-.94-1.78-2a1.74 1.74 0 011.29-1.92z"
          transform="translate(-260 -146)"/>
    <path class="prefix__cls-29"
          d="M1558 665.71c-1-.29-1.8-.93-1.56-2a1.76 1.76 0 012.17-1.41c.92.16 1.25.9 1.22 1.79a1.52 1.52 0 01-1.83 1.62zM1583.85 662.21c1.59 0 2 .84 1.92 1.93a1.43 1.43 0 01-1.44 1.57 1.74 1.74 0 01-2-1.66c-.05-1.21.92-1.54 1.52-1.84z"
          transform="translate(-260 -146)"/>
    <path class="prefix__cls-17"
          d="M337.18 430.28c1.17-.08 1.73.55 1.77 1.7 0 .89-.33 1.62-1.25 1.76a1.75 1.75 0 01-2.14-1.44c-.22-1.12.54-1.74 1.62-2.02z"
          transform="translate(-260 -146)"/>
    <path class="prefix__cls-24"
          d="M365 431.75c-.1 1.46-.62 2.16-1.83 2a1.7 1.7 0 01-1.6-1.53 1.68 1.68 0 011.69-1.9c1.24-.16 1.55.74 1.74 1.43z"
          transform="translate(-260 -146)"/>
    <path class="prefix__cls-19"
          d="M389.11 433.76c-1-.29-1.79-.93-1.55-2a1.78 1.78 0 012.17-1.41c.92.16 1.24.91 1.21 1.79a1.52 1.52 0 01-1.83 1.62z"
          transform="translate(-260 -146)"/>
    <path class="prefix__cls-23"
          d="M1456.51 432a1.81 1.81 0 01-1.9 1.75 1.4 1.4 0 01-1.52-1.48c-.08-1 .23-2 1.48-2a1.79 1.79 0 011.94 1.73z"
          transform="translate(-260 -146)"/>
    <path class="prefix__cls-24"
          d="M339 689.91c0 1.1-.46 1.91-1.7 1.77a1.72 1.72 0 01-.13-3.43c1.17-.17 1.72.51 1.83 1.66z"
          transform="translate(-260 -146)"/>
    <path class="prefix__cls-23"
          d="M361.52 690.18a1.78 1.78 0 011.68-1.94 1.4 1.4 0 011.7 1.27c.18 1-.07 2-1.26 2.18a1.83 1.83 0 01-2.12-1.51z"
          transform="translate(-260 -146)"/>
    <path class="prefix__cls-19"
          d="M1482.5 689.84a1.77 1.77 0 01-1.75 1.85 1.39 1.39 0 01-1.65-1.32c-.16-1 .1-2 1.32-2.13a1.83 1.83 0 012.08 1.6z"
          transform="translate(-260 -146)"/>
    <path class="prefix__cls-24"
          d="M1533.79 690.07c-.09 1.16-.69 1.8-1.87 1.6a1.72 1.72 0 01.21-3.43c1.25-.1 1.64.76 1.66 1.83z"
          transform="translate(-260 -146)"/>
    <path class="prefix__cls-17"
          d="M1558.18 688.21c1.33.07 1.66.91 1.59 2-.06.89-.53 1.54-1.49 1.52a1.73 1.73 0 01-1.9-1.72c-.02-1.18.8-1.67 1.8-1.8z"
          transform="translate(-260 -146)"/>
    <path class="prefix__cls-34"
          d="M1585.79 689.75c0 1.06-.28 2-1.56 1.94a1.71 1.71 0 01-1.86-1.75 1.66 1.66 0 011.44-1.67 1.5 1.5 0 011.98 1.48z"
          transform="translate(-260 -146)"/>
    <path class="prefix__cls-29"
          d="M1610 691.7c-1-.29-1.8-.93-1.56-2a1.77 1.77 0 012.17-1.41 1.54 1.54 0 011.22 1.79 1.52 1.52 0 01-1.83 1.62zM1636.39 688.2c1.22.23 1.5 1.1 1.35 2.14a1.4 1.4 0 01-1.64 1.35c-1.06-.13-1.84-.72-1.73-1.87s.95-1.57 2.02-1.62z"
          transform="translate(-260 -146)"/>
    <path d="M1480.48 430.26c1.07.08 1.91.52 2 1.66s-.71 1.73-1.78 1.83a1.4 1.4 0 01-1.6-1.39c-.1-1.03.14-1.91 1.38-2.1z"
          transform="translate(-260 -146)" fill="#1f282f"/>
    <path class="prefix__cls-21"
          d="M1611.8 663.72c0 1.3-.47 2.11-1.72 2a1.72 1.72 0 01-.12-3.44 1.49 1.49 0 011.84 1.44z"
          transform="translate(-260 -146)"/>
    <path class="prefix__cls-23"
          d="M335.52 716.14a1.76 1.76 0 011.69-1.9 1.38 1.38 0 011.69 1.26c.18 1-.07 2-1.25 2.19a1.85 1.85 0 01-2.13-1.55z"
          transform="translate(-260 -146)"/>
    <path class="prefix__cls-29"
          d="M1558.18 430.23a1.7 1.7 0 011.58 2.18 1.4 1.4 0 01-1.64 1.34c-1.06-.13-1.84-.71-1.74-1.87s1.03-1.47 1.8-1.65z"
          transform="translate(-260 -146)"/>
    <path class="prefix__cls-24"
          d="M1558.4 714.2c1.22.22 1.5 1.09 1.35 2.14a1.39 1.39 0 01-1.63 1.34c-1.06-.13-1.84-.71-1.74-1.86s.96-1.57 2.02-1.62z"
          transform="translate(-260 -146)"/>
    <path class="prefix__cls-46"
          d="M1585.79 716.15c-.14 1.18-.82 1.75-2 1.5a1.64 1.64 0 01-1.45-1.65 1.71 1.71 0 011.84-1.77c1.33-.05 1.6.86 1.61 1.92z"
          transform="translate(-260 -146)"/>
    <path class="prefix__cls-17"
          d="M1611.78 716.06c-.09 1.17-.69 1.8-1.87 1.6a1.67 1.67 0 01-1.54-1.57 1.69 1.69 0 011.75-1.85c1.25-.11 1.64.76 1.66 1.82z"
          transform="translate(-260 -146)"/>
    <path class="prefix__cls-21"
          d="M1585.79 432.13c-.09 1.17-.7 1.8-1.88 1.61a1.68 1.68 0 01-1.54-1.58 1.7 1.7 0 011.76-1.86c1.25-.1 1.63.7 1.66 1.83z"
          transform="translate(-260 -146)"/>
    <path d="M1611.81 431.75c-.1 1.46-.62 2.16-1.84 2a1.72 1.72 0 01.09-3.44c1.27-.15 1.58.75 1.75 1.44z"
          transform="translate(-260 -146)" fill="#222b32"/>
    <path class="prefix__cls-23"
          d="M1559.82 741.71c-.13 1.54-.75 2.16-1.93 1.94a1.68 1.68 0 01-1.51-1.6 1.7 1.7 0 011.79-1.82c1.29-.1 1.48.88 1.65 1.48z"
          transform="translate(-260 -146)"/>
    <path class="prefix__cls-19"
          d="M1584.14 743.69c-1-.15-1.8-.64-1.75-1.8a1.71 1.71 0 011.93-1.67 1.42 1.42 0 011.45 1.55c.06 1.07-.29 1.89-1.63 1.92z"
          transform="translate(-260 -146)"/>
    <path class="prefix__cls-24"
          d="M1611.66 741.74c-.18 1-.68 1.83-1.85 1.74a1.73 1.73 0 01-1.63-2 1.45 1.45 0 011.6-1.41c1.1-.01 1.86.39 1.88 1.67zM1637.67 741.63c-.1 1-.56 1.83-1.72 1.85s-1.7-.76-1.77-1.83a1.4 1.4 0 011.45-1.55c1.05-.1 1.91.21 2.04 1.53z"
          transform="translate(-260 -146)"/>
    <path class="prefix__cls-26"
          d="M1636.16 430.23a1.69 1.69 0 011.58 2.18 1.39 1.39 0 01-1.64 1.34c-1.06-.13-1.83-.71-1.74-1.87s1.03-1.48 1.8-1.65z"
          transform="translate(-260 -146)"/>
    <path class="prefix__cls-46"
          d="M311.39 717.76c-1.31-.36-2.06-1-1.82-2.11a1.76 1.76 0 012.17-1.4c.92.15 1.23.9 1.22 1.78a1.6 1.6 0 01-1.57 1.73z"
          transform="translate(-260 -146)"/>
    <path class="prefix__cls-29"
          d="M1508.32 560.41c-.22 1.09-.86 2-1.94 1.91a1.82 1.82 0 01-.14-3.63c1.14-.12 1.76.71 2.08 1.72z"
          transform="translate(-260 -146)"/>
    <path class="prefix__cls-46"
          d="M338.84 380.12a1.33 1.33 0 01-1.26 1.68 1.81 1.81 0 01-2.05-1.61 1.46 1.46 0 011.31-1.72c1.16-.16 1.76.58 2 1.65z"
          transform="translate(-260 -146)"/>
    <path class="prefix__cls-21"
          d="M1506.19 584.64a1.9 1.9 0 012 1.74 1.76 1.76 0 01-1.82 1.91 2.52 2.52 0 01-1.73-1.48c-.37-1.16.63-1.72 1.55-2.17z"
          transform="translate(-260 -146)"/>
    <path class="prefix__cls-1"
          d="M493.08 531c0-5.33.09-10.67 0-16-.06-2.27.45-3.39 3-3.2 2.82.2 5.66 0 8.49.12a12.4 12.4 0 018.43 3.84c6.34 6.39 7.2 22.84 1.58 30-3.15 4-16.58 7.2-20.52 4.91-1.3-.76-.91-2-.92-3.14-.08-5.53-.06-11.02-.06-16.53z"
          transform="translate(-260 -146)"/>
    <path class="prefix__cls-50"
          d="M744 539.94a16.25 16.25 0 012.16-9.48 9.27 9.27 0 0114.28-1.52c4.4 4.64 4.35 16.89-.1 21.42s-12.3 2.91-15-3a14.42 14.42 0 01-1.34-7.42z"
          transform="translate(-260 -146)"/>
    <path
            d="M639.35 535c-1.5 0-3 .11-4.48 0s-3.79.91-4.52-.71c-.88-1.92.71-3.8 2-5.31 4.19-5 12.85-3.89 15.44 2 1 2.37 1.6 4.56-2.44 4.1a54 54 0 00-6-.08z"
            transform="translate(-260 -146)" fill="#172129"/>
    <path class="prefix__cls-52"
          d="M1339.2 535c.78-5.17 3.14-8.39 8.16-9 4.41-.55 7.81 1 9.78 5.21 1.15 2.48 1.28 4-2.29 3.87-5.12-.18-10.26-.08-15.65-.08zM868.22 535.05a20.06 20.06 0 01-3.47 0c-1.68-.3-4.18 1.15-4.87-.85s.89-4.12 2.41-5.68c4.51-4.63 13.07-2.86 15.31 3.06.93 2.45.59 3.76-2.43 3.54-2.31-.21-4.63-.07-6.95-.07z"
          transform="translate(-260 -146)"/>
    <path
            d="M554.93 535.05a41.43 41.43 0 01-4.46 0c-1.54-.16-3.7 1-4.48-.75s.61-3.48 1.71-4.93a9.4 9.4 0 0115.71 1.63c1.26 2.7 1.21 4.42-2.53 4.09-1.97-.19-3.97-.04-5.95-.04z"
            transform="translate(-260 -146)" fill="#18212a"/>
    <path
            d="M1175.92 539.72c0-9.17 4.43-14.4 11.77-13.88a9.28 9.28 0 018.72 7c2 6.27 2.12 12.58-2.55 17.84-2.76 3.12-6.56 3.67-10.54 2.37-4.87-1.59-7.4-6.18-7.4-13.33z"
            transform="translate(-260 -146)" fill="#151e27"/>
    <path
            d="M716 539.5c0 8.82-4.4 14.4-11 14.18-4.82-.17-8.11-2.69-9.67-7.27a20.62 20.62 0 01-.22-12.74c1.48-5 4.87-7.74 9.66-7.86 5.11-.13 8.6 2.46 10.3 7.66a16.1 16.1 0 01.93 6.03z"
            transform="translate(-260 -146)" fill="#151f27"/>
    <path class="prefix__cls-50"
          d="M840 440.14c-.07-5.12 2.8-8.91 6.74-8.87s7.38 4.05 7 8.72c-.17 2 .57 6.37-4.29 3.82-1.08-.57-2.22.16-1.92 1.35 1.57 6.18-2.7 2.43-3.86 2-3.07-1.16-3.67-4.03-3.67-7.02z"
          transform="translate(-260 -146)"/>
    <path
            d="M1070.12 443.07c0 2.8-.55 5-3.68 5-3.54 0-4.38-2.67-4.24-5.41.13-2.47 1.08-5.29 4.18-5.12 3.34.17 3.95 2.91 3.74 5.53z"
            transform="translate(-260 -146)" fill="#162029"/>
    <path
            d="M1085.38 441.27c-1.49-.46-3.7.67-3.81-1.43-.09-1.76 1.66-2.68 3.48-2.69 1.62 0 3.12.8 3.27 2.36.25 2.49-2.1 1.06-2.94 1.76z"
            transform="translate(-260 -146)" fill="#18222b"/>
    <path
            d="M971 445.05c-.46 2.49-1.81 3.75-4.1 3.81-1.49 0-2.8-.77-2.65-2.31.27-3 3.12-2.39 5-3 1.5-.49 1.54.76 1.75 1.5z"
            transform="translate(-260 -146)" fill="#19232c"/>
</svg>